/* XPM */
static char * close_xpm[] = {
"16 21 9 1",
" 	c None",
".	c #840000",
"+	c #942929",
"@	c #9C3131",
"#	c #9C3939",
"$	c #A54242",
"%	c #A54A4A",
"&	c #AD5252",
"*	c #AD5A5A",
"                ",
"                ",
"                ",
"                ",
"                ",
"    ...         ",
"   ..+..        ",
"  ..+@#..       ",
" ..+@##$..      ",
"..+@##$%&..     ",
".+@##$%&&*.     ",
"..##$%&&*..     ",
" ..$%&&*..      ",
"  ..&&*..       ",
"   ..*..        ",
"    ...         ",
"                ",
"                ",
"                ",
"                ",
"                "};
