/* XPM */
static char * empty_xpm[] = {
"16 21 9 1",
" 	c None",
".	c #848400",
"+	c #949429",
"@	c #9C9C31",
"#	c #9C9C39",
"$	c #A5A542",
"%	c #A5A54A",
"&	c #ADAD52",
"*	c #ADAD5A",
"                ",
"                ",
"                ",
"                ",
"                ",
"    ...         ",
"   ..+..        ",
"  ..+@#..       ",
" ..+@##$..      ",
"..+@##$%%..     ",
".+@##$%%&*.     ",
"..##$%%&*..     ",
" ..$%%&*..      ",
"  ..%&*..       ",
"   ..*..        ",
"    ...         ",
"                ",
"                ",
"                ",
"                ",
"                "};
