/* XPM */
static char * handle_xpm[] = {
"10 21 2 1",
" 	c None",
".	c #ADA5C6",
"          ",
"          ",
"          ",
"          ",
"          ",
"          ",
"          ",
"          ",
"          ",
"          ",
"..........",
"          ",
"          ",
"          ",
"          ",
"          ",
"          ",
"          ",
"          ",
"          ",
"          "};
