/* XPM */
static char * leaf_xpm[] = {
"16 21 9 1",
" 	c None",
".	c #424242",
"+	c #737373",
"@	c #7B7B7B",
"#	c #848484",
"$	c #8C8C8C",
"%	c #949494",
"&	c #9C9C9C",
"*	c #A5A5A5",
"                ",
"                ",
"                ",
"                ",
"                ",
"                ",
"   .....        ",
"  .+@@##.       ",
" .+@@##$$.      ",
".+@@##$$%%.     ",
".@@##$$%%&.     ",
".@##$$%%&*.     ",
" .#$$%%&*.      ",
"  .$%%&*.       ",
"   .....        ",
"                ",
"                ",
"                ",
"                ",
"                ",
"                "};
