/* XPM */
static char *dummy[]={
"9 17 4 1",
". c None",
"# c #00ff00",
"b c #00ffff",
"a c #606060",
".........",
".........",
".........",
"######...",
"aaaaaa#..",
".bbbbaa#.",
"....bbaa#",
"..aa..baa",
"aaaaa..ba",
"..aa..baa",
"....bbaa#",
".bbbbaa#.",
"aaaaaa#..",
"######...",
".........",
".........",
"........."};
