/* XPM */
static char *dummy[]={
"10 17 4 1",
". c None",
"# c #00ff00",
"b c #00ffff",
"a c #606060",
"..........",
"..........",
"..........",
"...######.",
"..#aaaaaa.",
".#aabbbb..",
"#aabb.....",
"aab..aa...",
"abaaaaa...",
"aab..aa...",
"#aabb.....",
".#aabbbb..",
"..#aaaaaa.",
"...######.",
"..........",
"..........",
".........."};
