/* XPM */
static char *dummy[]={
"10 17 6 1",
". c None",
"b c #333300",
"# c #666600",
"d c #808080",
"c c #999933",
"a c #999966",
"..........",
"..........",
"..........",
"..........",
"...##a#...",
"..aaaaaa..",
".aa....##.",
".ab....a#.",
".cb....#b.",
"caaaaaaacb",
"cddddddddb",
"adaddddddb",
"adaddddddb",
"caadddddab",
"addddddddb",
"bbbbbbbbbb",
".........."};
