/* XPM */
static char *dummy[]={
"11 17 2 1",
". c None",
"# c #606060",
"....#......",
"....#......",
"....#......",
"....#......",
"....#......",
"....#......",
"....#......",
"....##.....",
"....#.#####",
"....##.....",
"....#......",
"....#......",
"....#......",
"....#......",
"....#......",
"....#......",
"....#......"};
