/* XPM */
static char *dummy[]={
"10 17 4 1",
". c None",
"a c #00ff00",
"b c #00ffff",
"# c #606060",
"..........",
"..........",
"..........",
"..........",
"#.......#a",
"#b.....b#a",
"#b.....b#a",
"#b####.b#a",
"#b.###.b#a",
"#bb.#.bb#a",
"##b.#.b##a",
"a##b#b##a.",
".a##b##a..",
"..a###a...",
"...a#a....",
"....#.....",
"....#....."};
