/* XPM */
static char *dummy[]={
"10 17 6 1",
". c None",
"c c #333300",
"a c #666600",
"b c #999933",
"# c #999966",
"d c #ffff00",
"..........",
"..........",
"..........",
"...####...",
"..#a#a###.",
"..a#...##.",
".a#.....#.",
".##.......",
"..##......",
"b###c###bc",
"bddddddddc",
"#d#ddddddc",
"#d#ddddddc",
"b##ddddd#c",
"#ddddddddc",
"cccccccccc",
".........."};
