/* XPM */
static char * right_xpm[] = {
"9 9 4 1",
" 	c none",
".	c black",
"x	c gray45",
"+	c white",
"..       ",
".x..     ",
".++x..   ",
".++++x.. ",
".++++++x.",
".++++x.. ",
".++x..   ",
".x..     ",
"..       "};
