/* XPM */
static char * visit_xpm[] = {
"24 24 39 1",
" 	c None",
".	c #000000",
"+	c #FFFFFF",
"@	c #00E63D",
"#	c #00E83E",
"$	c #00E73D",
"%	c #00E93E",
"&	c #00E63C",
"*	c #00E53C",
"=	c #00E23B",
"-	c #00E33B",
";	c #00E83D",
">	c #00E13A",
",	c #00DD38",
"'	c #00DE38",
")	c #00E23A",
"!	c #00E43C",
"~	c #00DF39",
"{	c #00DB37",
"]	c #00D634",
"^	c #00D734",
"/	c #00E039",
"(	c #00DC37",
"_	c #00D835",
":	c #00D332",
"<	c #00CD2F",
"[	c #00DB36",
"}	c #00D433",
"|	c #00CF30",
"1	c #00DA36",
"2	c #00D936",
"3	c #00D533",
"4	c #00D131",
"5	c #00CE2F",
"6	c #00CC2F",
"7	c #00CA2D",
"8	c #00C62B",
"9	c #00C52A",
"0	c #00BE27",
"                        ",
"                        ",
"            .           ",
"           .+.          ",
"          .+++.         ",
"         .++.++.        ",
"        .++.@.++.       ",
"       .++.##$.++.      ",
"      .++.%%%#&.++.     ",
"     .++.$%%%#*=.++.    ",
"    .++.-@;##$*>,.++.   ",
"   .++.')!&@@*=~{].++.  ",
"  .++.^{~>---)/(_:<.++. ",
"   .++.^[,~/~'(_}|.++.  ",
"    .++.]_1[12^:|.++.   ",
"     .++.:}33:45.++.    ",
"      .++.<5567.++.     ",
"       .++.889.++.      ",
"        .++.0.++.       ",
"         .++.++.        ",
"          .+++.         ",
"           .+.          ",
"            .           ",
"                        "};
