/* XPM */
static char * get_all_xpm[] = {
"24 24 70 1",
" 	c None",
".	c #000000",
"+	c #F3DA00",
"@	c #F5DF00",
"#	c #F7E300",
"$	c #F9E700",
"%	c #FAEA00",
"&	c #FBEC00",
"*	c #FBED00",
"=	c #FCEE00",
"-	c #FAEB00",
";	c #F9E800",
">	c #F8E500",
",	c #F6E000",
"'	c #F4DB00",
")	c #F1D500",
"!	c #EFD000",
"~	c #B7CA00",
"{	c #BFD100",
"]	c #C5D700",
"^	c #CBDB00",
"/	c #CFDF00",
"(	c #D2E200",
"_	c #D4E400",
":	c #D3E300",
"<	c #D0E000",
"[	c #CCDD00",
"}	c #C7D800",
"|	c #C1D300",
"1	c #BACC00",
"2	c #B1C500",
"3	c #A8BC00",
"4	c #20A900",
"5	c #22AF00",
"6	c #24B500",
"7	c #26B900",
"8	c #27BC00",
"9	c #27BE00",
"0	c #28BF00",
"a	c #27BD00",
"b	c #26BA00",
"c	c #25B600",
"d	c #23B100",
"e	c #21AB00",
"f	c #1FA400",
"g	c #1C9B00",
"h	c #21AA00",
"i	c #24B300",
"j	c #25B800",
"k	c #25B700",
"l	c #24B400",
"m	c #23B000",
"n	c #1FA500",
"o	c #1D9E00",
"p	c #20A800",
"q	c #21AC00",
"r	c #23B200",
"s	c #22AD00",
"t	c #1D9F00",
"u	c #20A700",
"v	c #1EA100",
"w	c #1C9C00",
"x	c #1DA000",
"y	c #1B9800",
"z	c #1A9600",
"A	c #1A9700",
"B	c #1A9500",
"C	c #199200",
"D	c #189100",
"E	c #178C00",
"                        ",
"                        ",
"                        ",
"                        ",
"   ...................  ",
"   .+@#$%&*=*&-;>,')!.  ",
"   ...................  ",
"                        ",
"   ...................  ",
"   .~{]^/(___:<[}|123.  ",
"   ...................  ",
"                        ",
"   ...................  ",
"    .45678909abcdefg.   ",
"     .h5icj7jklmeno.    ",
"      .pq5drrmshft.     ",
"       .fu4h4pnvw.      ",
"        .oxvxtwy.       ",
"         .zAAzB.        ",
"          .CCD.         ",
"           .E.          ",
"            .           ",
"                        ",
"                        "};
