/* XPM */
static char * mark_read_xpm[] = {
"24 24 44 1",
" 	c None",
".	c #C20000",
"+	c #BE0000",
"@	c #C70000",
"#	c #CE0000",
"$	c #C90000",
"%	c #BD0000",
"&	c #CB0000",
"*	c #D10000",
"=	c #D70000",
"-	c #D30000",
";	c #CD0000",
">	c #C60000",
",	c #D40000",
"'	c #DA0000",
")	c #DE0000",
"!	c #DB0000",
"~	c #D60000",
"{	c #D00000",
"]	c #DC0000",
"^	c #E00000",
"/	c #E40000",
"(	c #E10000",
"_	c #DD0000",
":	c #D80000",
"<	c #E50000",
"[	c #E70000",
"}	c #E60000",
"|	c #E20000",
"1	c #E90000",
"2	c #E80000",
"3	c #E30000",
"4	c #DF0000",
"5	c #D90000",
"6	c #CC0000",
"7	c #C10000",
"8	c #C30000",
"9	c #BF0000",
"0	c #B90000",
"a	c #BC0000",
"b	c #BB0000",
"c	c #B80000",
"d	c #B50000",
"e	c #B70000",
"                        ",
"                        ",
"                        ",
"    .              +    ",
"   +@#            $.%   ",
"    &*=          -;>    ",
"     ,')        !~{     ",
"      ]^/      (_:      ",
"       (<[    }|)       ",
"        <[1  2<|        ",
"         }222[<         ",
"          }}}<          ",
"          333|          ",
"         _4^4)]         ",
"        ~:'  5=-        ",
"       6{-    *#$       ",
"      7>$      @89      ",
"     0a+        %bc     ",
"    ddc          edd    ",
"   ddd            ddd   ",
"    d              d    ",
"                        ",
"                        ",
"                        "};
