/* XPM */
static char * mark_immortal_xpm[] = {
"24 24 93 2",
"  	c None",
". 	c #171717",
"+ 	c #030303",
"@ 	c #000000",
"# 	c #181818",
"$ 	c #090909",
"% 	c #FFC960",
"& 	c #FFCB61",
"* 	c #FFCB62",
"= 	c #FFC961",
"- 	c #FFC75F",
"; 	c #FFC65E",
"> 	c #FFCA61",
", 	c #FFCD63",
"' 	c #FFCF65",
") 	c #FFD065",
"! 	c #FFCE64",
"~ 	c #FFC35C",
"{ 	c #FFC45D",
"] 	c #FFD166",
"^ 	c #FFD267",
"/ 	c #FFD368",
"( 	c #FFD167",
"_ 	c #FFC05A",
": 	c #010101",
"< 	c #040404",
"[ 	c #FFCC62",
"} 	c #FFD569",
"| 	c #FFD56A",
"1 	c #FFC860",
"2 	c #FFC25B",
"3 	c #FFBB56",
"4 	c #020202",
"5 	c #060606",
"6 	c #FFC15B",
"7 	c #FFC85F",
"8 	c #FFD469",
"9 	c #FFD66A",
"0 	c #FFBC57",
"a 	c #1B1B1B",
"b 	c #070707",
"c 	c #FFBA55",
"d 	c #FFB451",
"e 	c #FFB954",
"f 	c #FFB350",
"g 	c #FFB652",
"h 	c #FFBE58",
"i 	c #FFCD64",
"j 	c #FFD066",
"k 	c #FFC059",
"l 	c #FFB14E",
"m 	c #0B0B0B",
"n 	c #FFBB55",
"o 	c #FFC15A",
"p 	c #FFB552",
"q 	c #FFAD4B",
"r 	c #080808",
"s 	c #FFAF4C",
"t 	c #FFB853",
"u 	c #FFA948",
"v 	c #050505",
"w 	c #FFB04E",
"x 	c #FFB753",
"y 	c #FFBC56",
"z 	c #FFC55D",
"A 	c #FFC55E",
"B 	c #FFC45C",
"C 	c #FFBD57",
"D 	c #FFB854",
"E 	c #FFB34F",
"F 	c #FFAB4A",
"G 	c #FFA545",
"H 	c #FFAA49",
"I 	c #FFB04D",
"J 	c #FFB551",
"K 	c #FFBF58",
"L 	c #FFB24F",
"M 	c #FFAC4A",
"N 	c #FFA646",
"O 	c #FFA344",
"P 	c #FFA848",
"Q 	c #FFB14F",
"R 	c #FFAF4D",
"S 	c #FFA546",
"T 	c #FFA243",
"U 	c #FFA445",
"V 	c #FFAE4C",
"W 	c #FFA444",
"X 	c #FFA142",
"Y 	c #FF9F41",
"Z 	c #0A0A0A",
"` 	c #FF9E40",
" .	c #FF9F40",
"                                                ",
"                                                ",
"                                                ",
"                  . + @ @ + #                   ",
"              $ @ % & * * = - + +               ",
"            @ ; > , ' ) ' ! * - ~ @             ",
"          @ { > ! ] ^ / / ( ' * ; _ :           ",
"        < _ ; [ ) / } | } / ] , 1 2 3 4         ",
"        5 6 7 , ] 8 9 9 9 } ^ ! = ~ 0 a         ",
"      b c 6 - , ] 8 9 9 9 } ^ ! % ~ 0 d 5       ",
"      : e _ ; * ) / 8 } } / ] , 1 2 3 f 5       ",
"      : g h { = i j ^ / ^ ] ! * ; k e l m       ",
"      : f n o ; > , ' ) ' ! * - 2 0 p q r       ",
"      : s g 0 6 ; % > * * = - ~ h t l u r       ",
"      v u w x y k ~ z A z B o C D E F G b       ",
"        5 H I J e 0 h K h C c x L M N .         ",
"        4 O P q Q d g x g J L R H S T <         ",
"          @ T U P F q V q M H N W X +           ",
"            @ Y T O W G G W O X Y @             ",
"              4 Z ` Y Y Y  .` 4 4               ",
"                  5 : : @ @ Z                   ",
"                                                ",
"                                                ",
"                                                "};
