/* XPM */
static char * narrow_xpm[] = {
"24 24 48 1",
" 	c None",
".	c #000000",
"+	c #969696",
"@	c #9E9E9E",
"#	c #A4A4A4",
"$	c #AAAAAA",
"%	c #AEAEAE",
"&	c #B1B1B1",
"*	c #B3B3B3",
"=	c #B4B4B4",
"-	c #B2B2B2",
";	c #AFAFAF",
">	c #ABABAB",
",	c #A6A6A6",
"'	c #A0A0A0",
")	c #989898",
"!	c #909090",
"~	c #73AAD4",
"{	c #7AB2DA",
"]	c #7FB8DF",
"^	c #84BDE3",
"/	c #88C2E7",
"(	c #8BC5E9",
"_	c #8DC7EB",
":	c #8CC6EA",
"<	c #89C3E8",
"[	c #86BFE5",
"}	c #81BAE1",
"|	c #7BB3DC",
"1	c #75ACD6",
"2	c #6DA4CF",
"3	c #979797",
"4	c #A3A3A3",
"5	c #A8A8A8",
"6	c #ADADAD",
"7	c #ACACAC",
"8	c #A9A9A9",
"9	c #A5A5A5",
"0	c #9A9A9A",
"a	c #929292",
"b	c #8C8C8C",
"c	c #808080",
"d	c #818181",
"e	c #838383",
"f	c #848484",
"g	c #858585",
"h	c #868686",
"i	c #828282",
"                        ",
"                        ",
"                        ",
"   ..................   ",
"   .+@#$%&*=*-;>,')!.   ",
"   ..................   ",
"                        ",
"                        ",
"   ..................   ",
"   .~{]^/(___:<[}|12.   ",
"   ..................   ",
"                        ",
"                        ",
"   ..................   ",
"   .!3@45>666789'0ab.   ",
"   ..................   ",
"                        ",
"                        ",
"   ..................   ",
"   .cccdefghhgficccc.   ",
"   ..................   ",
"                        ",
"                        ",
"                        "};
