/* XPM */
static char * next_xpm[] = {
"24 24 42 1",
" 	c None",
".	c #000000",
"+	c #7EB6DE",
"@	c #82BBE2",
"#	c #85BEE4",
"$	c #88C1E7",
"%	c #8AC3E8",
"&	c #87C1E6",
"*	c #8AC4E9",
"=	c #8CC6EA",
"-	c #8CC6EB",
";	c #88C2E7",
">	c #8BC5E9",
",	c #8DC7EB",
"'	c #87C0E6",
")	c #8AC4E8",
"!	c #8BC5EA",
"~	c #8BC4E9",
"{	c #88C1E6",
"]	c #89C3E8",
"^	c #86BFE5",
"/	c #83BBE2",
"(	c #82BBE1",
"_	c #86C0E5",
":	c #87C0E5",
"<	c #83BCE2",
"[	c #81B9E0",
"}	c #81BAE1",
"|	c #78B0D9",
"1	c #7BB3DB",
"2	c #7DB5DD",
"3	c #7DB6DD",
"4	c #72A9D4",
"5	c #75ACD6",
"6	c #76AED7",
"7	c #77AFD8",
"8	c #6BA1CD",
"9	c #6EA4CF",
"0	c #6FA6D1",
"a	c #6298C6",
"b	c #659BC8",
"c	c #5C91C0",
"                        ",
"                        ",
"       .                ",
"       ..               ",
"       .+.              ",
"       .@#.             ",
"       .#$%.            ",
"       .&*=-.           ",
"       .;>,,,.          ",
"       .;>,,,=.         ",
"       .')!==~;.        ",
"       .#{]*%;^/.       ",
"       .(#_':#<.        ",
"       .+[@</}.         ",
"       .|1232.          ",
"       .4567.           ",
"       .890.            ",
"       .ab.             ",
"       .c.              ",
"       ..               ",
"       .                ",
"                        ",
"                        ",
"                        "};
