/* XPM */
static char * next_feed_xpm[] = {
"24 24 57 1",
" 	c None",
".	c #000000",
"+	c #6CA2CE",
"@	c #75ADD6",
"#	c #71A8D3",
"$	c #79B1DA",
"%	c #7EB7DE",
"&	c #7DB5DD",
"*	c #81BAE1",
"=	c #85BEE4",
"-	c #78B0D9",
";	c #7FB7DE",
">	c #83BCE3",
",	c #87C1E6",
"'	c #8AC4E9",
")	c #7BB3DB",
"!	c #80B8DF",
"~	c #88C2E7",
"{	c #8BC5E9",
"]	c #8DC7EB",
"^	c #7CB4DC",
"/	c #7FB8DF",
"(	c #84BDE3",
"_	c #7BB3DC",
":	c #83BCE2",
"<	c #87C0E6",
"[	c #8AC4E8",
"}	c #8BC5EA",
"|	c #8CC6EA",
"1	c #88C1E6",
"2	c #89C3E8",
"3	c #8AC3E8",
"4	c #7EB6DE",
"5	c #82BBE1",
"6	c #86C0E5",
"7	c #87C0E5",
"8	c #75ACD6",
"9	c #7AB2DA",
"0	c #81B9E0",
"a	c #82BBE2",
"b	c #71A8D2",
"c	c #70A7D1",
"d	c #74ACD6",
"e	c #699FCC",
"f	c #6EA5D0",
"g	c #72A9D4",
"h	c #669CC9",
"i	c #6298C5",
"j	c #679DCA",
"k	c #6BA1CD",
"l	c #6095C3",
"m	c #5C91C0",
"n	c #5F94C2",
"o	c #5B90C0",
"p	c #588CBC",
"q	c #578CBC",
"r	c #5589BA",
"                        ",
"                        ",
"     .          ...     ",
"     ..         .+.     ",
"     .@.        .#.     ",
"     .$%.       .@.     ",
"     .&*=.      .-.     ",
"     .;>,'.     .).     ",
"     .!=~{].    .^.     ",
"     ./(~{]].   ._.     ",
"     .%:<[}||.  .).     ",
"     .&*=12'3~. .-.     ",
"     .$45=6<7.  .@.     ",
"     .8940a:.   .b.     ",
"     .cd-)&.    .+.     ",
"     .efg8.     .h.     ",
"     .ijk.      .l.     ",
"     .mn.       .o.     ",
"     .p.        .q.     ",
"     ..         .r.     ",
"     .          ...     ",
"                        ",
"                        ",
"                        "};
