/* XPM */
static char * previous_xpm[] = {
"24 24 39 1",
" 	c None",
".	c #000000",
"+	c #7BB3DB",
"@	c #83BCE2",
"#	c #7FB8DF",
"$	c #89C2E7",
"%	c #86BFE5",
"&	c #83BBE2",
"*	c #8CC6EA",
"=	c #8BC4E9",
"-	c #88C2E7",
";	c #85BEE4",
">	c #8DC7EB",
",	c #89C3E8",
"'	c #8AC4E8",
")	c #8BC5EA",
"!	c #88C1E6",
"~	c #8AC4E9",
"{	c #8AC3E8",
"]	c #86C0E5",
"^	c #87C0E6",
"/	c #87C0E5",
"(	c #82BBE2",
"_	c #81BAE1",
":	c #7FB7DF",
"<	c #7DB6DD",
"[	c #7DB5DD",
"}	c #7CB4DC",
"|	c #79B1DA",
"1	c #76ADD7",
"2	c #77AFD8",
"3	c #73AAD4",
"4	c #70A7D1",
"5	c #6EA5D0",
"6	c #6CA2CE",
"7	c #689ECB",
"8	c #6399C7",
"9	c #6095C4",
"0	c #5C90C0",
"                        ",
"                        ",
"                .       ",
"               ..       ",
"              .+.       ",
"             .@#.       ",
"            .$%&.       ",
"           .*=-;.       ",
"          .>>*,%.       ",
"         .>>>*,%.       ",
"        .')**=-;.       ",
"       .;!,~{-%&.       ",
"        .;]^/;@#.       ",
"         .(@&_:+.       ",
"          .<[}|1.       ",
"           .2134.       ",
"            .567.       ",
"             .89.       ",
"              .0.       ",
"               ..       ",
"                .       ",
"                        ",
"                        ",
"                        "};
