/* XPM */
static char * prev_feed_xpm[] = {
"24 24 52 1",
" 	c None",
".	c #000000",
"+	c #70A7D2",
"@	c #75ADD6",
"#	c #71A8D3",
"$	c #79B1DA",
"%	c #7BB3DB",
"&	c #7DB5DD",
"*	c #83BBE2",
"=	c #7EB6DE",
"-	c #78B0D9",
";	c #7FB7DE",
">	c #88C2E7",
",	c #85BEE4",
"'	c #80B9E0",
")	c #80B8DF",
"!	c #8CC6EA",
"~	c #89C3E8",
"{	c #86BFE5",
"]	c #81BAE1",
"^	c #7CB4DC",
"/	c #7FB8DF",
"(	c #8DC7EB",
"_	c #7BB3DC",
":	c #7EB7DE",
"<	c #8BC4E9",
"[	c #8AC4E9",
"}	c #8AC3E8",
"|	c #87C0E6",
"1	c #87C0E5",
"2	c #83BCE2",
"3	c #75ACD6",
"4	c #7FB7DF",
"5	c #77AED8",
"6	c #71A8D2",
"7	c #70A7D1",
"8	c #76ADD7",
"9	c #6CA2CE",
"0	c #699FCC",
"a	c #73AAD4",
"b	c #6BA1CD",
"c	c #669CC9",
"d	c #6298C5",
"e	c #689ECB",
"f	c #6499C7",
"g	c #6095C3",
"h	c #5C91C0",
"i	c #5E93C2",
"j	c #5B90C0",
"k	c #588CBC",
"l	c #578CBC",
"m	c #5589BA",
"                        ",
"                        ",
"     ...          .     ",
"     .+.         ..     ",
"     .@.        .#.     ",
"     .$.       .%@.     ",
"     .&.      .*=-.     ",
"     .;.     .>,'%.     ",
"     .).    .!~{]^.     ",
"     ./.   .(!~{]_.     ",
"     .:.  .!!<>,'%.     ",
"     .&. .~[}>{*=-.     ",
"     .$.  .|1,2/%@.     ",
"     .3.   .*]4%56.     ",
"     .7.    .^$8#9.     ",
"     .0.     .a7bc.     ",
"     .d.      .efg.     ",
"     .h.       .ij.     ",
"     .k.        .l.     ",
"     .m.         ..     ",
"     ...          .     ",
"                        ",
"                        ",
"                        "};
