/* XPM */
static char * all_xpm[] = {
"24 24 4 1",
" 	c None",
".	c #000000",
"+	c #E5E5E5",
"@	c #FFFFFF",
"                        ",
"                        ",
"  ....................  ",
"  ....................  ",
"  ....................  ",
"  ++++++@@@@@@@@++++++  ",
"  ++++++@@....@@++++++  ",
"  ++++++@......@++++++  ",
"  ......@..@@..@......  ",
"  ......@..@@..@......  ",
"  ......@..@@..@......  ",
"  ++++++@......@++++++  ",
"  ++++++@......@++++++  ",
"  ++++++@..@@..@++++++  ",
"  ......@..@@..@......  ",
"  ......@..@@..@......  ",
"  ......@..@@..@......  ",
"  ++++++@..@@..@++++++  ",
"  ++++++...@@...++++++  ",
"  ++++++++++++++++++++  ",
"  ....................  ",
"  ....................  ",
"                        ",
"                        "};
