/* XPM */
static char * go_xpm[] = {
"24 24 3 1",
" 	c None",
".	c #000080800000",
"X	c #FFFFFFFFFFFF",
"                        ",
"                        ",
"       ..........       ",
"      ............      ",
"     ..............     ",
"    ................    ",
"   ..................   ",
"  ......XX...XX.......  ",
"  .....X..X.X..X......  ",
"  .....X....X..X......  ",
"  .....X....X..X......  ",
"  .....X....X..X......  ",
"  .....X.XX.X..X......  ",
"  .....X..X.X..X......  ",
"  .....X..X.X..X......  ",
"  .....X..X.X..X......  ",
"  ......XX...XX.......  ",
"   ..................   ",
"    ................    ",
"     ..............     ",
"      ............      ",
"       ..........       ",
"                        ",
"                        "};
