/* XPM */
static char * gud_nexti_xpm[] = {
"24 24 6 1",
" 	c None",
".	c #CCCC00003333",
"X	c #616161616161",
"o	c #D4D400000000",
"O	c #CCCC99999999",
"+	c #2A2A1F1F5555",
"                        ",
"                        ",
"                        ",
"                        ",
"      ..........        ",
"     .          .       ",
"    .            .      ",
"    .            .      ",
"    .            .      ",
"    .   X  X   oO.Oo    ",
"       X+  +X  O...O    ",
"      X+    +X  ...     ",
"     X+      +X O.O     ",
"    X+        +X .      ",
"    +X        X+        ",
"     +X      X+         ",
"      +X    X+          ",
"       +X  X+           ",
"        +  +            ",
"                        ",
"                        ",
"                        ",
"                        ",
"                        "};
