/* XPM */
static char * reverse_continue_xpm[] = {
"24 24 6 1",
" 	c None",
".	c #D99FAA",
"+	c #CC0033",
"@	c #616161",
"#	c #2A1F55",
"$	c #AA9FAA",
"                        ",
"                        ",
"                        ",
"                        ",
"                 .+     ",
"               .++.     ",
"      @#  #@  +++++++   ",
"     @#$  $#@  .++.     ",
"     ##    ##    .+     ",
"     ##    ##           ",
"     ##    ##           ",
"     #@    @#           ",
"    ##      ##          ",
"     #@    @#           ",
"     ##    ##           ",
"     ##    ##           ",
"     ##    ##           ",
"     @#$  $#@           ",
"      @#  #@            ",
"                        ",
"                        ",
"                        ",
"                        ",
"                        "};
