/* XPM */
static char * clear_xpm[] = {
"24 24 3 1",
" 	c None",
".	c #cc0033",
"X	c #F0F0F0",
"                        ",
"                        ",
"                        ",
"                        ",
"          ....          ",
"        ........        ",
"       ..........       ",
"      .XX......XX.      ",
"     ...XX....XX...     ",
"     ....XX..XX....     ",
"    ......XXXX......    ",
"    .......XX.......    ",
"    ......XXXX......    ",
"    .....XX..XX.....    ",
"     ...XX....XX...     ",
"     ..XX......XX..     ",
"      .X........X.      ",
"       ..........       ",
"        ........        ",
"          ....          ",
"                        ",
"                        ",
"                        ",
"                        "};
