/* XPM */
static char * reverse_step_xpm[] = {
"24 24 6 1",
" 	c None",
".	c #D40000",
"+	c #616161",
"@	c #2A1F55",
"#	c #ADADAD",
"$	c #CC9999",
"                        ",
"                        ",
"                        ",
"                        ",
"             .....      ",
"            .     .     ",
"           .       .    ",
"      +@   .   @+  .    ",
"     +@#   .   #@+ .    ",
"     @@  .$.$.  @@ .    ",
"     @@  $...$  @@      ",
"     @@   ...   @@      ",
"     @+   $.$   +@      ",
"    @@     .     @@     ",
"     @+         +@      ",
"     @@         @@      ",
"     @@         @@      ",
"     @@         @@      ",
"     +@#       #@+      ",
"      +@       @+       ",
"                        ",
"                        ",
"                        ",
"                        "};
