/* XPM */
static char * reverse_nexti_xpm[] = {
"24 24 6 1",
" 	c None",
".	c #CC0033",
"+	c #D40000",
"@	c #CC9999",
"#	c #616161",
"$	c #2A1F55",
"                        ",
"                        ",
"                        ",
"                        ",
"        ..........      ",
"       .          .     ",
"      .            .    ",
"      .            .    ",
"      .            .    ",
"    +@.@+   #  #   .    ",
"    @...@  #$  $#       ",
"     ...  #$    $#      ",
"     @.@ #$      $#     ",
"      . #$        $#    ",
"        $#        #$    ",
"         $#      #$     ",
"          $#    #$      ",
"           $#  #$       ",
"            $  $        ",
"                        ",
"                        ",
"                        ",
"                        ",
"                        "};
