/* XPM */
static char * reverse_next_xpm[] = {
"24 24 7 1",
" 	c None",
".	c #CC0033",
"+	c #616161",
"@	c #2A1F55",
"#	c #ADADAD",
"$	c #D40000",
"%	c #CC9999",
"                        ",
"                        ",
"                        ",
"                        ",
"        ..........      ",
"       .          .     ",
"      .            .    ",
"      .    +@  @+  .    ",
"      .   +@#  #@+ .    ",
"    $%.%$ @@    @@ .    ",
"    %...% @@    @@      ",
"     ...  @@    @@      ",
"     %.%  @+    +@      ",
"      .  @@      @@     ",
"          @+    +@      ",
"          @@    @@      ",
"          @@    @@      ",
"          @@    @@      ",
"          +@#  #@+      ",
"           +@  @+       ",
"                        ",
"                        ",
"                        ",
"                        "};
