/* XPM */
static char * reverse_stepi_xpm[] = {
"24 24 5 1",
" 	c None",
".	c #D40000",
"+	c #616161",
"@	c #2A1F55",
"#	c #CC9999",
"                        ",
"                        ",
"                        ",
"                        ",
"             .....      ",
"            .     .     ",
"           .       .    ",
"           .       .    ",
"       +   .   +   .    ",
"      +@ .#.#. @+  .    ",
"     +@  #...#  @+      ",
"    +@    ...    @+     ",
"   +@     #.#     @+    ",
"   @+      .      +@    ",
"    @+           +@     ",
"     @+         +@      ",
"      @+       +@       ",
"       @       @        ",
"                        ",
"                        ",
"                        ",
"                        ",
"                        ",
"                        "};
