/* XPM */
static char * gud_stepi_xpm[] = {
"24 24 5 1",
" 	c None",
".	c #D4D400000000",
"X	c #616161616161",
"o	c #2A2A1F1F5555",
"O	c #CCCC99999999",
"                        ",
"                        ",
"                        ",
"                        ",
"      .....             ",
"     .     .            ",
"    .       .           ",
"    .       .           ",
"    .   X   .   X       ",
"    .  Xo .O.O. oX      ",
"      Xo  O...O  oX     ",
"     Xo    ...    oX    ",
"    Xo     O.O     oX   ",
"    oX      .      Xo   ",
"     oX           Xo    ",
"      oX         Xo     ",
"       oX       Xo      ",
"        o       o       ",
"                        ",
"                        ",
"                        ",
"                        ",
"                        ",
"                        "};
