/* XPM */
static char * until_xpm[] = {
"24 24 6 1",
" 	c None",
".	c #cc0033",
"X	c #616161",
"o	c #2a1f55",
"O	c #adadad",
"+	c #cc9999",
"                        ",
"                        ",
"                        ",
"                        ",
"                        ",
" .                      ",
" .                      ",
" .          Xo   oX     ",
" .         XoO   OoX    ",
" .         oo     oo    ",
" .         oo     oo    ",
" .  .+     oo     oo    ",
"  . +..+   oX     Xo    ",
"   ...... oo       oo   ",
"    +..+   oX     Xo    ",
"    .+     oo     oo    ",
"           oo     oo    ",
"           oo     oo    ",
"           XoO   OoX    ",
"            Xo   oX     ",
"                        ",
"                        ",
"                        ",
"                        "};
