/* XPM */
static char * up_xpm[] = {
"24 24 14 1",
" 	c None",
".	c #000000000000",
"X	c #7F7F7F7F7F7F",
"o	c #2D2D2D2D2D2D",
"O	c #616161616161",
"+	c #FFFFCCCC6666",
"@	c #929255550000",
"#	c #696969696969",
"$	c #6D6DAAAAFFFF",
"%	c #49495555AAAA",
"&	c #333333339999",
"*	c #434343434343",
"=	c #6666FFFF6666",
"-	c #4949AAAA5555",
"                        ",
"                        ",
"                        ",
"                        ",
"                 .      ",
"                X.X     ",
"                ...     ",
"               X...X    ",
"               . . .    ",
"                 .      ",
"     oooooooooo. .      ",
"     O+++++++++O .      ",
"     .@@@@@@@@@.        ",
"    ...............     ",
"    #$%$$$$$$$$$%$#     ",
"    o%&%%%%%%%%%&%o     ",
"    ...............     ",
"     *===========*      ",
"     o-----------.      ",
"     o............      ",
"                        ",
"                        ",
"                        ",
"                        "};
