/* XPM */
static char * watch_xpm[] = {
"24 24 11 1",
" 	c None",
".	c #808080808080",
"X	c #000000000000",
"o	c #A5A59F9FA3A3",
"O	c #B5B5B9B9B5B5",
"+	c #070707070707",
"@	c #616161616161",
"#	c #2D2D30302D2D",
"$	c #020202020202",
"%	c #9A9A99999A9A",
"&	c #2F2F1A1A0202",
"                        ",
"                        ",
"                        ",
"                        ",
"                        ",
"          .XX           ",
"         oX. X Xo       ",
"        O+@   X@#       ",
"        #    X O$o      ",
"       ##       @#      ",
"      @+O       O$o     ",
"     %XX&%   %&X&##     ",
"    %#O O#%X%#O O#X     ",
"    &O   O& &O   O&     ",
"    X     X X     X     ",
"    &O   O& &O   O&     ",
"    %#O O#% %#O O#%     ",
"     %&X&%   %&X&%      ",
"                        ",
"                        ",
"                        ",
"                        ",
"                        ",
"                        "};
