/* XPM */
static char * blink_xpm[] = {
"14 14 7 1",
" 	c None",
".	c #484848",
"+	c #000000",
"@	c #6E6E6E",
"#	c #515151",
"$	c #ABABAB",
"%	c #737373",
"              ",
"              ",
"         .    ",
"         +    ",
"  @#$$#  +    ",
"    ++   +    ",
"              ",
"  +        +  ",
"  $+      +$  ",
"   %+    +%   ",
"    %++++%    ",
"     $$$$     ",
"              ",
"              "};
