/* XPM */
static char * braindamaged_xpm[] = {
"14 14 6 1",
" 	c None",
".	c #ABABAB",
"+	c #000000",
"@	c #515151",
"#	c #171717",
"$	c #737373",
"              ",
"              ",
"   .++..++.   ",
"   +@.++.@+   ",
"   +.@#@@.+   ",
"   +@.#@.@+   ",
"   .++. ++.   ",
"  +        +  ",
"  .+      +.  ",
"   $+    +$   ",
"    $++++$    ",
"     ....     ",
"              ",
"              "};
