/* XPM */
static char * dead_xpm[] = {
"14 14 4 1",
" 	c None",
".	c #737373",
"+	c #ABABAB",
"@	c #000000",
"              ",
"              ",
"  .+ +. + +.  ",
"  +@+@++@+@+  ",
"   +@    @+   ",
"  +@+@  @+@+  ",
"   + +. + +   ",
"              ",
"  +@      @+  ",
"   .@    @.   ",
"    .@@@@.    ",
"     ++++     ",
"              ",
"              "};
