/* XPM */
static char * evil_xpm[] = {
"14 14 6 1",
" 	c None",
".	c #6E6E6E",
"+	c #484848",
"@	c #ABABAB",
"#	c #000000",
"$	c #737373",
"              ",
"              ",
"   .+    +.   ",
"   @#    #@   ",
"    #+ @+#    ",
"    #+ @+#    ",
"              ",
"  #        #  ",
"  @#      #@  ",
"   $#    #$   ",
"    $####$    ",
"     @@@@     ",
"              ",
"              "};
