/* XPM */
static char * forced_xpm[] = {
"14 14 6 1",
" 	c None",
".	c #484848",
"+	c #000000",
"@	c #6E6E6E",
"#	c #ABABAB",
"$	c #171717",
"              ",
"              ",
"    .    .    ",
"    +    +    ",
"    +    +    ",
"    +    +    ",
"              ",
"  @        @  ",
"  +#      #+  ",
"  @@#    #@@  ",
"  #$++++++$#  ",
"   ########   ",
"              ",
"              "};
