/* XPM */
static char * frown_xpm[] = {
"14 14 5 1",
" 	c None",
".	c #6E6E6E",
"+	c #484848",
"@	c #ABABAB",
"#	c #000000",
"              ",
"              ",
"   .+    +.   ",
"   @#    #@   ",
"    #+ @+#    ",
"    #+@@+#    ",
"              ",
"      @@      ",
"    .####.    ",
"   +#@  @#+   ",
"  @#@    @#@  ",
"   +      +   ",
"              ",
"              "};
