/* XPM */
static char * grin_xpm[] = {
"14 14 8 1",
" 	c None",
".	c #484848",
"+	c #000000",
"@	c #515151",
"#	c #6E6E6E",
"$	c #ABABAB",
"%	c #FFFFFF",
"&	c #737373",
"              ",
"              ",
"    .    .    ",
"    +    +    ",
"    +    +    ",
"    +    +    ",
"              ",
"  ++@@##@@++  ",
"  $+%%%%%%+$  ",
"   &+%%%%+&   ",
"    &++++&    ",
"     $$$$     ",
"              ",
"              "};
