/* XPM */
static char * indifferent_xpm[] = {
"14 14 6 1",
" 	c None",
".	c #484848",
"+	c #000000",
"@	c #515151",
"#	c #ABABAB",
"$	c #6E6E6E",
"              ",
"              ",
"    .    .    ",
"    +    +    ",
"    +    +    ",
"    +    +    ",
"              ",
" @         #@ ",
"#+$+$   $  +  ",
"$ +#+$#++$+$  ",
"  $  ++# ++   ",
"      +       ",
"              ",
"              "};
