/* XPM */
static char * reverse_smile_xpm[] = {
"14 14 5 1",
" 	c None",
".	c #ABABAB",
"+	c #737373",
"@	c #000000",
"#	c #484848",
"              ",
"              ",
"     ....     ",
"    +@@@@+    ",
"   +@    @+   ",
"  .@      @.  ",
"  @        @  ",
"              ",
"    @    @    ",
"    @    @    ",
"    @    @    ",
"    #    #    ",
"              ",
"              "};
