/* XPM */
static char * sad_xpm[] = {
"14 14 5 1",
" 	c None",
".	c #484848",
"+	c #000000",
"@	c #ABABAB",
"#	c #6E6E6E",
"              ",
"              ",
"    .    .    ",
"    +    +    ",
"    +    +    ",
"    +    +    ",
"              ",
"     @@@@     ",
"    #++++#    ",
"   .+@  @+.   ",
"  @+@    @+@  ",
"   .      .   ",
"              ",
"              "};
