/* XPM */
static char * smile_xpm[] = {
"14 14 5 1",
" 	c None",
".	c #484848",
"+	c #000000",
"@	c #ABABAB",
"#	c #737373",
"              ",
"              ",
"    .    .    ",
"    +    +    ",
"    +    +    ",
"    +    +    ",
"              ",
"  +        +  ",
"  @+      +@  ",
"   #+    +#   ",
"    #++++#    ",
"     @@@@     ",
"              ",
"              "};
