/* XPM */
static char *magick[] = {
/* columns rows colors chars-per-pixel */
"24 24 5 1",
"  c #01c601c601c6",
". c Gray40",
"X c #a527a527a527",
"o c #da22da22da22",
"O c None",
/* pixels */
"OOOOOOOOOOOOOOOOOOOOOOOO",
"OOOOOOOOOOOOOOOOOOOOOOOO",
"OOOOOOOOOOOOOOOOOOOOOOOO",
"OOOOOOOOOOOOOOOOOOOOOOOO",
"OOOOOOOO       OOOOOOOOO",
"OOOOOO  XXooXX.  OOOOOOO",
"OOOOO XooooooooX. OOOOOO",
"OOOOO oooooooooo. OOOOOO",
"OOOO Xooo ooo XoX. OOOOO",
"OOOO Xoo   o   XXX OOOOO",
"OOOO oooo     XoXX OOOOO",
"OOOO Xoooo   ooXXX OOOOO",
"OOOO Xooo     OXX. OOOOO",
"OOOO Xoo   o   XX. OOOOO",
"OOOO .Xoo ooX XX.. OOOOO",
"OOOOO XXOoXoXXX.. OOOOOO",
"OOOOO XXXXXXXXX.. OOOOOO",
"OOOOOO  XXXX...  OOOOOOO",
"OOOOOOOO       OOOOOOOOO",
"OOOOOOOOOOOOOOOOOOOOOOOO",
"OOOOOOOOOOOOOOOOOOOOOOOO",
"OOOOOOOOOOOOOOOOOOOOOOOO",
"OOOOOOOOOOOOOOOOOOOOOOOO",
"OOOOOOOOOOOOOOOOOOOOOOOO"
};
