/* XPM */
static char * stock_contact_xpm[] = {
"24 24 102 2",
"  	c None",
". 	c #000000",
"+ 	c #E3E1DE",
"@ 	c #ECEBE7",
"# 	c #F0EEEB",
"$ 	c #D2CFC9",
"% 	c #81817F",
"& 	c #4C4C4A",
"* 	c #ECEAE6",
"= 	c #ECEAE5",
"- 	c #EBE9E5",
"; 	c #D2CEC8",
"> 	c #D9C7B8",
", 	c #D9C7B9",
"' 	c #D8C5B8",
") 	c #D1C0B3",
"! 	c #D6C5B7",
"~ 	c #EBEAE5",
"{ 	c #D3D0C9",
"] 	c #CDBCAC",
"^ 	c #AFA093",
"/ 	c #3A3531",
"( 	c #443F3A",
"_ 	c #AE9F93",
": 	c #CBBAAB",
"< 	c #4E4E4C",
"[ 	c #595957",
"} 	c #595857",
"| 	c #7D7C7A",
"1 	c #D3D0CA",
"2 	c #C6B5A4",
"3 	c #3D3833",
"4 	c #433D37",
"5 	c #C2B0A2",
"6 	c #D4D1CA",
"7 	c #B0A08E",
"8 	c #261F18",
"9 	c #D37D1E",
"0 	c #D68021",
"a 	c #B26616",
"b 	c #27241F",
"c 	c #9C8E7F",
"d 	c #EAE9E5",
"e 	c #A29281",
"f 	c #2E2012",
"g 	c #CC751A",
"h 	c #CC761A",
"i 	c #BF6C16",
"j 	c #24211C",
"k 	c #8E8170",
"l 	c #EAE8E3",
"m 	c #E9E8E3",
"n 	c #E9E7E3",
"o 	c #8E7F6C",
"p 	c #221E17",
"q 	c #C56D14",
"r 	c #7D450D",
"s 	c #AF5F11",
"t 	c #221E19",
"u 	c #7F7260",
"v 	c #E9E7E2",
"w 	c #E8E6E1",
"x 	c #E7E5E1",
"y 	c #E7E5E0",
"z 	c #D5D1CB",
"A 	c #3E372C",
"B 	c #1C1F1F",
"C 	c #301B06",
"D 	c #542D07",
"E 	c #291B0E",
"F 	c #151412",
"G 	c #473F33",
"H 	c #E8E6E2",
"I 	c #546371",
"J 	c #849CB4",
"K 	c #56687C",
"L 	c #343332",
"M 	c #495868",
"N 	c #566D85",
"O 	c #293643",
"P 	c #E6E4DF",
"Q 	c #E5E4DE",
"R 	c #EEEDE9",
"S 	c #7B95AF",
"T 	c #7B96B0",
"U 	c #68819B",
"V 	c #8999AA",
"W 	c #5A7088",
"X 	c #607A96",
"Y 	c #5B7691",
"Z 	c #E5E3DE",
"` 	c #4B4A48",
" .	c #757471",
"..	c #E6E3DE",
"+.	c #3B3A39",
"@.	c #747371",
"#.	c #D3CFC8",
"$.	c #E2E1DD",
"%.	c #E7E4E0",
"&.	c #D2CFC8",
"*.	c #D1D0CA",
"=.	c #C2C0B9",
"                                                ",
"                                                ",
"                                                ",
"    . . . . . . . . . . . . . . . . . . . .     ",
"  . + @ # # # # # # # # # # # # # # # # # $ .   ",
"  . # % . . . . . . . & * = - - - - - - - ; .   ",
"  . # . > , ' ) ! > , . * * ~ ~ ~ ~ - - ~ { .   ",
"  . # . ] ^ / . ( _ : . * < [ ~ } } | - ~ 1 .   ",
"  . # . 2 3 . . . 4 5 . * * ~ ~ - - - - - 6 .   ",
"  . # . 7 8 9 0 a b c . * [ < | [ - } | d 6 .   ",
"  . # . e f g h i j k . * * l l m n n n n 6 .   ",
"  . # . o p q r s t u . v v w w w x y y y z .   ",
"  . # . A B C D E F G . H H y y y y y y y 6 .   ",
"  . # . I J K L M N O . y y P P P P P P Q { .   ",
"  . R . S T U V W X Y . y y P P P P Z Z Z { .   ",
"  . d ` . . . . . . . ` y y  ...+.+.Z @.Z #..   ",
"  . $.y y y y y y y y y %.P Z Z Z Z Z Z Z &..   ",
"  . *.6 z 6 6 6 6 6 6 6 6 6 6 6 6 6 6 6 6 =..   ",
"    . . . . . . . . . . . . . . . . . . . . .   ",
"                                                ",
"                                                ",
"                                                ",
"                                                ",
"                                                "};
