/* XPM */
static char * copy_xpm[] = {
"24 24 26 1",
" 	c None",
".	c #000000",
"+	c #B4B4B4",
"@	c #F8F8F8",
"#	c #F6F6F6",
"$	c #C3C3C3",
"%	c #E9E9E9",
"&	c #989898",
"*	c #828282",
"=	c #8A8A8A",
"-	c #E8E8E8",
";	c #636363",
">	c #5A5A5A",
",	c #6B6B6B",
"'	c #B3B3B3",
")	c #FFFFFF",
"!	c #D6D6D6",
"~	c #818181",
"{	c #A7A7A7",
"]	c #8F8F8F",
"^	c #C6C6C6",
"/	c #808080",
"(	c #E7E7E7",
"_	c #6D6D6D",
":	c #767676",
"<	c #F5F5F5",
"                        ",
"                        ",
"                        ",
".............           ",
".+@@@@@@@@@#$.          ",
".@%%%%%%%%%%%.          ",
".@&**=%+*%*+%.          ",
".@%%%%%%%%---.          ",
".@;>%,*+-............   ",
".@%%%%%%.'))))))))))!.  ",
".@&**%*~.)))))))))))).  ",
".@%%%%%-.){]]&)^])]^).  ",
".@;>>%,/.)))))))))))).  ",
".@%%%%%(.)_;):]^)^])).  ",
".@&**%*~.)))))))))))).  ",
".<%%%%%-.){]])]]^)&]).  ",
".$%%%%%-.)))))))))))).  ",
" ........)_;;):]^)^]).  ",
"        .)))))))))))).  ",
"        .){]])]]^)&]).  ",
"        .)))))))))))).  ",
"        .!))))))))))!.  ",
"        ..............  ",
"                        "};
