/* XPM */
static char * stock_delete_xpm[] = {
"24 24 243 2",
"  	c None",
". 	c #000000",
"+ 	c #1C1C1C",
"@ 	c #767676",
"# 	c #E6E6E6",
"$ 	c #D3D3D3",
"% 	c #C3C3C3",
"& 	c #909090",
"* 	c #494949",
"= 	c #48473D",
"- 	c #BAB8A6",
"; 	c #E2E2DF",
"> 	c #F1F1F0",
", 	c #EAE9E6",
"' 	c #F2F2EE",
") 	c #EBEAE5",
"! 	c #C1C0B5",
"~ 	c #57564A",
"{ 	c #525146",
"] 	c #A8A68F",
"^ 	c #BDBBA1",
"/ 	c #C0BEA3",
"( 	c #A3A18A",
"_ 	c #6D6C5C",
": 	c #7C7C72",
"< 	c #4C4C49",
"[ 	c #45453F",
"} 	c #44433A",
"| 	c #6F6F67",
"1 	c #C6C5B9",
"2 	c #B6B59B",
"3 	c #6D6C5D",
"4 	c #B3B19B",
"5 	c #A7A68E",
"6 	c #908F7A",
"7 	c #AAA993",
"8 	c #CCCBB5",
"9 	c #D0CEBA",
"0 	c #D5D3C1",
"a 	c #AEADA3",
"b 	c #94938A",
"c 	c #454442",
"d 	c #232321",
"e 	c #353431",
"f 	c #292823",
"g 	c #1E1E1A",
"h 	c #535246",
"i 	c #ADAC93",
"j 	c #929189",
"k 	c #C2C1AF",
"l 	c #B1AF96",
"m 	c #ACAA92",
"n 	c #93927D",
"o 	c #080808",
"p 	c #D1D0C1",
"q 	c #D6D5C4",
"r 	c #DFDED1",
"s 	c #CECDC0",
"t 	c #ACACA6",
"u 	c #908F8A",
"v 	c #7E7D77",
"w 	c #5C5C55",
"x 	c #47463E",
"y 	c #656456",
"z 	c #777665",
"A 	c #807E6F",
"B 	c #BEBDA7",
"C 	c #B5B39A",
"D 	c #A19F88",
"E 	c #D9D8CC",
"F 	c #F6F5F2",
"G 	c #DBDAD1",
"H 	c #DAD9CE",
"I 	c #E5E4D9",
"J 	c #D0CFC3",
"K 	c #D3D3C9",
"L 	c #CAC9BC",
"M 	c #B7B6A6",
"N 	c #B8B6A1",
"O 	c #B0AF96",
"P 	c #B9B89D",
"Q 	c #B9B79D",
"R 	c #B8B69C",
"S 	c #C4C2A9",
"T 	c #AFAD97",
"U 	c #8B8976",
"V 	c #AAA998",
"W 	c #B6B6B2",
"X 	c #F9F9F7",
"Y 	c #FAFAF8",
"Z 	c #F4F4F0",
"` 	c #E2E1DA",
" .	c #D9D9CE",
"..	c #DBDACF",
"+.	c #D3D1BE",
"@.	c #C5C4AC",
"#.	c #D6D5C3",
"$.	c #CDCCBF",
"%.	c #BBBAAD",
"&.	c #7C7A69",
"*.	c #717060",
"=.	c #131313",
"-.	c #999882",
";.	c #AFAE9D",
">.	c #C3C3BE",
",.	c #DEDEDC",
"'.	c #E9E9E8",
").	c #FBFBFA",
"!.	c #FDFDFC",
"~.	c #FDFDFD",
"{.	c #FCFBFA",
"].	c #F2F2EF",
"^.	c #EAE9E3",
"/.	c #C0BFB1",
"(.	c #959484",
"_.	c #787766",
":.	c #6E6D5D",
"<.	c #5B5B4D",
"[.	c #5D5C4F",
"}.	c #A3A293",
"|.	c #B8B7A6",
"1.	c #D8D7D0",
"2.	c #DBDBD4",
"3.	c #D3D2CA",
"4.	c #C8C8C3",
"5.	c #C6C5BD",
"6.	c #BDBCAD",
"7.	c #BAB8A8",
"8.	c #9F9E8B",
"9.	c #8E8C78",
"0.	c #8C8B77",
"a.	c #7A7968",
"b.	c #6C6B5D",
"c.	c #4E4D45",
"d.	c #424242",
"e.	c #7B7B73",
"f.	c #9F9F96",
"g.	c #D2D1C7",
"h.	c #DCDBD2",
"i.	c #CCCBBE",
"j.	c #D1D0C2",
"k.	c #C4C3B6",
"l.	c #9A9883",
"m.	c #807F6D",
"n.	c #7D7C6B",
"o.	c #6A695E",
"p.	c #40403E",
"q.	c #37372D",
"r.	c #0F0F0F",
"s.	c #383734",
"t.	c #787875",
"u.	c #999893",
"v.	c #8A897E",
"w.	c #B3B2A4",
"x.	c #AAAA9E",
"y.	c #878673",
"z.	c #8F8D79",
"A.	c #626155",
"B.	c #545451",
"C.	c #31312E",
"D.	c #2B2B23",
"E.	c #71715D",
"F.	c #57574B",
"G.	c #42423A",
"H.	c #262620",
"I.	c #212121",
"J.	c #1B1B1B",
"K.	c #242424",
"L.	c #161613",
"M.	c #2A2A22",
"N.	c #303027",
"O.	c #3F3F34",
"P.	c #7A7A65",
"Q.	c #5B5B51",
"R.	c #858576",
"S.	c #76766B",
"T.	c #98988E",
"U.	c #75756B",
"V.	c #515146",
"W.	c #7F7F74",
"X.	c #6A6A58",
"Y.	c #404035",
"Z.	c #626251",
"`.	c #545445",
" +	c #3E3E33",
".+	c #555546",
"++	c #34342B",
"@+	c #515143",
"#+	c #85856E",
"$+	c #5D5D54",
"%+	c #919182",
"&+	c #828278",
"*+	c #AAAAA3",
"=+	c #7A7A71",
"-+	c #4E4E45",
";+	c #8A8A80",
">+	c #7C7C6D",
",+	c #424237",
"'+	c #606052",
")+	c #5A5A4A",
"!+	c #3C3C32",
"~+	c #4E4E41",
"{+	c #35352C",
"]+	c #ACAC9C",
"^+	c #85857B",
"/+	c #BBBBB3",
"(+	c #A3A39A",
"_+	c #54544B",
":+	c #93938A",
"<+	c #919185",
"[+	c #686856",
"}+	c #414136",
"|+	c #434337",
"1+	c #A4A493",
"2+	c #C1C1B6",
"3+	c #B1B1A2",
"4+	c #6B6B5F",
"5+	c #9D9D8B",
"6+	c #848470",
"7+	c #71715E",
"8+	c #A5A594",
"9+	c #C2C2B7",
"0+	c #7B7B65",
"a+	c #5F5F4F",
"b+	c #666654",
"c+	c #49493C",
"d+	c #575748",
"e+	c #57574A",
"f+	c #7D7D6D",
"g+	c #767669",
"h+	c #B3B3A8",
"i+	c #A1A194",
"j+	c #6D6D61",
"k+	c #B3B3A5",
"l+	c #696957",
"m+	c #414135",
"n+	c #565647",
"o+	c #444438",
"p+	c #595951",
"q+	c #585849",
"r+	c #4E4E40",
"s+	c #747467",
"t+	c #616153",
"                  . . . . . .                   ",
"              . + @ # $ % & * . .               ",
"        . . . = - ; > , ' ) ! ~ { . . .         ",
"      . ] ^ / ( _ : < [ } | 1 2 3 4 5 6 .       ",
"    . 7 8 9 0 a b c d e f g h i j k l m n .     ",
"    o p 8 q r s t u v w x y z A B C 2 C D .     ",
"    . E F G H I J K L M N O D P Q R S T U .     ",
"    . V W X Y Z `  ...0 +.S / @.#.$.%.&.*..     ",
"    =.-.;.>.,.'.).!.~.{.X ].^.G /.(._.:.<..     ",
"    . [.n }.|.1.2.3.4.5.6.7.8.9.0.9.a.b.c.      ",
"      . d.e.f.g.h.i.j.k.l l l l.m.n.o.p..       ",
"      . q.r.s.t.u.v.w.x.( y.z.A.B.C.. D..       ",
"      . E.F.G.H.I.J.. K.. . . . L.M.N.O..       ",
"      . P.Q.R.S.T.U.V.W.X.Y.Z.`. +.+++@+.       ",
"      . #+$+%+&+*+=+-+;+>+,+'+)+!+~+{+`..       ",
"      . #+Q.]+^+/+(+_+:+<+,+'+[+}+X.|+X..       ",
"      . #+Q.1+^+2+3+4+3+5+`.6+7+|+X.|+X..       ",
"      . #+Q.8+^+9+3+4+3+5+`.6+7+|+X.|+X..       ",
"      . #+Q.5+^+2+3+4+3+5+`.6+7+|+X.|+X..       ",
"      . 0+Q.1+^+2+3+4+3+5+`.6+7+|+X.|+a+.       ",
"      . b+Q.1+&+2+3+4+3+5+`.6+7+|+X.c+d+.       ",
"        . e+f+g+h+i+j+k+5+`.6+l+m+n+o+. .       ",
"          . . . p+q+r+s+t+~+c+c+. . .           ",
"              . . . . . . . . . .               "};
