/* XPM */
static char * diropen_xpm[] = {
"19 24 17 1",
" 	c None",
".	c #000100",
"+	c #C6C9A6",
"@	c #D0D3AF",
"#	c #93997C",
"$	c #E6E7D0",
"%	c #BEC19E",
"&	c #B4B895",
"*	c #A7AA88",
"=	c #6B6D59",
"-	c #4A4E40",
";	c #7C8166",
">	c #898E72",
",	c #3C4032",
"'	c #575845",
")	c #34332C",
"!	c #24231D",
"  ...............  ",
" .+@@@@@@@@@@@@@#. ",
".$@@@@@@@@@@@@@@@#.",
".++++%%%%%%%%%&&&*.",
".&&&&&&&&&&******#.",
".*%+++%%%%%%%%%&=#.",
".*+***********##-#.",
".*+****;===;####-#.",
".*+****=*****###-#.",
".*+****;*****###-#.",
".*+****########>-#.",
".*&######>>>>>>>,>.",
".*#-------------'>)",
".*&&&&&&&&&&&&&*#>)",
".*&************#'>)",
".*&***********##,>)",
".*&****====;###>,>)",
".#&****=**#**##>,;)",
".#&****>****###>,;)",
".#&****########>,;)",
".##''''''''''''',;)",
".#>==============;)",
".''''''''''''''''-!",
" ................. "};
