/* XPM */
static char * home_xpm[] = {
"24 24 101 2",
"  	c None",
". 	c #000000",
"+ 	c #212121",
"@ 	c #2C2C2C",
"# 	c #C1665A",
"$ 	c #924B37",
"% 	c #2A2A2A",
"& 	c #333333",
"* 	c #343434",
"= 	c #242424",
"- 	c #944D3A",
"; 	c #A05443",
"> 	c #181818",
", 	c #474747",
"' 	c #555555",
") 	c #8D8D8D",
"! 	c #383838",
"~ 	c #191919",
"{ 	c #974F3C",
"] 	c #222222",
"^ 	c #313131",
"/ 	c #A1A1A1",
"( 	c #676767",
"_ 	c #ACACAC",
": 	c #BCBCBC",
"< 	c #585858",
"[ 	c #141414",
"} 	c #1C1C1C",
"| 	c #464646",
"1 	c #666666",
"2 	c #BABABA",
"3 	c #7E7E7E",
"4 	c #D2D2D2",
"5 	c #FFFFFF",
"6 	c #4F4F4F",
"7 	c #262626",
"8 	c #232323",
"9 	c #505050",
"0 	c #B2B2B2",
"a 	c #909090",
"b 	c #9A9A9A",
"c 	c #838383",
"d 	c #171717",
"e 	c #202020",
"f 	c #717171",
"g 	c #A6A6A6",
"h 	c #616161",
"i 	c #1D1D1D",
"j 	c #1F1F1F",
"k 	c #C4C4C4",
"l 	c #CACACA",
"m 	c #AEAEAE",
"n 	c #D1D1D1",
"o 	c #7C7C7C",
"p 	c #BFBFBF",
"q 	c #6C6C6C",
"r 	c #EEEEEE",
"s 	c #949494",
"t 	c #C7C7C7",
"u 	c #EBEBEB",
"v 	c #7D7D7D",
"w 	c #6E6E6E",
"x 	c #A9A9A9",
"y 	c #E99E8F",
"z 	c #DD806D",
"A 	c #9B5343",
"B 	c #CECECE",
"C 	c #626262",
"D 	c #858585",
"E 	c #ECA292",
"F 	c #D0533A",
"G 	c #934F3E",
"H 	c #6D6D6D",
"I 	c #ECA291",
"J 	c #CF543C",
"K 	c #371D16",
"L 	c #5D5D5D",
"M 	c #868686",
"N 	c #787878",
"O 	c #ECA696",
"P 	c #C95C49",
"Q 	c #E17C66",
"R 	c #924E3D",
"S 	c #888888",
"T 	c #A0A0A0",
"U 	c #3D1208",
"V 	c #D15137",
"W 	c #919191",
"X 	c #879981",
"Y 	c #82947C",
"Z 	c #8A9B85",
"` 	c #6E8467",
" .	c #5D7555",
"..	c #4C6042",
"+.	c #3F4F37",
"@.	c #303D2A",
"#.	c #7F8F7A",
"$.	c #64785E",
"%.	c #44563E",
"&.	c #657460",
"*.	c #40503A",
"                                                ",
"                      . .                       ",
"          . . . .   . + @ .                     ",
"          . # $ . . % & * = .                   ",
"          . - ; . > , ' ) ! ~ .                 ",
"          . { . ] ^ / ( _ : < [ .               ",
"          . . } | 1 2 3 4 : 5 6 7 .             ",
"          . 8 9 0 a 4 b 5 : 5 : c d .           ",
"        . e f g 4 b 5 : 5 : 5 : 5 h i .         ",
"      . j k k l 5 m 5 2 5 2 5 : 5 n o } .       ",
"    . 8 m p p p p p p p p . . . . . a q = .     ",
"  . . . . r 5 5 5 5 5 5 5 . s t u . v . . . .   ",
"        . 4 5 . . . . . 5 . : 5 5 . w .         ",
"        . x 5 . y z A . 5 . B 5 5 . C .         ",
"        . D 5 . E F G . 5 . . . . . H .         ",
"        . . 5 . I J K . k s L L M N . .         ",
"        . . r . O P G . 5 5 5 5 5 2 .           ",
"          . 2 . Q # R . : : : : : S .           ",
"          . T U V # A . 5 5 5 5 5 W .           ",
"  . . . . . . . . . . . . . . . . . . . .   .   ",
"        } X Y Z X `  ...+.@.. Y #.$.%.&.*..     ",
"    . .   . . . . . . . . .   . . . . . .       ",
"                . . .                           ",
"                                                "};
