/* XPM */
static char * info_xpm[] = {
"24 24 29 1",
" 	c None",
".	c #4F4F4F",
"+	c #616161",
"@	c #979797",
"#	c #A6A6A6",
"$	c #BEBEBE",
"%	c #E0E0E0",
"&	c #C1C1C1",
"*	c #7B7B7B",
"=	c #D2D2D2",
"-	c #C8C8C8",
";	c #DFDFDF",
">	c #F8F8F8",
",	c #8E8E8E",
"'	c #D7D7D7",
")	c #D4D4D4",
"!	c #6E6E6E",
"~	c #E5E5E5",
"{	c #CDCDCD",
"]	c #727272",
"^	c #DBDBDB",
"/	c #6B6B6B",
"(	c #9C9C9C",
"_	c #A5A5A5",
":	c #737373",
"<	c #AEAEAE",
"[	c #A3A3A3",
"}	c #B5B5B5",
"|	c #2B2B2B",
"                        ",
"          .+++.         ",
"        +@#$%%&*.       ",
"       +$======%$.      ",
"      +@-=;>>>;==,.     ",
"      +'=>>>>>>>$)+     ",
"      !)=%~>>>~;={+     ",
"      ]$==$,,,$^=$+     ",
"      /(==,%%$,==_      ",
"       :$=%%%,$='+      ",
"       +(=%;%<^;,       ",
"        +;=%<=;$+       ",
"        +$;==;;[        ",
"         @@@@@}@        ",
"        @>>>)))}@       ",
"         @>>)}@@        ",
"        @>~))))}@       ",
"        @@>>)}}@@       ",
"        @>~))))}@       ",
"         @@@@@@@        ",
"          .+.||         ",
"                        ",
"                        ",
"                        "};
