/* XPM */
static char * letter_xpm[] = {
"14 10 2 1",
".	c opaque",
" 	c None",
"..............",
"...        ...",
".  .      .  .",
".   .    .   .",
".    ....    .",
".   . .. .   .",
".  .      .  .",
". .        . .",
"..          ..",
".............."};
