/* XPM */
static char * prev_node3_xpm[] = {
"24 24 17 1",
" 	c None",
".	c #000000",
"+	c #0F1308",
"@	c #FFFFFF",
"#	c #BCBCB8",
"$	c #DADAD6",
"%	c #778E6F",
"&	c #C2D7BE",
"*	c #A6BFA0",
"=	c #A9C7A6",
"-	c #BDD3B8",
";	c #B0CAAD",
">	c #C1D6BD",
",	c #8CA782",
"'	c #5B7950",
")	c #6B9060",
"!	c #445B2C",
"    ..................  ",
"   +@#@@@@@@@@@@@@@@$.  ",
"  +@@%$@@@@@@@@@@@@@$.  ",
" .$#%%$@@@@@@@@@$.$$$.  ",
" .%$##$@@@@@@@@#..$$$.  ",
" .#@@@@@@@@@$$#.&.#$$.  ",
" .$@@@@@@@@@@#.$*.##$.  ",
" .@@@@@@@@$$#.$=*.......",
" .@@@@@@@$$#.$==-&&&&&*.",
" .@@@@@@@$#.@====;====%.",
" .@$@$$$$#.$>>>>>>>>>>,.",
" .@$@$$$$#.'))))))))))!.",
" .@$$$$$$##.')))))))))!.",
" .@$$$$$$##%.')))'!!!!!.",
" .@$$$$$##$#%.')!.......",
" .@$$$$$$$###%.'!.%%%.  ",
" .@$$#####$$##%.!.%##.  ",
" .@$$$$$$$#####%..###.  ",
" .@$$#####$$$###%.###.  ",
" .@$$$$$$$$$$$#######.  ",
" .@##################.  ",
" .....................  ",
"                        ",
"                        "};
