/* XPM */
static char * refresh_xpm[] = {
"24 24 126 2",
"  	c None",
". 	c #000000",
"+ 	c #F0FFEE",
"@ 	c #CAE3C6",
"# 	c #F5FFF4",
"$ 	c #0D110C",
"% 	c #729C6C",
"& 	c #A6CAA1",
"* 	c #CBE4C7",
"= 	c #EFFDEE",
"- 	c #172116",
"; 	c #88B583",
"> 	c #CCE5C8",
", 	c #CDE6C9",
"' 	c #CFE7CB",
") 	c #F3FFF2",
"! 	c #7FA879",
"~ 	c #689063",
"{ 	c #CDE5C9",
"] 	c #CFE7CA",
"^ 	c #D0E9CC",
"/ 	c #D4EAD0",
"( 	c #D5ECD1",
"_ 	c #AED5A9",
": 	c #9ABC95",
"< 	c #63865F",
"[ 	c #2B3A29",
"} 	c #8CB887",
"| 	c #70986A",
"1 	c #71986B",
"2 	c #729A6B",
"3 	c #759C6D",
"4 	c #759F6F",
"5 	c #76A170",
"6 	c #567453",
"7 	c #AFCBAC",
"8 	c #7EAB77",
"9 	c #78A472",
"0 	c #6F9669",
"a 	c #70976A",
"b 	c #71996B",
"c 	c #739B6D",
"d 	c #759F6E",
"e 	c #77A170",
"f 	c #526F4C",
"g 	c #B7D2B2",
"h 	c #60835B",
"i 	c #A5C9A0",
"j 	c #9AC195",
"k 	c #4F6B4C",
"l 	c #769F70",
"m 	c #516D4C",
"n 	c #B9D5B4",
"o 	c #7BA574",
"p 	c #C7E0C3",
"q 	c #6D9568",
"r 	c #51714E",
"s 	c #B6D3B2",
"t 	c #81AB7C",
"u 	c #C3DBBF",
"v 	c #6B9265",
"w 	c #C8EFC3",
"x 	c #A7CCA2",
"y 	c #B5D2B1",
"z 	c #80A87A",
"A 	c #90B68B",
"B 	c #79A674",
"C 	c #C6EAC1",
"D 	c #DEF7D9",
"E 	c #B3D7AE",
"F 	c #BBD9B8",
"G 	c #AFCCAB",
"H 	c #749E6D",
"I 	c #5B7B57",
"J 	c #8CB087",
"K 	c #BBE1B6",
"L 	c #DAF5D6",
"M 	c #E1F7DD",
"N 	c #DCF4D6",
"O 	c #D7F0D3",
"P 	c #CFECCB",
"Q 	c #C6E3C3",
"R 	c #BCD6B9",
"S 	c #7EA778",
"T 	c #64885F",
"U 	c #A6C1A3",
"V 	c #B3D5AE",
"W 	c #CDEAC9",
"X 	c #D0EBCB",
"Y 	c #CAE9C5",
"Z 	c #C7E6C3",
"` 	c #C3E3BF",
" .	c #BDDCBA",
"..	c #B5D2B2",
"+.	c #96B991",
"@.	c #76A071",
"#.	c #3A4E37",
"$.	c #5E7F5A",
"%.	c #8FAF8B",
"&.	c #9CBE97",
"*.	c #C7E0C4",
"=.	c #CBE3C6",
"-.	c #CDE4C9",
";.	c #CBE4C8",
">.	c #C7E1C4",
",.	c #C2DBBF",
"'.	c #88AF82",
").	c #6B9266",
"!.	c #557451",
"~.	c #63885E",
"{.	c #759C70",
"].	c #749E6F",
"^.	c #72996B",
"/.	c #739A6D",
"(.	c #71996C",
"_.	c #6E9668",
":.	c #6C9367",
"<.	c #5F815A",
"[.	c #70996B",
"}.	c #6E9467",
"|.	c #698F63",
"1.	c #6B9166",
"2.	c #5D8059",
"3.	c #4D6A49",
"4.	c #6A8F64",
"5.	c #283926",
"              .                                 ",
"              . .                               ",
"              . + .                             ",
"        . . . . @ # .                           ",
"      $ % & @ @ * * = .           . .           ",
"    - ; @ @ * * > , ' ) .       . ! ~ .         ",
"  . % @ * * > { ] ^ / ( _ .       . : < .       ",
"  [ & @ } | 1 2 3 4 5 6 .           . 7 .       ",
". 8 @ 9 0 a b c d e f .             . g h .     ",
". i j 0 k . . . l m .       .       . n o .     ",
". p q h .     . r .       . .       . s t .     ",
". u v .       . .       . w .     . x y z .     ",
". A B .       .       . C D . . . E F G H .     ",
". I J .             . K L M N O P Q R S T .     ",
"  . U .           . V W X Y Z `  ...+.@.#..     ",
"  . $.%..       . &.*.=., -.;.>.,.'.).!..       ",
"    . ~.{..       . ].^.c /.(.| _.:.<.. .       ",
"      . .           . [.}.|.~ 1.2.3.. .         ",
"                      . q 4.. . . .             ",
"                        5.)..                   ",
"                          . .                   ",
"                            .                   ",
"                                                ",
"                                                "};
