/* XPM */
static char * stock_sort_column_ascending_xpm[] = {
"24 24 2 1",
" 	c None",
".	c #000000",
"                        ",
"                        ",
"    ...                 ",
"   . ..                 ",
"     ..                 ",
"     ..                 ",
"     ..                 ",
"     ..                 ",
"     ..                 ",
"   .....   .            ",
"                        ",
"           .            ",
"                        ",
"           .            ",
"    ....                ",
"   ..  ..               ",
"   ..  ..               ",
"   ..  ..               ",
"    .....               ",
"       ..               ",
"   .  ...               ",
"   .....                ",
"                        ",
"                        "};
