/* XPM */
static char * stock_sort_criteria_xpm[] = {
"24 24 28 1",
" 	c None",
".	c #000000",
"+	c #FFFFFF",
"@	c #D3D3D3",
"#	c #F2ECE1",
"$	c #F4EFE5",
"%	c #DFDAD2",
"&	c #C9C4BD",
"*	c #74716E",
"=	c #FAFAFA",
"-	c #EADFC9",
";	c #ECE2CF",
">	c #EEE5D4",
",	c #4C4B48",
"'	c #F5F5F5",
")	c #C9C9C9",
"!	c #E2D2B1",
"~	c #CFC4B1",
"{	c #BFBFBF",
"]	c #C0C0C0",
"^	c #C7B99C",
"/	c #F0F0F0",
"(	c #B7B7B7",
"_	c #9A8F78",
":	c #877E69",
"<	c #AFA389",
"[	c #A09889",
"}	c #314E6C",
"                        ",
"                        ",
"                ......  ",
"                   ...  ",
"                  ...   ",
"                 ...    ",
"  .........     ...     ",
"  .+@.#$%&*.    ......  ",
"  .=@.-;;;>,            ",
"  .').!!!!.~.           ",
"  .{].^^!.^.~.          ",
"  ./(.._.^.:.~.         ",
"   .....<.:...[.        ",
"        .:..  ..        ",
"         ..             ",
"                        ",
"                 }}}}   ",
"                }}  }}  ",
"                }}  }}  ",
"                }}}}}}  ",
"                }}  }}  ",
"                }}  }}  ",
"                        ",
"                        "};
