/* XPM */
/* Copyright (C) 2010-2012 Free Software Foundation, Inc.
 *
 * Author: Chong Yidong <cyd@stupidchicken.com>
 *
 * This file is part of GNU Emacs.
 *
 * GNU Emacs is free software: you can redistribute it and/or modify
 * it under the terms of the GNU General Public License as published by
 * the Free Software Foundation, either version 3 of the License, or
 * (at your option) any later version.
 *
 * GNU Emacs is distributed in the hope that it will be useful,
 * but WITHOUT ANY WARRANTY; without even the implied warranty of
 * MERCHANTABILITY or FITNESS FOR A PARTICULAR PURPOSE.  See the
 * GNU General Public License for more details.
 *
 * You should have received a copy of the GNU General Public License
 * along with GNU Emacs.  If not, see <http://www.gnu.org/licenses/>.
 */
static char * unchecked_xpm[] = {
"12 12 5 1",
" 	c None",
".	c gray20",
"+	c white",
"@	c gray70",
"#	c black",
"............",
"............",
"..@@@@@@@@+.",
"..@@@@@@@@+.",
"..@@@@@@@@+.",
"..@@@@@@@@+.",
"..@@@@@@@@+.",
"..@@@@@@@@+.",
"..@@@@@@@@+.",
"..@++++++++.",
".@+++++++++.",
"............"};
