/* XPM */
static char * undo_xpm[] = {
"24 24 31 1",
" 	c None",
".	c #000000",
"+	c #EFE5BA",
"@	c #EFE7C1",
"#	c #EED680",
"$	c #EFE4B6",
"%	c #D5B75D",
"&	c #B29544",
"*	c #D1B051",
"=	c #C0AF73",
"-	c #C0A048",
";	c #986B07",
">	c #D1940C",
",	c #E0B74C",
"'	c #D9C374",
")	c #8F6406",
"!	c #D59D1C",
"~	c #B1933F",
"{	c #DFB74A",
"]	c #CCB76D",
"^	c #B8820A",
"/	c #D9A72E",
"(	c #D7A62C",
"_	c #C7B26A",
":	c #D4B150",
"<	c #A39256",
"[	c #E2CB79",
"}	c #C9B46B",
"|	c #8D7E4A",
"1	c #AE9C5C",
"2	c #96864F",
"                        ",
"                        ",
"                        ",
"          .             ",
"         ..             ",
"        .+.             ",
"       .@#....          ",
"      .$####%&.         ",
"     .+#######*.        ",
"    .=#########-.       ",
"     .;>>>>>>,#'..      ",
"      .)>>>>>>!#~.      ",
"       .)>...;>{].      ",
"        .;. ..^/#.      ",
"         ..  ..>#.      ",
"          .   .(_.      ",
"              .:<.      ",
"              .[.       ",
"             .}|.       ",
"            .12.        ",
"             ..         ",
"                        ",
"                        ",
"                        "};
