/* XPM */
static char * zoom_in_xpm[] = {
"24 24 132 2",
"  	c None",
". 	c #343434",
"+ 	c #2D2D2D",
"@ 	c #292929",
"# 	c #262626",
"$ 	c #2E2E2E",
"% 	c #303030",
"& 	c #737373",
"* 	c #A1A1A1",
"= 	c #B4B4B4",
"- 	c #B2B2B2",
"; 	c #9D9D9D",
"> 	c #676767",
", 	c #202020",
"' 	c #1C1C1C",
") 	c #272727",
"! 	c #616161",
"~ 	c #CACACA",
"{ 	c #CFCFCF",
"] 	c #D0D0D0",
"^ 	c #CECECE",
"/ 	c #C9C9C9",
"( 	c #C1C1C1",
"_ 	c #A7A7A7",
": 	c #4C4C4C",
"< 	c #131313",
"[ 	c #222222",
"} 	c #757575",
"| 	c #D3D3D3",
"1 	c #DBDBDB",
"2 	c #E7E7E7",
"3 	c #EFEFEF",
"4 	c #F3F3F3",
"5 	c #F1F1F1",
"6 	c #E5E5E5",
"7 	c #D2D2D2",
"8 	c #BCBCBC",
"9 	c #5E5E5E",
"0 	c #101010",
"a 	c #212121",
"b 	c #5B5B5B",
"c 	c #CCCCCC",
"d 	c #D7D7D7",
"e 	c #F5F5F5",
"f 	c #FAFAFA",
"g 	c #FBFBFB",
"h 	c #F8F8F8",
"i 	c #F0F0F0",
"j 	c #E1E1E1",
"k 	c #C2C2C2",
"l 	c #434343",
"m 	c #0F0F0F",
"n 	c #1F1F1F",
"o 	c #B9B9B9",
"p 	c #D6D6D6",
"q 	c #F9F9F9",
"r 	c #FDFDFD",
"s 	c #454545",
"t 	c #F2F2F2",
"u 	c #ECECEC",
"v 	c #E4E4E4",
"w 	c #ABABAB",
"x 	c #0E0E0E",
"y 	c #1B1B1B",
"z 	c #6D6D6D",
"A 	c #FEFEFE",
"B 	c #FCFCFC",
"C 	c #EEEEEE",
"D 	c #E6E6E6",
"E 	c #575757",
"F 	c #090909",
"G 	c #141414",
"H 	c #A8A8A8",
"I 	c #D8D8D8",
"J 	c #F6F6F6",
"K 	c #F4F4F4",
"L 	c #DCDCDC",
"M 	c #9B9B9B",
"N 	c #060606",
"O 	c #111111",
"P 	c #C5C5C5",
"Q 	c #DFDFDF",
"R 	c #444444",
"S 	c #424242",
"T 	c #EDEDED",
"U 	c #BFBFBF",
"V 	c #C6C6C6",
"W 	c #E3E3E3",
"X 	c #414141",
"Y 	c #EAEAEA",
"Z 	c #E0E0E0",
"` 	c #BABABA",
" .	c #050505",
"..	c #0B0B0B",
"+.	c #A5A5A5",
"@.	c #D1D1D1",
"#.	c #939393",
"$.	c #020202",
"%.	c #0A0A0A",
"&.	c #5F5F5F",
"*.	c #D9D9D9",
"=.	c #EBEBEB",
"-.	c #E9E9E9",
";.	c #D4D4D4",
">.	c #000000",
",.	c #E2E2E2",
"'.	c #3F3F3F",
").	c #DADADA",
"!.	c #CBCBCB",
"~.	c #3B3B3B",
"{.	c #D5D5D5",
"].	c #C8C8C8",
"^.	c #BDBDBD",
"/.	c #515151",
"(.	c #C7C7C7",
"_.	c #CDCDCD",
":.	c #B8B8B8",
"<.	c #030303",
"[.	c #313131",
"}.	c #999999",
"|.	c #BBBBBB",
"1.	c #B6B6B6",
"2.	c #909090",
"3.	c #2B2B2B",
"4.	c #010101",
"5.	c #7A7A7A",
"6.	c #9A9A9A",
"7.	c #777777",
"8.	c #3C3C3C",
"9.	c #686868",
"0.	c #797979",
"a.	c #3A3A3A",
"                                                ",
"              . + @ # # #                       ",
"          $ % & * = - ; > , '                   ",
"        ) ! = ~ { ] ^ / ( _ : <                 ",
"      [ } ~ | 1 2 3 4 5 6 7 8 9 0               ",
"    a b c d 6 e f g f h e i j k l m             ",
"    n o p 2 q g r s s g h t u v w x             ",
"  y z 7 j e f r A s s B q e C D 1 E F           ",
"  G H I C J q B A s s g h K C D L M N           ",
"  O P Q 3 e R R s s s R l S T 6 1 U N           ",
"  x V W u t l R R R R l S X Y Z d `  .          ",
"  ..+.j 2 T 5 K J l l 4 3 u v 1 @.#.$.          ",
"  %.&.*.j D =.C 3 X X T -.v 1 ;.~ : >.          ",
"    %.= I L ,.6 D '.'.W Q ).;.!.* $.            ",
"    N ~.c 7 ;.).1 ).1 I {.] ].^.$ >.            ",
"       ./.k (.!.c _.!.!.].k :.s >.              ",
"        <.[.}.|.^.8 8 8 1.2.3.>.>.>.            ",
"          4.<.X 5.6.6.7.8.>.>.  >.>.>.>.        ",
"              >.>.>.>.>.>.        , , >.>.      ",
"                                  >.9.. >.>.    ",
"                                    >.0.a.>.>.  ",
"                                      >.9.n >.  ",
"                                        >.>.    ",
"                                                "};
