/* XPM */
static char *dummy[]={
"10 17 9 1",
". c None",
"# c #000080",
"f c #52a55a",
"g c #52ad52",
"d c #5abd42",
"b c #63c639",
"c c #6bd629",
"e c #ada5c6",
"a c #ffff00",
"..........",
"..........",
"..........",
"...######.",
"..#aaaaaa.",
".#aabbbb..",
"#aabc###..",
"aad##ee...",
"adeeeee...",
"aad##ee...",
"#aafg###..",
".#aabbbb..",
"..#aaaaaa.",
"...######.",
"..........",
"..........",
".........."};
