/* XPM */
static char *dummy[]={
"10 17 5 1",
". c None",
"a c #000080",
"b c #63c639",
"c c #ada5c6",
"# c #ffff00",
"..........",
"..........",
"..........",
"..........",
"#.......#a",
"#ba...ab#a",
"#ba...ab#a",
"#bccccab#a",
"#bacccab#a",
"#bbacabb#a",
"##bacab##a",
"a##bbb##a.",
".a#####a..",
"..a###a...",
"...a#a....",
"....c.....",
"....c....."};
