/* XPM */
static char * flag_for_followup_xpm[] = {
"24 24 160 2",
"  	c None",
". 	c #5B5457",
"+ 	c #322D2E",
"@ 	c #463B3F",
"# 	c #63555A",
"$ 	c #53484B",
"% 	c #726166",
"& 	c #98868C",
"* 	c #8A727A",
"= 	c #211619",
"- 	c #847B7D",
"; 	c #CDBAC0",
"> 	c #A58791",
", 	c #82646D",
"' 	c #6B515A",
") 	c #6A5058",
"! 	c #684C56",
"~ 	c #6A424F",
"{ 	c #3A2A2F",
"] 	c #000000",
"^ 	c #5C5457",
"/ 	c #D1BEC4",
"( 	c #C3ACB4",
"_ 	c #B59AA2",
": 	c #997E87",
"< 	c #80666E",
"[ 	c #745A62",
"} 	c #64464F",
"| 	c #603946",
"1 	c #764D5A",
"2 	c #886771",
"3 	c #45373B",
"4 	c #A9979C",
"5 	c #B798A2",
"6 	c #BCA0A9",
"7 	c #BEA4AC",
"8 	c #B89FA7",
"9 	c #9E848C",
"0 	c #8F767E",
"a 	c #785F67",
"b 	c #6A4E57",
"c 	c #6E4F59",
"d 	c #7C5A65",
"e 	c #8E6873",
"f 	c #8C6974",
"g 	c #413337",
"h 	c #251F21",
"i 	c #99717D",
"j 	c #8F606E",
"k 	c #946875",
"l 	c #9E7582",
"m 	c #B08F9A",
"n 	c #AC8C96",
"o 	c #AE929A",
"p 	c #9C8089",
"q 	c #8B7179",
"r 	c #765C65",
"s 	c #745660",
"t 	c #7E5A66",
"u 	c #865E6A",
"v 	c #855D69",
"w 	c #7F5F69",
"x 	c #3B2D32",
"y 	c #40332D",
"z 	c #6F3B4A",
"A 	c #774252",
"B 	c #7D4858",
"C 	c #82505F",
"D 	c #926674",
"E 	c #906572",
"F 	c #966D7A",
"G 	c #A17E89",
"H 	c #A0828B",
"I 	c #90767D",
"J 	c #927780",
"K 	c #8B6E77",
"L 	c #8A6A74",
"M 	c #86626C",
"N 	c #845B68",
"O 	c #8E6673",
"P 	c #6A535A",
"Q 	c #B2997B",
"R 	c #3C2824",
"S 	c #693343",
"T 	c #723A4B",
"U 	c #845261",
"V 	c #8C5E6C",
"W 	c #946A78",
"X 	c #9A737E",
"Y 	c #A1828C",
"Z 	c #947C84",
"` 	c #846B73",
" .	c #755B64",
"..	c #57464B",
"+.	c #59454C",
"@.	c #5B484E",
"#.	c #31282B",
"$.	c #392F23",
"%.	c #B59C7D",
"&.	c #372622",
"*.	c #643040",
"=.	c #7E4D5B",
"-.	c #814E5D",
";.	c #845262",
">.	c #936876",
",.	c #976E7B",
"'.	c #9D7C87",
").	c #82666F",
"!.	c #5C4B50",
"~.	c #3D3326",
"{.	c #34251F",
"].	c #7E4C5B",
"^.	c #8C606E",
"/.	c #9C7581",
"(.	c #9B7380",
"_.	c #997682",
":.	c #7F656D",
"<.	c #3A2F22",
"[.	c #33241F",
"}.	c #683444",
"|.	c #875766",
"1.	c #A17C87",
"2.	c #A27C88",
"3.	c #8B6773",
"4.	c #574249",
"5.	c #392E21",
"6.	c #B69C7E",
"7.	c #30241D",
"8.	c #64303F",
"9.	c #804F5E",
"0.	c #976D7A",
"a.	c #886670",
"b.	c #2E2025",
"c.	c #362C1F",
"d.	c #2B221A",
"e.	c #5A2837",
"f.	c #6E394A",
"g.	c #73515C",
"h.	c #0C0809",
"i.	c #342B1F",
"j.	c #B69E7F",
"k.	c #512432",
"l.	c #683E4B",
"m.	c #332A1E",
"n.	c #2D261E",
"o.	c #4E2330",
"p.	c #282118",
"q.	c #32291D",
"r.	c #B79E80",
"s.	c #2D261D",
"t.	c #352B1F",
"u.	c #B49A7D",
"v.	c #2E271F",
"w.	c #352C1F",
"x.	c #2A221A",
"y.	c #B49C7E",
"z.	c #2A241C",
"A.	c #28221B",
"B.	c #AE9C88",
"C.	c #060606",
"                                                ",
"                  . +                           ",
"          @ # $ % & * =                         ",
"        - ; > , ' ) ! ~ { ]                     ",
"      ^ / ( _ : < [ } | 1 2 3 ]                 ",
"      4 5 6 7 8 9 0 a b c d e f g ]             ",
"    h i j k l m n o p q r s t u v w x ]         ",
"    y z A B C D E F G H I J K L M N O P         ",
"  ] Q R S T U V V W X Y Z `  ...+.@.#.          ",
"    $.%.&.*.=.-.;.>.,.'.).!.                    ",
"      ~.Q {.*.].^./.(._.:.                      ",
"        <.%.[.}.|.1.2.3.4.                      ",
"          5.6.7.8.9.0.a.b.                      ",
"            c.%.d.e.f.g.h.                      ",
"              i.j.d.k.l.]                       ",
"                m.%.n.o.]                       ",
"                  m.%.p.                        ",
"                    q.r.s.                      ",
"                      t.u.v.                    ",
"                        w.u.x.                  ",
"                          c.y.z.                ",
"                            t.u.A.              ",
"                              c.B.]             ",
"                                C.              "};
