/* XPM */
static char * stock_inbox_xpm[] = {
"24 24 76 1",
" 	c None",
".	c #000000",
"+	c #B5CADD",
"@	c #BFD1E1",
"#	c #C3D4E3",
"$	c #C7D7E5",
"%	c #B0C6DA",
"&	c #6B94BB",
"*	c #131E29",
"=	c #739ABF",
"-	c #7EA2C4",
";	c #9AB6D0",
">	c #E4EBF2",
",	c #DDE6EF",
"'	c #8CACCA",
")	c #5C8AB4",
"!	c #090F15",
"~	c #B1C7DB",
"{	c #D0DDEA",
"]	c #D9E3ED",
"^	c #88A9C8",
"/	c #4D7CA7",
"(	c #030405",
"_	c #41688D",
":	c #32506C",
"<	c #C4D5E4",
"[	c #A5BED5",
"}	c #456F97",
"|	c #3B5F81",
"1	c #C8D8E6",
"2	c #9CB8D2",
"3	c #395B7B",
"4	c #C6D6E4",
"5	c #BBCEDF",
"6	c #3D6183",
"7	c #B6CBDE",
"8	c #426A90",
"9	c #E2C6A9",
"0	c #E5CDB4",
"a	c #D5AA7F",
"b	c #9D6733",
"c	c #CB9967",
"d	c #ADC4D9",
"e	c #B99877",
"f	c #CFBAA4",
"g	c #9A7149",
"h	c #CDA378",
"i	c #D2A87E",
"j	c #608DB6",
"k	c #AA7B4B",
"l	c #C2A588",
"m	c #996633",
"n	c #BB9978",
"o	c #C3976B",
"p	c #D2A980",
"q	c #D1A77D",
"r	c #E0C4A8",
"s	c #C9B097",
"t	c #D7B38E",
"u	c #DAC2A9",
"v	c #BD9063",
"w	c #CEA57C",
"x	c #E5CFBB",
"y	c #393633",
"z	c #E0C8B1",
"A	c #C9A480",
"B	c #D1A87E",
"C	c #D0A67B",
"D	c #E1CAB4",
"E	c #52504D",
"F	c #D8C6B5",
"G	c #CBA988",
"H	c #CCAF93",
"I	c #D2B496",
"J	c #A67D51",
"K	c #E2CFBD",
"     ......             ",
"    .+@#$%&*.           ",
"    .=-;$>,')!          ",
"     ...=~{]^/(         ",
"        .=+#$_:.        ",
"         .<[@}|.        ",
"         .12@}3.        ",
"      ....425}6....     ",
"       .=2527}8}:.      ",
"     ..9.=227}}:.       ",
"   ..0abb.=2~}:..       ",
" ..0abbbbc.=d:.ef..     ",
".0abbbbghii.j.kkklf..   ",
".mnabgopqqqi.iokkkkef.  ",
".mmmnrooqiqqqiiiokkkks. ",
".mmmmmnrooqiqqqiiiokkl. ",
" ..mmmmmnrooqiqqiiituf. ",
"   ..mmmmmnrvwiqqtxxy.  ",
"     ..mmmmmzABCDxE..   ",
"      ...mmmFGHIE..     ",
"        ...mJK...       ",
"          .....         ",
"                        ",
"                        "};
