/* XPM */
static char * stock_not_spam_xpm[] = {
"24 24 122 2",
"  	c None",
". 	c #1D1E1E",
"+ 	c #333839",
"@ 	c #393F40",
"# 	c #171819",
"$ 	c #B2B8B9",
"% 	c #D5E3E7",
"& 	c #AABABD",
"* 	c #64696A",
"= 	c #0C0D0D",
"- 	c #929C9E",
"; 	c #E7F0F3",
"> 	c #EDF0F1",
", 	c #E5EDEF",
"' 	c #C5D9DD",
") 	c #2E3132",
"! 	c #3F4343",
"~ 	c #1F2121",
"{ 	c #DFEBEE",
"] 	c #B7C4C8",
"^ 	c #D2D9DA",
"/ 	c #E1EFF2",
"( 	c #B6CBCF",
"_ 	c #3C4547",
": 	c #1E2223",
"< 	c #191E1F",
"[ 	c #2D2E2F",
"} 	c #191A1A",
"| 	c #252829",
"1 	c #7E8E92",
"2 	c #B7C2C3",
"3 	c #C3D9DD",
"4 	c #9CACB0",
"5 	c #C3CDCE",
"6 	c #C7E1E7",
"7 	c #668F97",
"8 	c #90ACB2",
"9 	c #CDDDE1",
"0 	c #485559",
"a 	c #88A6AC",
"b 	c #1F2223",
"c 	c #3F4545",
"d 	c #242728",
"e 	c #313B3E",
"f 	c #A8C2C8",
"g 	c #B2BDC0",
"h 	c #CFE5E9",
"i 	c #C2D9DE",
"j 	c #81989C",
"k 	c #A2C0C5",
"l 	c #85A9B1",
"m 	c #E5ECEE",
"n 	c #E7F2F4",
"o 	c #9BAEB3",
"p 	c #C8E1E7",
"q 	c #3A3E3F",
"r 	c #0C0E0E",
"s 	c #000000",
"t 	c #333737",
"u 	c #B3C2C5",
"v 	c #DDEDF0",
"w 	c #D8E4E6",
"x 	c #DAECEF",
"y 	c #D5E9ED",
"z 	c #D2E7EC",
"A 	c #95ADB2",
"B 	c #DBE2E2",
"C 	c #EDEFF0",
"D 	c #A2B1B3",
"E 	c #8FA4A8",
"F 	c #D7E2E5",
"G 	c #798F94",
"H 	c #151819",
"I 	c #F3B5A7",
"J 	c #865E55",
"K 	c #AFB9BB",
"L 	c #F1F8F9",
"M 	c #F7FBFB",
"N 	c #D9EBEF",
"O 	c #ECF4F6",
"P 	c #F3F7F7",
"Q 	c #E9F2F4",
"R 	c #EEF2F3",
"S 	c #E9EDEE",
"T 	c #C5C8C9",
"U 	c #C2C6C8",
"V 	c #E0E7E7",
"W 	c #DDEAED",
"X 	c #7A9DA5",
"Y 	c #EB8169",
"Z 	c #B83618",
"` 	c #924E3C",
" .	c #9FA5A6",
"..	c #E3EEF0",
"+.	c #ECF5F7",
"@.	c #D6EAED",
"#.	c #CBE4E9",
"$.	c #747C7D",
"%.	c #B43518",
"&.	c #E76A4D",
"*.	c #B53F24",
"=.	c #CB705A",
"-.	c #C4D8DB",
";.	c #D2E6E9",
">.	c #CAE3E8",
",.	c #A9C8CF",
"'.	c #EC927D",
").	c #E66F54",
"!.	c #D26951",
"~.	c #F1A897",
"{.	c #E76547",
"].	c #C58B7D",
"^.	c #A8ABAC",
"/.	c #70A1AB",
"(.	c #DF421E",
"_.	c #C43A1A",
":.	c #E17055",
"<.	c #DD8D7A",
"[.	c #FFFFFF",
"}.	c #030505",
"|.	c #A2432E",
"1.	c #AC3316",
"                                                ",
"                                                ",
"              . + @                             ",
"            # $ % & * .                         ",
"            = - ; > , ' ) !                     ",
"              ~ { ] ^ / ( _ : < [ }             ",
"            | 1 2 3 4 5 6 7 8 9 0 a b           ",
"        c d e f g h i j k l m n o p q r         ",
"      s t u v w / x y z A B C D E F G H         ",
"  s s I J K L M N O P Q R S T U V W X <         ",
"s I Y Z `  ...+.@.#.$.s s s s s s s s s s s s   ",
"s %.&.Y *.=.-.;.>.,.s '.).).).).).).).).).).!.s ",
"s %.%.%.&.~.{.].^./.s ).(.(.(.(.(.(.(.(.(.(._.s ",
"s %.%.%.%.%.&.~.:.<.s ).(.[.[.(.(.(.(.[.[.(._.s ",
"  s s %.%.%.%.%.&.~.s ).(.[.[.[.(.(.[.[.[.(._.s ",
"      s s %.%.%.%.%.s ).(.(.[.[.[.[.[.[.(.(._.s ",
"          s s %.%.%.s ).(.(.(.[.[.[.[.(.(.(._.s ",
"            }.s s |.s ).(.(.(.[.[.[.[.(.(.(._.s ",
"                s s s ).(.(.[.[.[.[.[.[.(.(._.s ",
"                    s ).(.[.[.[.(.(.[.[.[.(._.s ",
"                    s ).(.[.[.(.(.(.(.[.[.(._.s ",
"                    s ).(.(.(.(.(.(.(.(.(.(._.s ",
"                    s !._._._._._._._._._._.1.s ",
"                      s s s s s s s s s s s s   "};
