/* XPM */
static char * mail_preview_xpm[] = {
"24 24 151 2",
"  	c None",
". 	c #343434",
"+ 	c #2D2D2D",
"@ 	c #292929",
"# 	c #262626",
"$ 	c #2E2E2E",
"% 	c #303030",
"& 	c #737373",
"* 	c #A1A1A1",
"= 	c #B4B4B4",
"- 	c #B2B2B2",
"; 	c #9D9D9D",
"> 	c #676767",
", 	c #202020",
"' 	c #1C1C1C",
") 	c #272727",
"! 	c #616161",
"~ 	c #CACACA",
"{ 	c #CFCFCF",
"] 	c #D0D0D0",
"^ 	c #CECECE",
"/ 	c #C9C9C9",
"( 	c #C1C1C1",
"_ 	c #A7A7A7",
": 	c #4C4C4C",
"< 	c #131313",
"[ 	c #222222",
"} 	c #757575",
"| 	c #D3D3D3",
"1 	c #DBDBDB",
"2 	c #E7E7E7",
"3 	c #EFEFEF",
"4 	c #F3F3F3",
"5 	c #F1F1F1",
"6 	c #E5E5E5",
"7 	c #D2D2D2",
"8 	c #BCBCBC",
"9 	c #5E5E5E",
"0 	c #101010",
"a 	c #212121",
"b 	c #5B5B5B",
"c 	c #CCCCCC",
"d 	c #D7D7D7",
"e 	c #F5F5F5",
"f 	c #FAFAFA",
"g 	c #FBFBFB",
"h 	c #F8F8F8",
"i 	c #F0F0F0",
"j 	c #E1E1E1",
"k 	c #C2C2C2",
"l 	c #434343",
"m 	c #0F0F0F",
"n 	c #1F1F1F",
"o 	c #B9B9B9",
"p 	c #D4D4D4",
"q 	c #F7F7F7",
"r 	c #F9F9F9",
"s 	c #F6F6F6",
"t 	c #EAEAEA",
"u 	c #E2E2E2",
"v 	c #ABABAB",
"w 	c #0E0E0E",
"x 	c #000000",
"y 	c #111111",
"z 	c #686868",
"A 	c #9C9C9C",
"B 	c #808080",
"C 	c #8E8E8E",
"D 	c #919191",
"E 	c #929292",
"F 	c #949494",
"G 	c #939393",
"H 	c #8B8B8B",
"I 	c #838383",
"J 	c #A3A3A3",
"K 	c #555555",
"L 	c #080808",
"M 	c #535353",
"N 	c #333333",
"O 	c #AFAFAF",
"P 	c #E6E6E6",
"Q 	c #FDFDFD",
"R 	c #FEFEFE",
"S 	c #FCFCFC",
"T 	c #A8A8A8",
"U 	c #8D8D8D",
"V 	c #050505",
"W 	c #EEEEEE",
"X 	c #A6A6A6",
"Y 	c #C8C8C8",
"Z 	c #FFFFFF",
"` 	c #B6B6B6",
" .	c #F4F4F4",
"..	c #F2F2F2",
"+.	c #A9A9A9",
"@.	c #040404",
"#.	c #2A2A2A",
"$.	c #AAAAAA",
"%.	c #ECECEC",
"&.	c #A5A5A5",
"*.	c #C7C7C7",
"=.	c #D8D8D8",
"-.	c #CDCDCD",
";.	c #858585",
">.	c #010101",
",.	c #606060",
"'.	c #646464",
").	c #C3C3C3",
"!.	c #DADADA",
"~.	c #494949",
"{.	c #ADADAD",
"].	c #0A0A0A",
"^.	c #BABABA",
"/.	c #DCDCDC",
"(.	c #989898",
"_.	c #E9E9E9",
":.	c #EBEBEB",
"<.	c #A4A4A4",
"[.	c #B7B7B7",
"}.	c #D1D1D1",
"|.	c #414141",
"1.	c #3D3D3D",
"2.	c #969696",
"3.	c #A0A0A0",
"4.	c #BEBEBE",
"5.	c #D9D9D9",
"6.	c #C5C5C5",
"7.	c #515151",
"8.	c #C0C0C0",
"9.	c #959595",
"0.	c #DDDDDD",
"a.	c #484848",
"b.	c #030303",
"c.	c #454545",
"d.	c #060606",
"e.	c #B5B5B5",
"f.	c #C6C6C6",
"g.	c #C4C4C4",
"h.	c #A2A2A2",
"i.	c #828282",
"j.	c #1E1E1E",
"k.	c #191919",
"l.	c #7C7C7C",
"m.	c #E4E4E4",
"n.	c #9E9E9E",
"o.	c #525252",
"p.	c #B0B0B0",
"q.	c #6C6C6C",
"r.	c #565656",
"s.	c #797979",
"t.	c #3A3A3A",
"                                                ",
"                                                ",
"                . + @ # # #                     ",
"            $ % & * = - ; > , '                 ",
"          ) ! = ~ { ] ^ / ( _ : <               ",
"        [ } ~ | 1 2 3 4 5 6 7 8 9 0             ",
"      a b c d 6 e f g f h e i j k l m           ",
"      n o p 6 q r g g f r s i t u v w           ",
"  x y z A B C D E F F G G D C H I J K L         ",
"x M N O P e r g Q R R Q S f h e i T U V         ",
"x W y ~ t 5 q q g r S r f q e i X Y _ V         ",
"x Z y ` t 3 4 e s q q q s  ...+.~ ] J @.        ",
"x Z #.$.v %.i .. .e e e 4 5 &.*.=.-.;.>.        ",
"x Z ,.'.1 ; %.3 i 5 5 i i T ).=.!./ ~.x         ",
"x Z {.].^./.(._.:.%.%.%.<.[.}.!.p &.>.          ",
"x Z /.|.1.7 +.2.6 6 6 3.$.4.=.5.).% x           ",
"x Z e 6.L 7.8.( 9.0.(.= Y J ).( a.b.x           ",
"x Z g d c.d.. 3.( F e.8.~ f.U + b.].x x         ",
"x Z e & ^.g.1.b.a.I h.&.i.l x j.[.k.x x x       ",
"x Z l.p m.m.Y n.o.j.b.b.j.o.n.p.q.O j.n x x     ",
"x & 8 8 8 8 8 8 &.&.&.&.&.&.&.8 8 r.x > N x x   ",
"  x x x x x x x x x x x x x x x x x x x s.t.x x ",
"                                        x z n x ",
"                                          x x   "};
