/* XPM */
static char * stock_mail_reply_to_all_xpm[] = {
"24 24 149 2",
"  	c None",
". 	c #000000",
"+ 	c #ADA99C",
"@ 	c #E6E1D0",
"# 	c #F0EAD9",
"$ 	c #A9A598",
"% 	c #141416",
"& 	c #161618",
"* 	c #080809",
"= 	c #DBD6C7",
"- 	c #1B1B1C",
"; 	c #050505",
"> 	c #5A5A5A",
", 	c #676767",
"' 	c #020202",
") 	c #807D76",
"! 	c #D49A3E",
"~ 	c #D2973B",
"{ 	c #040402",
"] 	c #6D6B6B",
"^ 	c #7A7979",
"/ 	c #030100",
"( 	c #040100",
"_ 	c #282724",
": 	c #DD9831",
"< 	c #DA962F",
"[ 	c #1A0E01",
"} 	c #BC6D1B",
"| 	c #BE6E13",
"1 	c #BE6D13",
"2 	c #BD6C13",
"3 	c #3E3C36",
"4 	c #D69029",
"5 	c #D18D27",
"6 	c #737067",
"7 	c #110900",
"8 	c #CF791C",
"9 	c #CE791C",
"0 	c #CD761A",
"a 	c #C47013",
"b 	c #4A4136",
"c 	c #A0731E",
"d 	c #96691A",
"e 	c #000100",
"f 	c #291703",
"g 	c #BA6613",
"h 	c #8C4E0D",
"i 	c #844A0D",
"j 	c #BF6D13",
"k 	c #1F2A0D",
"l 	c #306220",
"m 	c #4F7242",
"n 	c #448D44",
"o 	c #2E802E",
"p 	c #3A6F3A",
"q 	c #FFFFFF",
"r 	c #535353",
"s 	c #171009",
"t 	c #AC600C",
"u 	c #713F0A",
"v 	c #693A0A",
"w 	c #AA5F0A",
"x 	c #192B10",
"y 	c #275926",
"z 	c #68A769",
"A 	c #358A36",
"B 	c #2D812D",
"C 	c #FBFBFB",
"D 	c #F7F7F7",
"E 	c #FAFAFA",
"F 	c #F5F5F5",
"G 	c #4F4F4F",
"H 	c #AEAEAE",
"I 	c #141517",
"J 	c #6F767C",
"K 	c #534C46",
"L 	c #241609",
"M 	c #23180E",
"N 	c #484644",
"O 	c #354A4D",
"P 	c #050B07",
"Q 	c #4F7E4F",
"R 	c #399239",
"S 	c #2D852D",
"T 	c #297F29",
"U 	c #ACACAC",
"V 	c #C8C8C8",
"W 	c #151618",
"X 	c #6C7C8B",
"Y 	c #728EA9",
"Z 	c #5D6B78",
"` 	c #C8CBCD",
" .	c #C3C7CD",
"..	c #8090A2",
"+.	c #5A728B",
"@.	c #4E6479",
"#.	c #111714",
"$.	c #328732",
"%.	c #2B7F2C",
"&.	c #2B772C",
"*.	c #434343",
"=.	c #A0A0A0",
"-.	c #D4D4D4",
";.	c #25282A",
">.	c #8A9EB4",
",.	c #6A86A1",
"'.	c #596A7C",
").	c #DDE1E4",
"!.	c #DCE2E7",
"~.	c #899CAC",
"{.	c #687E96",
"].	c #546D87",
"^.	c #10161D",
"/.	c #8C8C8C",
"(.	c #959595",
"_.	c #E4E4E4",
":.	c #23282D",
"<.	c #8096AB",
"[.	c #5D7996",
"}.	c #53687D",
"|.	c #CDD3D9",
"1.	c #CBD2DC",
"2.	c #899BAB",
"3.	c #CCD4DC",
"4.	c #5C748C",
"5.	c #111820",
"6.	c #4D4D4D",
"7.	c #818181",
"8.	c #C6C6C6",
"9.	c #1F252B",
"0.	c #6B8197",
"a.	c #536D89",
"b.	c #4A5D6F",
"c.	c #81919F",
"d.	c #8293A4",
"e.	c #5A7087",
"f.	c #496481",
"g.	c #445D79",
"h.	c #0E151B",
"i.	c #6A6A6A",
"j.	c #0E141A",
"k.	c #0D1319",
"l.	c #0E141B",
"m.	c #0E131A",
"n.	c #0F141A",
"o.	c #636363",
"p.	c #737373",
"q.	c #7C7C7C",
"r.	c #BCBCBC",
"                                                ",
"                  . .                           ",
"                + @ # $ .                       ",
"          % & * = # # # .                       ",
"      - ; > , ' ) ! ~ # .                       ",
"      { ] ^ / ( _ : < # .                       ",
"      [ } | 1 2 3 4 5 # 6                       ",
"      7 8 9 0 a b c d # # . e . . . . . .       ",
"      f g h i j k l m n o p . q q q q q r .     ",
"      s t u v w x y z A o B . C D E F G H .     ",
"    I J K L M N O P Q R S T . F F F G U V .     ",
"  W X Y Z `  ...+.@.#.$.%.&.. F F *.=.-.V .     ",
"  ;.>.,.'.).!.~.{.].^.. . . /.F G (.-._.V .     ",
"  :.<.[.}.|.1.2.3.4.5.F F F F 6.7.8._._.V .     ",
"  9.0.a.b.c.d.e.f.g.h.F F F G i.=._.F _.V .     ",
"    j.k.l.l.l.j.m.n.o.G F G (.8.p.8.F _.V .     ",
"      . q C F o.8.F _.-.G U 8._.F q._._.V .     ",
"      . q F p.-.F F F F _._.F F F F q._.V .     ",
"      . q q.-._._._._._._._._._._._._.q.V .     ",
"      . p.r.r.r.r.r.r.r.r.r.r.r.r.r.r.r.o..     ",
"        . . . . . . . . . . . . . . . . . .     ",
"                                                ",
"                                                ",
"                                                "};
