/* XPM */
static char * mail_save_xpm[] = {
"24 24 264 2",
"  	c None",
". 	c #000000",
"+ 	c #141414",
"@ 	c #262626",
"# 	c #212121",
"$ 	c #1F1F1F",
"% 	c #1E1E1E",
"& 	c #1D1D1D",
"* 	c #202020",
"= 	c #232323",
"- 	c #292929",
"; 	c #171717",
"> 	c #121212",
", 	c #B8B8B8",
"' 	c #FFFFFF",
") 	c #A8A8A8",
"! 	c #0E0E0E",
"~ 	c #595959",
"{ 	c #444444",
"] 	c #4F4F4F",
"^ 	c #050505",
"/ 	c #222222",
"( 	c #3D3D3D",
"_ 	c #FEFEFE",
": 	c #FCFCFC",
"< 	c #FDFDFD",
"[ 	c #CACACA",
"} 	c #191919",
"| 	c #B3B1B0",
"1 	c #EEECEB",
"2 	c #F0DCAA",
"3 	c #E5C470",
"4 	c #DFB84F",
"5 	c #8A681F",
"6 	c #100E09",
"7 	c #FBFBFB",
"8 	c #515151",
"9 	c #F0F0F0",
"0 	c #D6D6D6",
"a 	c #EEECE9",
"b 	c #E6D498",
"c 	c #EED682",
"d 	c #EED680",
"e 	c #E3C15E",
"f 	c #D29815",
"g 	c #976E15",
"h 	c #7F5B0A",
"i 	c #1C190F",
"j 	c #D9D9D9",
"k 	c #424242",
"l 	c #F1F1F1",
"m 	c #F3F3F3",
"n 	c #EBE9E5",
"o 	c #CBB771",
"p 	c #735817",
"q 	c #C6A546",
"r 	c #E3C05D",
"s 	c #BC8710",
"t 	c #AD7C10",
"u 	c #6B6B6B",
"v 	c #A0A0A0",
"w 	c #535353",
"x 	c #505050",
"y 	c #AE9C5C",
"z 	c #292928",
"A 	c #CECDCA",
"B 	c #CAC9C7",
"C 	c #1A1917",
"D 	c #9C7E2B",
"E 	c #AB7C12",
"F 	c #242012",
"G 	c #555555",
"H 	c #DEDEDE",
"I 	c #E8E8E8",
"J 	c #3B3B3B",
"K 	c #D7D6D6",
"L 	c #656462",
"M 	c #DAD9D7",
"N 	c #E1E0DF",
"O 	c #1A1A19",
"P 	c #3D351F",
"Q 	c #A37819",
"R 	c #231F13",
"S 	c #282828",
"T 	c #898989",
"U 	c #EFEFEF",
"V 	c #FAFAFA",
"W 	c #E8E7E6",
"X 	c #8B8B8A",
"Y 	c #0B0B06",
"Z 	c #A97C1A",
"` 	c #1B1B1B",
" .	c #C9C9C9",
"..	c #DFDFDF",
"+.	c #EBEBEB",
"@.	c #ECECEC",
"#.	c #E1E1E1",
"$.	c #221E11",
"%.	c #EAE8E3",
"&.	c #C58F13",
"*.	c #B68411",
"=.	c #826321",
"-.	c #302C19",
";.	c #131313",
">.	c #1A1A1A",
",.	c #161616",
"'.	c #151515",
").	c #181818",
"!.	c #1B1B1A",
"~.	c #141413",
"{.	c #363220",
"].	c #916F25",
"^.	c #322F1E",
"/.	c #98B4C8",
"(.	c #25313B",
"_.	c #A9CCE0",
":.	c #545A68",
"<.	c #BC6A60",
"[.	c #AD5A51",
"}.	c #A4574D",
"|.	c #2B2719",
"1.	c #353120",
"2.	c #5A4D51",
"3.	c #6E8DA2",
"4.	c #0C1820",
"5.	c #BAE5FF",
"6.	c #696E6F",
"7.	c #F9F9F9",
"8.	c #EBEBEA",
"9.	c #937025",
"0.	c #CDCAC1",
"a.	c #73726E",
"b.	c #7496AF",
"c.	c #0A131A",
"d.	c #BAE0FD",
"e.	c #6A6E71",
"f.	c #ECEDEC",
"g.	c #DEDFDF",
"h.	c #DBDDDD",
"i.	c #D8DBDB",
"j.	c #CDCFCF",
"k.	c #312E1B",
"l.	c #2F2C19",
"m.	c #B2B3B0",
"n.	c #C0C0BE",
"o.	c #6F6D6B",
"p.	c #7C9FBB",
"q.	c #050F15",
"r.	c #B7DDFC",
"s.	c #54575A",
"t.	c #F4F4F3",
"u.	c #ECECEB",
"v.	c #F3F3F2",
"w.	c #7F7D7A",
"x.	c #7EA0BB",
"y.	c #020A10",
"z.	c #B1D7F7",
"A.	c #FDFCFB",
"B.	c #EFEFEE",
"C.	c #EDEDEC",
"D.	c #EBECEB",
"E.	c #EBECEC",
"F.	c #F7F7F6",
"G.	c #7D7977",
"H.	c #7F9FB9",
"I.	c #050B0E",
"J.	c #B3DDF7",
"K.	c #685050",
"L.	c #847F7C",
"M.	c #7E9DB7",
"N.	c #0A0B0C",
"O.	c #A9D3F0",
"P.	c #7B99AB",
"Q.	c #6B6E70",
"R.	c #63696C",
"S.	c #60666B",
"T.	c #5E6569",
"U.	c #555E67",
"V.	c #5D6267",
"W.	c #61676B",
"X.	c #64696D",
"Y.	c #62666A",
"Z.	c #6B747E",
"`.	c #7D9CB4",
" +	c #000508",
".+	c #A8CBED",
"++	c #7498B7",
"@+	c #6F92B0",
"#+	c #3F5160",
"$+	c #4A5E70",
"%+	c #566E82",
"&+	c #4D6779",
"*+	c #52697C",
"=+	c #52697A",
"-+	c #54687A",
";+	c #455E70",
">+	c #7697B4",
",+	c #92A9BC",
"'+	c #000205",
")+	c #A8CEEB",
"!+	c #7196B3",
"~+	c #4D5152",
"{+	c #D7D2CB",
"]+	c #F1EEEA",
"^+	c #FAF8F5",
"/+	c #F9F8F5",
"(+	c #E8E4DF",
"_+	c #D8D4CD",
":+	c #9D968B",
"<+	c #425563",
"[+	c #446783",
"}+	c #A7C4DA",
"|+	c #000101",
"1+	c #A5CDEA",
"2+	c #7196B1",
"3+	c #57595C",
"4+	c #534F46",
"5+	c #2E281F",
"6+	c #CAC7C2",
"7+	c #C9C4BD",
"8+	c #C2BBB1",
"9+	c #E3E0DC",
"0+	c #314353",
"a+	c #40647C",
"b+	c #B6C9DA",
"c+	c #A3CDEB",
"d+	c #7695B1",
"e+	c #525455",
"f+	c #474239",
"g+	c #3B372D",
"h+	c #C0BCB5",
"i+	c #C7C2BA",
"j+	c #E2DFD9",
"k+	c #F8F6F3",
"l+	c #344652",
"m+	c #406479",
"n+	c #A6C3DA",
"o+	c #010000",
"p+	c #708798",
"q+	c #6A8DA7",
"r+	c #4F5052",
"s+	c #F7F2EC",
"t+	c #59534B",
"u+	c #57524A",
"v+	c #C1BCB4",
"w+	c #EBE9E4",
"x+	c #FFFFFD",
"y+	c #30414E",
"z+	c #415C6F",
"A+	c #A2C4DC",
"B+	c #020000",
"C+	c #030406",
"D+	c #141A1F",
"E+	c #151718",
"F+	c #35332F",
"G+	c #393634",
"H+	c #41403E",
"I+	c #3F3E3D",
"J+	c #454344",
"K+	c #434241",
"L+	c #312F2C",
"M+	c #02070A",
"N+	c #070E12",
"O+	c #465A69",
". + @ # $ % & & & % * = - ; .                   ",
"> , ' ' ' ' ' ' ' ' ' ' ' ) !                   ",
"@ ' ~ ' ' ' ' ' ' ' ' ' { ] ^ . . .             ",
"/ ' ' ( ' _ : < < ' [ } | 1 2 3 4 5 . 6         ",
"* ' ' 7 8 9 < 7 _ 0 @ a b c d d e f g h i       ",
"$ ' ' ' j k l : m $ n o . . . p q r s t i       ",
"* ' ' ' u v w ' x . y z A B C   D d f E F       ",
"/ ' ' G H 7 I J , K > L M N O   P d f Q R       ",
"S ' T U ' ' ' _ V ' < W X Y . . . d f Z . . .   ",
"`  ...U +.+.+.@.@.+.@.+.#.$.%.d d d f &.*.=.-.. ",
". ;.>.; ,.'.'.'.'.'.,.).!.~.{.%.d d f f ].^./.(.",
"                  . _.:.<.[.}.|.%.d f ].1.2.3.4.",
"                  . 5.6.' ' 7.8.-.%.9.^.0.a.b.c.",
"                  . d.e.f.g.h.i.j.k.l.m.n.o.p.q.",
"                  . r.s.' ' ' ' ' ' t.u.v.w.x.y.",
"                  . z.6.A.B.C.D.+.E.C.U F.G.H.I.",
"                  . J.K.' ' ' ' ' ' ' ' ' L.M.N.",
"                  . O.P.Q.R.S.T.U.V.W.X.Y.Z.`. +",
"                  . .+++@+#+$+%+&+*+=+-+;+>+,+'+",
"                  . )+!+~+{+]+^+/+(+_+:+<+[+}+|+",
"                  . 1+2+3+' 4+5+6+7+8+9+0+a+b+. ",
"                  . c+d+e+' f+g+h+i+j+k+l+m+n+o+",
"                  . p+q+r+s+t+u+v+w+x+]+y+z+A+B+",
"                    C+D+E+F+G+H+I+J+K+L+M+N+O+. "};
