/* XPM */
static char * stock_mail_handling_xpm[] = {
"24 24 72 1",
" 	c None",
".	c #000000",
"+	c #BCBCBC",
"@	c #FFFFFF",
"#	c #535353",
"$	c #EEEEEE",
"%	c #4F4F4F",
"&	c #F5F5F5",
"*	c #FBFBFB",
"=	c #F7F7F7",
"-	c #FAFAFA",
";	c #AEAEAE",
">	c #E4E4E4",
",	c #434343",
"'	c #ACACAC",
")	c #C8C8C8",
"!	c #A0A0A0",
"~	c #D4D4D4",
"{	c #959595",
"]	c #3E3E3E",
"^	c #4D4D4D",
"/	c #818181",
"(	c #C6C6C6",
"_	c #6A6A6A",
":	c #636363",
"<	c #B9B9B9",
"[	c #737373",
"}	c #010101",
"|	c #AAAAAA",
"1	c #0B0B0B",
"2	c #0C0C0C",
"3	c #060606",
"4	c #E4E3E1",
"5	c #050505",
"6	c #B3B3B1",
"7	c #484641",
"8	c #9F9D96",
"9	c #888781",
"0	c #7C7C7C",
"a	c #B0AFAD",
"b	c #A8A7A1",
"c	c #908E86",
"d	c #97958E",
"e	c #807D74",
"f	c #969696",
"g	c #090909",
"h	c #595854",
"i	c #605E57",
"j	c #898883",
"k	c #76746B",
"l	c #43423F",
"m	c #282724",
"n	c #363430",
"o	c #6D6B63",
"p	c #E2E2E1",
"q	c #B6B5AF",
"r	c #21201E",
"s	c #0A0908",
"t	c #181816",
"u	c #E6E6E4",
"v	c #65635C",
"w	c #161614",
"x	c #8C8B89",
"y	c #DFDEDC",
"z	c #B0AFA9",
"A	c #D5D4D1",
"B	c #93918B",
"C	c #D6D5D2",
"D	c #ABA9A3",
"E	c #5D5C55",
"F	c #494943",
"G	c #42413C",
"                        ",
"  .................     ",
" .+@@@@@@@@@@@@@@@#.    ",
" .$%&*&*=*&*&*=-&%;.    ",
" .@>,&&&&&&&&&&&%').    ",
" .@&>%&&&&&&&&&,!~).    ",
" .@*&>,&&&&&&&%{~>).    ",
" .@&&&>]&&&&&^/(>>).    ",
" .@*&&&_,&&&%_!>&>).    ",
" .@&&&:<<%&%{([(}}}.    ",
" .@*&:(&>~%'|12:345...  ",
" .@&[~&&&&>>2>62787.9.. ",
" .@0~>>>>>>>1ab888cde7. ",
" .[+++++++++fg88hijek.  ",
"  ...........78ilmn8o7..",
"           .pq8hrstuevi.",
"           ..78jnwxyv7..",
"             .zequABv.  ",
"            .CD8eekkE7. ",
"            ..h.7k7.F.. ",
"             .. .G. ..  ",
"                ...     ",
"                        ",
"                        "};
