/* XPM */
static char * stock_spam_xpm[] = {
"24 24 190 2",
"  	c None",
". 	c #1D1E1E",
"+ 	c #333839",
"@ 	c #393F40",
"# 	c #171819",
"$ 	c #B2B8B9",
"% 	c #D5E3E7",
"& 	c #AABABD",
"* 	c #64696A",
"= 	c #0C0D0D",
"- 	c #929C9E",
"; 	c #E7F0F3",
"> 	c #EDF0F1",
", 	c #E5EDEF",
"' 	c #C5D9DD",
") 	c #2E3132",
"! 	c #3F4343",
"~ 	c #1F2121",
"{ 	c #DFEBEE",
"] 	c #B7C4C8",
"^ 	c #D2D9DA",
"/ 	c #E1EFF2",
"( 	c #B6CBCF",
"_ 	c #3C4547",
": 	c #1E2223",
"< 	c #191E1F",
"[ 	c #2D2E2F",
"} 	c #191A1A",
"| 	c #252829",
"1 	c #7E8E92",
"2 	c #B7C2C3",
"3 	c #C3D9DD",
"4 	c #9CACB0",
"5 	c #C3CDCE",
"6 	c #C7E1E7",
"7 	c #668F97",
"8 	c #90ACB2",
"9 	c #CDDDE1",
"0 	c #485559",
"a 	c #88A6AC",
"b 	c #1F2223",
"c 	c #3F4545",
"d 	c #242728",
"e 	c #313B3E",
"f 	c #A8C2C8",
"g 	c #B2BDC0",
"h 	c #CFE5E9",
"i 	c #C2D9DE",
"j 	c #81989C",
"k 	c #A2C0C5",
"l 	c #85A9B1",
"m 	c #E5ECEE",
"n 	c #E7F2F4",
"o 	c #9BAEB3",
"p 	c #C8E1E7",
"q 	c #3A3E3F",
"r 	c #0C0E0E",
"s 	c #000000",
"t 	c #333737",
"u 	c #B3C2C5",
"v 	c #DDEDF0",
"w 	c #D8E4E6",
"x 	c #DAECEF",
"y 	c #D5E9ED",
"z 	c #D2E7EC",
"A 	c #95ADB2",
"B 	c #DBE2E2",
"C 	c #EDEFF0",
"D 	c #A2B1B3",
"E 	c #8FA4A8",
"F 	c #D7E2E5",
"G 	c #798F94",
"H 	c #151819",
"I 	c #F3B5A7",
"J 	c #865E55",
"K 	c #AFB9BB",
"L 	c #F1F8F9",
"M 	c #F7FBFB",
"N 	c #D9EBEF",
"O 	c #ECF4F6",
"P 	c #F3F7F7",
"Q 	c #E9F2F4",
"R 	c #EEF2F3",
"S 	c #E9EDEE",
"T 	c #C5C8C9",
"U 	c #C2C6C8",
"V 	c #E0E7E7",
"W 	c #DDEAED",
"X 	c #7A9DA5",
"Y 	c #EB8169",
"Z 	c #B83618",
"` 	c #924E3C",
" .	c #9FA5A6",
"..	c #E3EEF0",
"+.	c #ECF5F7",
"@.	c #D6EAED",
"#.	c #CBE4E9",
"$.	c #D9E7E9",
"%.	c #E1EBED",
"&.	c #B8CBD0",
"*.	c #BDCBCF",
"=.	c #ABB3B5",
"-.	c #E3E5E5",
";.	c #DCEBEF",
">.	c #6A979F",
",.	c #131819",
"'.	c #B43518",
").	c #E76A4D",
"!.	c #B53F24",
"~.	c #CB705A",
"{.	c #C4D8DB",
"].	c #D2E6E9",
"^.	c #CAE3E8",
"/.	c #A9C8CF",
"(.	c #7FA4AA",
"_.	c #82B4BE",
":.	c #E2EFF0",
"<.	c #D3E7EA",
"[.	c #AFD5DE",
"}.	c #C7E2E7",
"|.	c #E7F1F2",
"1.	c #97C3CB",
"2.	c #637F86",
"3.	c #191311",
"4.	c #EF9985",
"5.	c #F1A897",
"6.	c #E76547",
"7.	c #C58B7D",
"8.	c #A8ABAC",
"9.	c #70A1AB",
"0.	c #88B5BE",
"a.	c #95C7D1",
"b.	c #ADD4DC",
"c.	c #DCEAEF",
"d.	c #B5D8E0",
"e.	c #CAE4E9",
"f.	c #95BEC6",
"g.	c #6696A0",
"h.	c #585857",
"i.	c #51190C",
"j.	c #D9401D",
"k.	c #EC8A74",
"l.	c #E17055",
"m.	c #DD8D7A",
"n.	c #D8E7EA",
"o.	c #D8E9ED",
"p.	c #D6EAEE",
"q.	c #D9EBEE",
"r.	c #E4F0F3",
"s.	c #CFE3E8",
"t.	c #5B94A0",
"u.	c #5C7E85",
"v.	c #3D221D",
"w.	c #782310",
"x.	c #EA7A60",
"y.	c #E5A293",
"z.	c #EBD9D5",
"A.	c #C6D3D6",
"B.	c #799FA8",
"C.	c #558C98",
"D.	c #45686E",
"E.	c #27201F",
"F.	c #5D3228",
"G.	c #B86F5D",
"H.	c #F1A593",
"I.	c #E58D78",
"J.	c #C0C0C1",
"K.	c #32464B",
"L.	c #4A6E75",
"M.	c #282121",
"N.	c #4A2E27",
"O.	c #C6968B",
"P.	c #DDA89B",
"Q.	c #5F1C0D",
"R.	c #F2AFA0",
"S.	c #A36F63",
"T.	c #341C17",
"U.	c #301A15",
"V.	c #674C45",
"W.	c #E4AEA1",
"X.	c #8D2A13",
"Y.	c #030505",
"Z.	c #A2432E",
"`.	c #E4A799",
" +	c #D97C67",
".+	c #B66A59",
"++	c #B26C5C",
"@+	c #882812",
"#+	c #DB411D",
"$+	c #F4BAAC",
"                                                ",
"                                                ",
"                                                ",
"                                                ",
"              . + @                             ",
"            # $ % & * .                         ",
"            = - ; > , ' ) !                     ",
"              ~ { ] ^ / ( _ : < [ }             ",
"            | 1 2 3 4 5 6 7 8 9 0 a b           ",
"        c d e f g h i j k l m n o p q r         ",
"      s t u v w / x y z A B C D E F G H         ",
"  s s I J K L M N O P Q R S T U V W X <         ",
"s I Y Z `  ...+.@.#.$.%.h &.*.=.-.;.>.,.s       ",
"s '.).Y !.~.{.].^./.(._.:.<.[.}.|.1.2.3.4.s     ",
"s '.'.'.).5.6.7.8.9.0.a.b.c.d.e.f.g.h.i.j.k.s   ",
"s '.'.'.'.'.).5.l.m.n.o.p.q.r.s.t.u.v.w.j.x.s   ",
"  s s '.'.'.'.'.).5.6.y.z.A.B.C.D.E.F.G.H.4.s   ",
"      s s '.'.'.'.'.).5.I.J.K.L.M.N.O.P.Q.s     ",
"          s s '.'.'.'.'.R.S.T.U.V.W.X.s s       ",
"            Y.s s Z.'.'.`. +.+++@+s s           ",
"                s s s '.#+$+s s s               ",
"                    s s s s s                   ",
"                                                ",
"                                                "};
