/* XPM */
static char *back_arrow_xpm[] = {
"24 24 6 1",
"  c #000000",
". c #000100",
"X c #6B6B66",
"o c #87AF85",
"O c #FFFFFF",
"+ c None",
"++++++++++++++++++++++++",
"++++++++++++++++++++++++",
"++++++++++++++++++++++++",
"++++++++++ +++++++++++++",
"+++++++++ .+++++++++++++",
"++++++++ O.+++++++++++++",
"+++++++ Oo .  ++++++++++",
"++++++ Ooooooo +++++++++",
"+++++ Ooooooooo ++++++++",
"++++ ooooooooooo.+++++++",
"+++++ oooooooooo..++++++",
"++++++.oooooooooo.++++++",
"+++++++.oo.. oooo.++++++",
"++++++++.o.+  ooo.++++++",
"+++++++++..++..oo.++++++",
"++++++++++.+++.oo.++++++",
"++++++++++++++.oo.++++++",
"++++++++++++++.o.+++++++",
"+++++++++++++.oX.+++++++",
"++++++++++++.oo.++++++++",
"+++++++++++++..+++++++++",
"++++++++++++++++++++++++",
"++++++++++++++++++++++++",
"++++++++++++++++++++++++"};
