/* XPM */
static char * copy_xpm[] = {
"24 24 6 1",
" 	c None",
".	c #000100",
"+	c #BBBDBA",
"@	c #FFFFFF",
"#	c #6B6B66",
"$	c #504D46",
"                        ",
"                        ",
"                        ",
".............           ",
".+@@@@@@@@@@+.          ",
".@@@@@@@@@@@@.          ",
".@+###@+#@#+@.          ",
".@@@@@@@@@@@@.          ",
".@#$@##+@............   ",
".@@@@@@@.+@@@@@@@@@@+.  ",
".@+##@##.@@@@@@@@@@@@.  ",
".@@@@@@@.@+##+@+#@#+@.  ",
".@#$$@##.@@@@@@@@@@@@.  ",
".@@@@@@@.@##@##+@+#@@.  ",
".@+##@##.@@@@@@@@@@@@.  ",
".@@@@@@@.@+##@##+@+#@.  ",
".+@@@@@@.@@@@@@@@@@@@.  ",
" ........@###@##+@+#@.  ",
"        .@@@@@@@@@@@@.  ",
"        .@+##@##+@+#@.  ",
"        .@@@@@@@@@@@@.  ",
"        .+@@@@@@@@@@+.  ",
"        ..............  ",
"                        "};
