/* XPM */
static char * cut2_xpm[] = {
"24 24 7 1",
" 	c None",
".	c #000100",
"+	c #BBBDBA",
"@	c #FFFFFF",
"#	c #6B6B66",
"$	c #504D46",
"%	c #3E4850",
"                        ",
"                        ",
"      .        .        ",
"      .        .        ",
"     .+.      .@.       ",
"     .@$      #@.       ",
"     .@#.    .@+.       ",
"     .@+$    #@+.       ",
"      #@#.  .@+$        ",
"      .@+$  $@+.        ",
"       #@#.%@+#         ",
"       .@+$#++.         ",
"        .@+$+.          ",
"         .++..          ",
"         ..#$.          ",
"     .............      ",
"     . ...  ... ...     ",
"    ..  ..   ..  ..     ",
"    .    .   .    .     ",
"    ..  ..   ..  ..     ",
"     ....     .. .      ",
"     ....     ....      ",
"                        ",
"                        "};
