/* XPM */
static char *fwd_arrow_xpm[] = {
"24 24 5 1",
"  c #000000",
". c #000100",
"X c #87AF85",
"o c #FFFFFF",
"O c None",
"OOOOOOOOOOOOOOOOOOOOOOOO",
"OOOOOOOOOOOOOOOOOOOOOOOO",
"OOOOOOOOOOOOOOOOOOOOOOOO",
"OOOOOOOOOOOOO OOOOOOOOOO",
"OOOOOOOOOOOOO  OOOOOOOOO",
"OOOOOOOOOOOOO X OOOOOOOO",
"OOOOOOOOOO  . XX.OOOOOOO",
"OOOOOOOOO oXXXXXX.OOOOOO",
"OOOOOOOO.oXXXXXXXX.OOOOO",
"OOOOOOO.oXXXXXXXXXX.OOOO",
"OOOOOO..XXXXXXXXXX.OOOOO",
"OOOOOO.XXXXXXXXXX.OOOOOO",
"OOOOOO.XXXX.  XX.OOOOOOO",
"OOOOOO.XXX..O X OOOOOOOO",
"OOOOOO.XX..OO. OOOOOOOOO",
"OOOOOO.XX.OOO.OOOOOOOOOO",
"OOOOOO.XX.OOOOOOOOOOOOOO",
"OOOOOOO.X.OOOOOOOOOOOOOO",
"OOOOOOO.XX.OOOOOOOOOOOOO",
"OOOOOOOO.XX.OOOOOOOOOOOO",
"OOOOOOOOO..OOOOOOOOOOOOO",
"OOOOOOOOOOOOOOOOOOOOOOOO",
"OOOOOOOOOOOOOOOOOOOOOOOO",
"OOOOOOOOOOOOOOOOOOOOOOOO"};
