/* XPM */
static char * help2_xpm[] = {
"24 24 12 1",
" 	c None",
".	c #000100",
"+	c #FFFFFF",
"@	c #BBBDBA",
"#	c #C43107",
"$	c #EBA291",
"%	c #D15237",
"&	c #504D46",
"*	c #751805",
"=	c #6B6B66",
"-	c #974F3D",
";	c #3E4850",
"  ..    &....&          ",
" ....&.;@++++@..&....   ",
"..  &.+++++++++@..  ..  ",
" . .%$+++++++++@#*.  .  ",
" ..%$$%+@@@++++###*...  ",
" -.$$%%$@@@@@+$####..   ",
" .$$$%#*.....=#%####.   ",
" =+$%#*..    .*#$##$..  ",
"&++@%#..      .*$$+@..  ",
".++@@-.        *$++@&.  ",
".++@@@.        .+++@=.  ",
".++@@@.        .++@@&.  ",
".+++@@.        =++@@..  ",
"&@++@@-.      .$++@@..  ",
" .+++$%*.    .-$$@@=..  ",
" .@$%%$%*...&$$$%#$..   ",
" &.###%$$++++$$###...   ",
" ..*####$++++$###*...   ",
" . .*###+++@@@%#... .   ",
" .  ..#@@@@@@@&...  .   ",
"  .......&&&.....  ..   ",
"       ........ ....    ",
"                        ",
"                        "};
