/* XPM */
static char * home2_xpm[] = {
"24 24 11 1",
" 	c None",
".	c #000100",
"+	c #BBBDBA",
"@	c #FFFFFF",
"#	c #6B6B66",
"$	c #504D46",
"%	c #974F3D",
"&	c #EBA291",
"*	c #87AF85",
"=	c #3E4850",
"-	c #D15237",
"                        ",
"           ..           ",
"     .... ..=.          ",
"     .%%..===..         ",
"     .%%..$$#$..        ",
"     .%..=+#++$..       ",
"     ...$#+#++@$..      ",
"     ..$+#++@+@+#..     ",
"    ..#+++@+@+@+@#..    ",
"   ..+++@+@+@+@+@+#..   ",
"  ..+++++++++.....##..  ",
" ....@@@@@@@@.++@.#.... ",
"    .+@.....@.+@@.#.    ",
"    .+@.&&%.@.+@@.#.    ",
"    .#@.&-%.@.....#.    ",
"    ..@.&-..++####..    ",
"    ..@.&-%.@@@@@+.     ",
"     .+.&%%.+++++#.     ",
"     .+.-%%.@@@@@#.     ",
" .................... . ",
"    .****##$$$.**#$#$.  ",
"  .. ......... ......   ",
"        ...             ",
"                        "};
