/* XPM */
static char * jump_to2_xpm[] = {
"24 24 8 1",
" 	c None",
".	c #D3B354",
"+	c #000100",
"@	c #87AF85",
"#	c #974F3D",
"$	c #FFFFFF",
"%	c #D15237",
"&	c #BBBDBA",
"                        ",
"                        ",
"      +                 ",
"      ++                ",
"      +@+   ++++++      ",
" ++++++@@+ +.#..%#++    ",
" +$$$$$@@@+........++   ",
" +&@@@@@@@@+........+   ",
" +&@@@@@@@@@+.......#+  ",
" +@@@@@@@@@@@+......%+  ",
" +@@@@@@@@@@+........+  ",
" +@@@@@@@@@+.........+  ",
" +@@@@@@@@+#........#+  ",
" ++++++@@+#..........+  ",
"      +@++#.........+   ",
"      ++ ++........++   ",
"      +    +.%..#.++    ",
"            ++++++      ",
"                        ",
"                        ",
"                        ",
"                        ",
"                        ",
"                        "};
