/* XPM */
static char * left_arrow2_xpm[] = {
"24 24 7 1",
" 	c None",
".	c #87AF85",
"+	c #000100",
"@	c #BBBDBA",
"#	c #504D46",
"$	c #6B6B66",
"%	c #3E4850",
"                        ",
"                        ",
"                        ",
"            +           ",
"           ++           ",
"          +@+           ",
"         +@@+           ",
"        +@@@++++++++    ",
"       +@@@@@@@@@@.+    ",
"      +@.@@@@...@.$+    ",
"     %@.@@@..@@@@..+    ",
"    +@............$+    ",
"     +#...........#+    ",
"      +#..........#+    ",
"       +#..########+    ",
"        +#.#++++++++    ",
"         +##+           ",
"          +#+           ",
"           ++           ",
"            +           ",
"                        ",
"                        ",
"                        ",
"                        "};
