/* XPM */
static char * open2_xpm[] = {
"24 24 8 1",
" 	c None",
".	c #BBBDBA",
"+	c #000100",
"@	c #87AF85",
"#	c #FFFFFF",
"$	c #6B6B66",
"%	c #504D46",
"&	c #3E4850",
"                        ",
"                        ",
"                        ",
"  +++++++               ",
" +.#####$%              ",
" +#.....@%              ",
"+.#......%+             ",
"+..@@@...$%++++++++     ",
"+.@@@@@..@@........+    ",
"+.@@@@@@@@@@@@@@@@$+    ",
"+.$$++++++++++++++++++  ",
"+.$%################..& ",
"+.$+#.................+ ",
"+.%.#...............@$+ ",
"+.+#...............@@%+ ",
"+.$#............@@.@$+  ",
"+....@@@@@.....@@@@$%+  ",
"+.#..@@@@@@@@@@@@$$$+   ",
"+#.@@@@$$$$$$$$$$$$%+   ",
" +++++++++++++++++++    ",
"                        ",
"                        ",
"                        ",
"                        "};
