/* XPM */
static char * paste2_xpm[] = {
"24 24 8 1",
" 	c None",
".	c #FFFFFF",
"+	c #BBBDBA",
"@	c #000100",
"#	c #6B6B66",
"$	c #504D46",
"%	c #D3B354",
"&	c #974F3D",
"       @@@@             ",
" @@@@@@+..#@@@@@@       ",
"@.....$.++#$+...+@      ",
"@.++++$.##+$#+++%@      ",
"@.+++$..+++#$#++%@      ",
"@.++$++++++#$$++%@      ",
"@.++#$$$$$$$$#++%@      ",
"@.+++########+++%@      ",
"@.+++++#$@@@@@$$@@@@@   ",
"@.+++++$+...........+@  ",
"@.+++++$.............@  ",
"@.+++++@.+##+..+#.#+.@  ",
"@.+++++@.............@  ",
"@.+++++$.##.###+.+#..@  ",
"@.+++++$.............@  ",
"@.+++++$.+##.###+.+#.@  ",
"@.+++++@.............@  ",
"@.+++++@.##.###+.+#..@  ",
"@.+++++$.............@  ",
"@.+++++$.+##.###+.+#.@  ",
"@+%%%%&@.............@  ",
" @@@@@@@+...........+@  ",
"        @@@@@@@@@@@@@   ",
"                        "};
