/* XPM */
static char * prev_node_xpm[] = {
"24 24 7 1",
" 	c None",
".	c #BBBDBA",
"+	c #000000",
"@	c #FFFFFF",
"#	c #87AF85",
"$	c #504D46",
"%	c #000100",
"    ++++++++++++++++++  ",
"   %@.@@@@@@@@@@@@@@.+  ",
"  %@@#.@@@@@@@@@@@@@.+  ",
" +..##.@@@@@@@@@.+...+  ",
" +#....@@@@@@@@.++...+  ",
" +.@@@@@@@@@...+.+...+  ",
" +.@@@@@@@@@@.+.#+...+  ",
" +@@@@@@@@...+.##+++++++",
" +@@@@@@@...+.##......#+",
" +@@@@@@@..+@####.#####+",
" +@.@.....+...........#+",
" +@.@.....+###########$+",
" +@........+##########$+",
" +@........#+#####$$$$$+",
" +@.........#+##$+++++++",
" +@..........#+#$+###+  ",
" +@...........#+$+#..+  ",
" +@............#++...+  ",
" +@.............#+...+  ",
" +@..................+  ",
" +@..................+  ",
" +++++++++++++++++++++  ",
"                        ",
"                        "};
