/* XPM */
static char * saveas2_xpm[] = {
"24 24 13 1",
" 	c None",
".	c #000100",
"+	c #BBBDBA",
"@	c #7A98B0",
"#	c #FFFFFF",
"$	c #6B6B66",
"%	c #3E4850",
"&	c #B0CCE2",
"*	c #4D687C",
"=	c #EBA291",
"-	c #504D46",
";	c #D3B354",
">	c #974F3D",
"                ..      ",
"               .;;.     ",
"  .............;;-...   ",
" .&&$========.;;-.%@@.  ",
" .&@$=======.;;-.>-@*.  ",
" .&@$======.;;-.>>%@*.  ",
" .&@$#####.;;-.++#$@*.  ",
" .&@$####.;;-.++##$@*.  ",
" .&@$+++.;;-.+++++$@*.  ",
" .&@$###.;-.++####$@*.  ",
" .&@$##.-..++#####$@*.  ",
" .&@$++..+++++++++$@$.  ",
" .&@$###++########$@%.  ",
" .&@@$$$$$$$$$$$$$$@%.  ",
" .&@@@@@@@@@@@@@@@@@%.  ",
" .&@@@%%%**$$$$%%%@&%.  ",
" .&@@%++####++++$**&%.  ",
" .&@@%+#$--+++++%**&%.  ",
" .&@@%##$--+++++%**&%.  ",
" .&@@%##---+++##%**&%.  ",
" .@@@%++---++###%**&%.  ",
"  .**%++++++##++%**&%.  ",
"   ................%.   ",
"                        "};
