/* XPM */
static char * search2_xpm[] = {
"24 24 6 1",
" 	c None",
".	c #FFFFFF",
"+	c #BBBDBA",
"@	c #000100",
"#	c #6B6B66",
"$	c #504D46",
"                        ",
"   @@@@@@@@@@@@@        ",
"  @+..........+$@       ",
"  @...........+++@      ",
"  @...........+..+@     ",
"  @...........+...#@    ",
"  @...........+...++@   ",
"  @....+$@@$+.+@@@@@@@  ",
"  @...+$+++#$+.++++##@  ",
"  @...$+..++#$..++++#@  ",
"  @...@+.++++@+...++#@  ",
"  @...@++++++@++...+#@  ",
"  @...$#+++++$++....#@  ",
"  @...+$#+++@@++....+@  ",
"  @...+#$@@$#@@+....+@  ",
"  @....++++++@@@+++++@  ",
"  @....++++++#@@@++++@  ",
"  @.....++++++#@@@+++@  ",
"  @..........++#@@+++@  ",
"  @..........++++++++@  ",
"  @+...+.+.+.++++++++@  ",
"  @+++++++++++++#####@  ",
"   @@@@@@@@@@@@@@@@@@   ",
"                        "};
