/* XPM */
static char * spell2_xpm[] = {
"24 24 8 1",
" 	c None",
".	c #000100",
"+	c #87AF85",
"@	c #504D46",
"#	c #BBBDBA",
"$	c #6B6B66",
"%	c #3E4850",
"&	c #FFFFFF",
"                        ",
"                        ",
"                        ",
"                        ",
"  ...  ....   ...       ",
" ..  . ..  . ..  .      ",
" ..  . ....  ..         ",
" ..... ..  . ..         ",
" ..  . ..  . ..  .   .  ",
" ..  . ....   ...   ... ",
"                   .+.  ",
"         ..       .+@   ",
"         .+.     .++.   ",
"          @+.   %#+.    ",
"          .++. .#+$.    ",
"           .++.&++.     ",
"           .+++++$.     ",
"            .++++.      ",
"            .+++@.      ",
"             .++.       ",
"             .+@.       ",
"              ..        ",
"                        ",
"                        "};
