/* XPM */
static char * undo2_xpm[] = {
"24 24 5 1",
" 	c None",
".	c #D3B354",
"+	c #000100",
"@	c #FFFFFF",
"#	c #6B6B66",
"                        ",
"                        ",
"                        ",
"          +             ",
"         ++             ",
"        +@+             ",
"       +@.++++          ",
"      +@......+         ",
"     +@........+        ",
"    +...........+       ",
"     +..........++      ",
"      +..........+      ",
"       +..+++....+      ",
"        +.+ ++...+      ",
"         ++  ++..+      ",
"          +   +..+      ",
"              +..+      ",
"              +.+       ",
"             +.#+       ",
"            +..+        ",
"             ++         ",
"                        ",
"                        ",
"                        "};
