/* XPM */
static char * up_arrow2_xpm[] = {
"24 24 8 1",
" 	c None",
".	c #87AF85",
"+	c #000100",
"@	c #504D46",
"#	c #6B6B66",
"$	c #BBBDBA",
"%	c #FFFFFF",
"&	c #3E4850",
"                        ",
"                        ",
"           +            ",
"          &$+           ",
"         +%.@+          ",
"        +%...@+         ",
"       +%.....@+        ",
"      +%......#@+       ",
"     +%.......##@+      ",
"    +%$$.....#@@@@+     ",
"   +++++$.....@+++++    ",
"       +$....#@+        ",
"       +$....#@+        ",
"       +$...##@+        ",
"       +$...##@+        ",
"       +$...##@+        ",
"       +...#@@@+        ",
"       +++++++++        ",
"                        ",
"                        ",
"                        ",
"                        ",
"                        ",
"                        "};
