/* XPM */
static char * up_node_xpm[] = {
"24 24 8 1",
" 	c None",
".	c #FFFFFF",
"+	c #BBBDBA",
"@	c #000000",
"#	c #87AF85",
"$	c #504D46",
"%	c #6B6B66",
"&	c #000100",
"  @@@@@@@@@@@@@@@@@@    ",
"  @...............++@   ",
"  @...............+.+@  ",
"  @...............+#%&@ ",
"  @...............+#%&@ ",
"  @.................++@ ",
"  @............+++++++@ ",
"  @.............++++++@ ",
"  @............+++++++@ ",
"  @.....++++#+++++++++@ ",
"  @...+.+++@@##+++++++@ ",
"  @....+++@#$@%+++++++@ ",
"  @...+++@###$@##+++++@ ",
"  @...++@##+##$@%+++++@ ",
"  @..++@###+###$@##+++@ ",
"  @..+@####+####$@#+++@ ",
"  @.+@#+++#+#####$@+++@ ",
"  @.%@@@@+++###@@@@@++@ ",
"  @....+@+#+###@#+++++@ ",
"  @....+@+#+###@++++++@ ",
"  @.....@+#+###@++..++@ ",
"  @@@@@@@+#+###@@@@@@@@ ",
"        @+++###@        ",
"        @@@@@@@@        "};
