/* XPM */
static char * dead_xpm[] = {
"13 14 3 1",
" 	c None",
".	c #000000",
"+	c #FFDD00",
"   .......   ",
"  ..+++++..  ",
" .+++++++++. ",
".+++++++++++.",
".++.+.+.+.++.",
".+++.+++.+++.",
".++.+.+.+.++.",
".+++++++++++.",
".+++++++++++.",
".+.+++++++.+.",
".++.......++.",
" .+++++++++. ",
"  ..+++++..  ",
"   .......   "};
