/* XPM */
static char * grin_xpm[] = {
"13 14 4 1",
" 	c None",
".	c #000000",
"+	c #FFDD00",
"@	c #FFFFFF",
"   .......   ",
"  ..+++++..  ",
" .+++++++++. ",
".+++++++++++.",
".++..+++..++.",
".++..+++..++.",
".+++++++++++.",
".+.........+.",
".+.@@@@@@@.+.",
".++.@@@@@.++.",
".+++.....+++.",
" .+++++++++. ",
"  ..+++++..  ",
"   .......   "};
