/* XPM */
static char * smile_xpm[] = {
"13 14 3 1",
" 	c None",
".	c #000000",
"+	c #FFDD00",
"   .......   ",
"  ..+++++..  ",
" .+++++++++. ",
".+++++++++++.",
".++..+++..++.",
".++..+++..++.",
".+++++++++++.",
".+++++++++++.",
".++.+++++.++.",
".++.+++++.++.",
".+++.....+++.",
" .+++++++++. ",
"  ..+++++..  ",
"   .......   "};
