/* XPM */
static char * empty_xpm[] = {
"16 22 10 1",
" 	c None",
".	c #424242",
"+	c #A5A5A5",
"@	c #9C9C9C",
"#	c #949494",
"$	c #8C8C8C",
"%	c #6B6B6B",
"&	c #737373",
"*	c #7B7B7B",
"=	c #848484",
"                ",
"                ",
"                ",
"                ",
"                ",
"                ",
" ....           ",
".+++@.....      ",
".++@@@##$$.     ",
".+@..........   ",
".@.%%%&&&**==.  ",
".@.%%&&&**==.   ",
"..%%&&&**===.   ",
"..%&&&**===.    ",
".%&&&**===$.    ",
"...........     ",
"                ",
"                ",
"                ",
"                ",
"                ",
"                "};
