/* XPM */
static char * open_xpm[] = {
"16 22 14 1",
" 	c None",
".	c #848400",
"+	c #D6D67B",
"@	c #CECE7B",
"#	c #CECE73",
"$	c #C6C66B",
"%	c #BDBD5A",
"&	c #BDBD52",
"*	c #ADAD39",
"=	c #ADAD42",
"-	c #B5B54A",
";	c #C6C663",
">	c #CECE6B",
",	c #A5A5C6",
"                ",
"                ",
"                ",
"                ",
"                ",
"                ",
" ....           ",
".+@@#.....      ",
".@@##$$%%&.     ",
".@#..........   ",
".#.*==--&%%;;.  ",
".#.==--&%%;;.   ",
"..==--&%%;;$.   ",
"..=--&%%;;$.    ",
".=--&%%;;$>.    ",
"...........     ",
"                ",
"     ,          ",
"                ",
"     ,          ",
"                ",
"     ,          "};
