/* XPM */
static char * sb_obj_xpm[] = {
"15 15 2 1",
" 	c None",
".	c #000CFF",
" ..  .  ..  .  ",
".  . . .  . .  ",
".  . . .  . .  ",
".  . . .  . .  ",
" ..  .  ..  .  ",
"               ",
".  ..  .  ..   ",
". .  . . .  .  ",
". .  . . .  .  ",
". .  . . .  .  ",
".  ..  .  ..   ",
"               ",
" ..  .  ..  .  ",
".  . . .  . .  ",
".  . . .  . .  "};
