/* XPM */
static char * sb_objod_xpm[] = {
"15 15 3 1",
" 	c None",
".	c #000CFF",
"+	c #FFFA00",
" ..  .  ..  .  ",
".  .++ .  . .  ",
".  .++ .  . .  ",
".  . ++.  . .  ",
" ..  ++ ..  .  ",
"     ++        ",
".  ..++.  ..   ",
". .  .++ .  .  ",
". .  .++ .  .  ",
". .  .++ .  .  ",
".  ..  .  ..   ",
"       ++      ",
" ..  . ++.  .  ",
".  . . .  . .  ",
".  . . .  . .  "};
