/* XPM */
static char * sb_box_minus_xpm[] = {
"20 15 4 1",
" 	c None",
".	c #000000",
"+	c #828282",
"@	c #D19200",
"...+           +..+ ",
".@@.+          +.@.+",
"+.@@.+        +.@@@.",
"+.@@@.+++++++++.@@..",
" +..@............@.+",
" +.@..@@@@@@@@@@@..+",
" +.@@..............+",
" +.@@.@@@@@@@@@@@@.+",
" +.@@.@@@@@@@@@@@@.+",
" +.@@.@@@......@@@.+",
" +.@@.@@@......@@@.+",
"  +.@.@@@@@@@@@@@@.+",
"   +..@@@@@@@@@@@@.+",
"    +..............+",
"     ++++++++++++++ "};
