/* XPM */
static char * sb_box_plus_xpm[] = {
"20 15 4 1",
" 	c None",
".	c #828282",
"+	c #000000",
"@	c #D19200",
"                    ",
"  ..............    ",
" .++++++++++++++.   ",
" .++@@@@@@+@@@@@+.  ",
" .+@+@@@@@@+@@@@@+. ",
" .+@@++++++++++++++.",
" .+@@+@@@@@@@@@@@@+.",
" .+@@+@@@@@++@@@@@+.",
" .+@@+@@@@@++@@@@@+.",
" .+@@+@@@++++++@@@+.",
" .+@@+@@@++++++@@@+.",
"  .+@+@@@@@++@@@@@+.",
"   .++@@@@@++@@@@@+.",
"    .++++++++++++++.",
"     .............. "};
