/* XPM */
static char * sb_chk_xpm[] = {
"15 15 2 1",
" 	c None",
".	c #FF0000",
"               ",
" . .  ..       ",
" . . .         ",
" . . .       . ",
"  .   ..    .  ",
"           ..  ",
"          ..   ",
" ...     ..    ",
" ...    ..     ",
" ....  ..      ",
"  ... ..       ",
"   ....        ",
"    ...        ",
"     .         ",
"               "};
