/* XPM */
static char * sb_dir_plus_xpm[] = {
"20 15 5 1",
" 	c None",
".	c #828282",
"+	c #000000",
"@	c #DBDB00",
"#	c #FFF993",
" .......            ",
".+++++++.           ",
".+@@@@@@+.......... ",
".+@@@@@@@++++++++++.",
".+@@@@@@@@@@@@@@@@+.",
".+#######++#####@@+.",
".+#######++######@+.",
".+#####++++++####@+.",
".+#####++++++####@+.",
".+#######++######@+.",
".+#######++######@+.",
".+###############@+.",
".+###############@+.",
".++++++++++++++++++.",
" .................. "};
