/* XPM */
static char * sb_doc_plus_xpm[] = {
"15 15 5 1",
" 	c None",
".	c #828282",
"+	c #000000",
"@	c #5A818B",
"#	c #FFFFFF",
"      .......  ",
"     .+++++++. ",
"    .+@@@@@@+. ",
"   .+@@#@@@+#. ",
"   .+@@#@@@+#+.",
"  .+@#####+##+.",
" .+@@@@#@@+#+. ",
" .+@@@@#@+##+. ",
".++++@@@@+#+.  ",
".+###++++##+.  ",
".+########+.   ",
".++#######+.   ",
" ..++++##+.    ",
"   ....+++.    ",
"       ...     "};
