/* XPM */
static char * sb_info_xpm[] = {
"10 15 4 1",
" 	c None",
".	c #BEBEBE",
"+	c #0000FF",
"@	c #FFFFFF",
"    ..    ",
"  ..+++.  ",
" .+++@++. ",
" .+++++++ ",
" .+++++++ ",
".++@@@++++",
".++++@++++",
".++++@++++",
".++++@++++",
" .+++@++++",
" .+++@+++ ",
" .+@@@@@+ ",
" .+++++++ ",
"  .+++++  ",
"    ++    "};
