/* XPM */
static char * key_xpm[] = {
"16 16 4 1",
" 	c None",
".	c #828282",
"+	c #000000",
"@	c #FFF993",
"    ........    ",
"   ..++++++..   ",
"   .+@@@@@@+.   ",
"   .+@@++@@+.   ",
"   .+@@@@@@+.   ",
"   .+@@@@@@+.   ",
"   .+@@@@@@+.   ",
"    .+@@@@+.    ",
"     .+@@+.     ",
"     .+@@@+.    ",
"     .+@@+.     ",
"     .+@@+.     ",
"     .+@@@+.    ",
"     .+@@+.     ",
"      .++.      ",
"       ..       "};
