/* XPM */
static char * unlock_xpm[] = {
"16 16 4 1",
" 	c None",
".	c #828282",
"+	c #000000",
"@	c #FFF993",
" .......        ",
"..+++++..       ",
".++...++.       ",
".+.....+.       ",
".+.....+........",
"....++++++++++..",
"  .++@@@@@@@@++.",
"  .+@@@@@@@@@@+.",
"  .+@@@@@@@@@@+.",
"  .+@@@++++@@@+.",
"  .+@@@@++@@@@+.",
"  .+@@@@@@@@@@+.",
"  .+@@@@++@@@@+.",
"  .+@@@@@@@@@@+.",
"  .++++++++++++.",
"  .............."};
