/* XPM */
static char * describe_group_xpm[] = {
"24 24 5 1",
".	c None",
" 	c #000000000000",
"o	c #FFFFF5F5ACAC",
"+	c #E1E1E0E0E0E0",
"@	c #C7C7C6C6C6C6",
"........................",
"........................",
".................oooo...",
" .. .. .. .. .. oo oo o.",
"..............oooooooooo",
".............ooooooooooo",
" .. .. .. .. oo oo oo oo",
"............oooooooooooo",
"............oooooooooooo",
" .. .. .. .. oo oo oo oo",
"............oooooooooooo",
"............oooooooooooo",
" .. .. .. .. oo oo oo oo",
"............oooooooooooo",
".....    ...oooooooooooo",
" ..   ++  .. .o oo oo oo",
"...  @@@+  ....ooooooooo",
"...     @  ....oooooooo.",
" .         . .. .. .. ..",
".         ..............",
"        ................",
"       .. .. .. .. .. ..",
"      ..................",
"    ...................."};
