/* XPM */
static char * exit_gnus_xpm[] = {
"24 24 6 1",
" 	c None",
".	c #8686ADAD7D7D",
"X	c #919187876969",
"o	c #C2C2B9B99C9C",
"O	c #A8A8F0F0ECEC",
"+	c #EFEFEFEFEFEF",
"                        ",
"     ....  .            ",
"        .. .. .         ",
"  .............         ",
"   . . . ....           ",
"     .............      ",
"  .............. ..     ",
"  . . ..........  .     ",
"      .XXXX... ..       ",
"       o.XXX. . ..      ",
"      oo.X. ..  ...     ",
"     ooX. . ...         ",
"     oXo.     ..        ",
"    ooX      . .        ",
"    ooX                 ",
"OOOOoXXOOOOOOOOOOOOOOOOO",
"OOOoXoXOOOOOOOOOOOOOOOOO",
"OOOooXXOOOO+OOOOOOOOOOOO",
"O+OoooXOO+OOO+OO+OOO+OOO",
"OXXoXoXoXOO++O++OO++OO+O",
"XXXXXXXXXXXX+OOOOOOOOOOO",
"XXXXXXXXXXXXXX+O++OO++OO",
"XXXXXXXXXXXXXXXXOOOOOOOO",
"O++O++++O+OO++OOOO++OOO+"};
