/* XPM */
static char * exit_summ_xpm[] = {
"24 24 3 1",
".	c None",
" 	c #000000000000",
"X	c #E1E1E0E0E0E0",
" .. .. .. .. .. .. .. ..",
"........................",
"........................",
" .. ..             .. ..",
"......  XXXX       .....",
"......  XXXXXXX    .....",
" .. .. XX XX XX    .. ..",
"...... XXXXXXXX    .....",
"......  XXXXXXX    .....",
" .. ..  X XX       .. ..",
"......  XXXX       .....",
"......  XXXX       .....",
" .. ..  X XXXXX    .. ..",
"......  XXXXXXX    .....",
"...... XXXXX XX    .....",
" .. ..  X XXXXX    .. ..",
"......  XXXXX      .....",
"......  X          .....",
" .. . .            .. ..",
"........................",
"........................",
" .. .. .. .. .. .. .. ..",
"........................",
"........................"};
