/* XPM */
static char * followup_xpm[] = {
"24 24 4 1",
" 	c None",
".	c #A5A5A5A59595",
"X	c #C7C7C6C6C6C6",
"o	c #E1E1E0E0E0E0",
"                        ",
"          .             ",
"        ..X.            ",
"      ..XXX.            ",
"    ..XXXXXo.           ",
" ...XXXXXXooo.  .       ",
" .o.XXXXXooooo..X.      ",
" .oo.XXXoooo..XXX.      ",
" .oo..Xooo..XXXXXo.     ",
" .oo.XX...XXXXXXooo.    ",
" .o.Xoo.o.XXXXXoooo.    ",
"  .XXoo.oo.XXXoooooo.   ",
"  .Xooo.oo..XXooooooo.  ",
"   .ooo.oo.XXooooooooo. ",
"   .ooo.o.XoooooooooooX.",
"    .ooo.XXoooooooooooo.",
"    .ooo.Xoooooooooooo. ",
"     .ooo.ooooooooooo.  ",
"     .oo..oooooooooo.   ",
"      ..  .ooooooo..    ",
"          .oooooo.      ",
"           .ooo..       ",
"           .oo.         ",
"            ..          "};
