/* XPM */
static char * fuwo_xpm[] = {
"24 24 4 1",
" 	c None",
".	c #A5A5A5A59595",
"X	c #C7C7C6C6C6C6",
"o	c #E1E1E0E0E0E0",
"                        ",
"          .             ",
"        .. .            ",
"      ..   .            ",
"    ..      .           ",
" ...         .  .       ",
" . .          ..X.      ",
" .  .       ..XXX.      ",
" .  ..    ..XXXXXo.     ",
" .  .  ...XXXXXXooo.    ",
" . .X  .o.XXXXXoooo.    ",
"  .XX  .oo.XXXoooooo.   ",
"  .X   .oo..XXooooooo.  ",
"   .   .oo.XXooooooooo. ",
"   .   .o.XoooooooooooX.",
"    .   .XXoooooooooooo.",
"    .   .Xoooooooooooo. ",
"     .   .ooooooooooo.  ",
"     .  ..oooooooooo.   ",
"      ..  .ooooooo..    ",
"          .oooooo.      ",
"           .ooo..       ",
"           .oo.         ",
"            ..          "};
