/* XPM */
static char * get_news_xpm[] = {
"24 24 4 1",
".	c None",
"X	c #A5A5A5A59595",
"o	c #E1E1E0E0E0E0",
"O	c #C7C7C6C6C6C6",
"........................",
"........................",
"........................",
".....XXX................",
"...XXoooXXXXX...........",
"XXXoooooXXoooX.XXX......",
"XoXooXXXooooXXXoooX.....",
"XooXoXoXooXXXoooooX.....",
"XooXXXooXoXoXooooooX....",
"XooXOXooXXXooXooooooX...",
"XoXOOXooXOXooXXooooooX..",
"OXOOOXoXOOXooXoooooooX..",
"OXOooOXOOOXoXOooooooooX.",
".OXooOXOooOXOOooooooooX.",
".OXoooOXooOXOooooooooooX",
"..OXooOXoooOXooooooooooX",
"..OXooOOXooOXooooooooooX",
"...OXooOXoooOXoooooooXXX",
"...OXooXOXooOXooooooXOO.",
"....OXXOOXooXOXoooXXO...",
".....OO..OXXOOXooXOO....",
"..........OO..OXXO......",
"...............OO.......",
"........................"};
