/* XPM */
static char * gnntg_xpm[] = {
"24 24 4 1",
" 	c None",
".	c #000000000000",
"X	c #FFFFFFFFFFFF",
"o	c #C7C7C6C6C6C6",
"                        ",
" .......                ",
" .XXXXX.                ",
" .XXXXX.       ...      ",
" .XXXXX...    .ooo.     ",
" .XXXXX....  ..ooo..    ",
" .XXXXX..o.. ..ooo..    ",
" .XXXXX...o.. ..o..     ",
" .XXXXX. ..o........    ",
" .XXXXX.  ..oooooooo.   ",
" .......   .oooooooo..  ",
"            .ooooo..o.  ",
"             .oooo..o.  ",
"             .oooo..o.  ",
"             .oooo..o.  ",
"             .oooo..o.  ",
"             .........  ",
"            ......oo.   ",
"            .ooooo...   ",
"            .oo..o...   ",
"            .oo..o..    ",
"            ........    ",
"            .... ...    ",
"            ...  ...    "};
