<?xml version="1.0" encoding="UTF-8" standalone="no"?>
<!-- Gnu Emacs Logo

   Copyright (C) 2008-2012  Free Software Foundation, Inc.

   Author: Francesc Rocher <f.rocher@member.fsf.org>

   This file is part of GNU Emacs.

   GNU Emacs is free software: you can redistribute it and/or modify
   it under the terms of the GNU General Public License as published by
   the Free Software Foundation; either version 3 of the License, or
   (at your option) any later version.

   GNU Emacs is distributed in the hope that it will be useful,
   but WITHOUT ANY WARRANTY; without even the implied warranty of
   MERCHANTABILITY or FITNESS FOR A PARTICULAR PURPOSE.  See the
   GNU General Public License for more details.

   You should have received a copy of the GNU General Public License
   along with GNU Emacs.  If not, see <http://www.gnu.org/licenses/>.

-->
<!-- Created with Inkscape (http://www.inkscape.org/) -->
<svg
   xmlns:dc="http://purl.org/dc/elements/1.1/"
   xmlns:cc="http://creativecommons.org/ns#"
   xmlns:rdf="http://www.w3.org/1999/02/22-rdf-syntax-ns#"
   xmlns:svg="http://www.w3.org/2000/svg"
   xmlns="http://www.w3.org/2000/svg"
   xmlns:sodipodi="http://sodipodi.sourceforge.net/DTD/sodipodi-0.dtd"
   xmlns:inkscape="http://www.inkscape.org/namespaces/inkscape"
   id="svg2182"
   sodipodi:version="0.32"
   inkscape:version="0.46"
   width="260.05341"
   height="264.41125"
   version="1.0"
   sodipodi:docname="gnus.svg"
   inkscape:output_extension="org.inkscape.output.svg.inkscape"
   sodipodi:docbase="/home/rocher/local/fret/devel/emacs/etc/images/gnus"
   style="display:inline">
  <metadata
     id="metadata2166">
    <rdf:RDF>
      <cc:Work
         rdf:about="">
        <dc:format>image/svg+xml</dc:format>
        <dc:type
           rdf:resource="http://purl.org/dc/dcmitype/StillImage" />
        <cc:license
           rdf:resource="http://www.gnu.org/copyleft/gpl.html" />
        <dc:title>gnus</dc:title>
        <dc:date>2008/06/28</dc:date>
        <dc:creator>
          <cc:Agent>
            <dc:title>Francesc Rocher</dc:title>
          </cc:Agent>
        </dc:creator>
        <dc:rights>
          <cc:Agent>
            <dc:title>GPL</dc:title>
          </cc:Agent>
        </dc:rights>
        <dc:description>gnus splash image</dc:description>
        <cc:license
           rdf:resource="http://www.gnu.org/copyleft/gpl.html" />
      </cc:Work>
    </rdf:RDF>
  </metadata>
  <sodipodi:namedview
     inkscape:window-height="768"
     inkscape:window-width="872"
     inkscape:pageshadow="2"
     inkscape:pageopacity="0.0"
     guidetolerance="10.0"
     gridtolerance="10.0"
     objecttolerance="10.0"
     borderopacity="1.0"
     bordercolor="#666666"
     pagecolor="#ffffff"
     id="base"
     inkscape:zoom="2.0914389"
     inkscape:cx="130.0267"
     inkscape:cy="132.20563"
     inkscape:window-x="1620"
     inkscape:window-y="48"
     inkscape:current-layer="layer1"
     showgrid="false" />
  <defs
     id="defs2184" />
  <g
     inkscape:label="Layer 1"
     inkscape:groupmode="layer"
     id="layer1"
     transform="translate(-212.83046,-131.30737)">
    <path
       style="fill:#ffcc00;fill-opacity:1"
       d="M 260.5116,393.86288 C 262.4558,387.05826 267.2179,379.59417 297.5589,335.79513 C 319.8161,303.66546 330.6302,287.20557 331.3011,284.43711 C 333.0433,277.24717 333.8671,278.40273 332.422,286.00932 C 331.6536,290.05378 330.814,293.91798 330.5562,294.59643 C 329.9147,296.28421 263.0752,392.98791 261.2542,394.86288 C 259.97,396.18503 259.882,396.06646 260.5116,393.86288 z M 329.012,337.40194 C 329.012,329.74759 337.5126,308.05531 346.2698,293.36288 C 352.585,282.76738 356.0658,278.66265 357.6327,279.96306 C 360.1959,282.09035 360.2435,284.91669 357.7795,288.68079 C 348.0751,303.50587 344.2235,309.82445 343.039,312.86288 C 342.2885,314.78788 339.997,319.28788 337.9468,322.86288 C 335.8965,326.43788 333.6994,331.01438 333.0643,333.03289 C 331.7287,337.27788 329.012,340.20698 329.012,337.40194 z M 433.7142,310.70702 C 432.4323,301.35502 439.5948,263.14948 445.9643,245.36288 C 453.3999,224.59932 462.3035,187.01802 464.5939,166.7291 C 466.2806,151.78888 466.39427,150.80924 464.5937,145.48334 C 462.93203,140.5683 461.13308,138.66246 458.2794,135.86712 L 453.27086,132.20754 L 456.6769,131.86288 C 461.6112,131.86288 468.5389,137.86276 471.5396,144.73501 C 475.9375,154.80727 469.1008,193.79566 457.4889,224.86288 C 456.1527,228.43788 453.9429,236.08788 452.5782,241.86288 C 451.2135,247.63788 449.3929,254.61288 448.5324,257.36288 C 446.2294,264.72267 441.012,292.37437 441.012,297.21983 C 441.012,299.89703 439.8131,303.91285 437.6813,308.3766 L 434.3507,315.35061 L 433.7142,310.70702 z M 365.0631,287.61288 C 364.3799,285.87462 364.6166,285.04955 366.1039,283.98525 C 369.6205,281.46876 374.6693,273.55113 384.4649,255.19145 C 394.0909,237.14958 397.4834,232.60267 396.4281,239.15726 C 396.1442,240.92035 395.6983,243.71288 395.4372,245.36288 C 395.1761,247.01288 393.3158,250.83788 391.3032,253.86288 C 389.2906,256.88788 384.5367,265.43788 380.7391,272.86288 C 376.9414,280.28788 373.1295,287.15038 372.2681,288.11288 C 370.0173,290.62794 366.1425,290.35905 365.0631,287.61288 z M 320.6995,262.21705 C 320.3213,261.83892 320.0085,256.09205 320.0042,249.44621 C 319.9968,237.8214 319.8735,237.11784 316.7542,230.90534 C 314.6707,226.75574 312.0521,223.33733 309.4273,221.34075 L 305.3427,218.23371 L 307.5276,215.04493 L 309.7126,211.85615 L 312.2239,214.18355 C 318.5615,220.05696 320.0866,224.73813 320.89,240.78293 C 321.2726,248.42216 321.9363,253.34314 322.6144,253.56709 C 323.5922,253.89002 325.7193,249.88561 329.6283,240.36288 C 330.5606,238.09183 330.8754,237.84885 330.924,239.36288 C 331.0132,242.14152 328.403,251.64049 326.3917,255.85659 C 325.4718,257.78505 324.4153,260.0111 324.0441,260.80336 C 323.2442,262.51029 321.6616,263.17921 320.6995,262.21705 z M 245.1628,252.33639 C 242.7335,250.29224 242.012,248.8836 242.012,246.18509 L 242.012,242.68509 L 245.0499,245.24139 C 247.4506,247.26142 248.7618,247.66988 251.2999,247.18844 C 261.6191,245.23115 277.1998,234.54682 293.4888,218.25787 C 305.9223,205.82438 308.2914,205.51694 300.9064,217.2953 C 297.7695,222.29833 293.4637,226.68597 282.6564,235.89191 C 268.2506,248.16321 260.2183,253.05838 252.4128,254.32337 C 248.8949,254.8935 247.867,254.6118 245.1628,252.33639 z M 253.5564,224.18379 C 252.8479,221.3612 255.3686,216.65779 265.7868,201.36288 C 274.8859,188.00461 280.3419,181.70108 281.3091,183.42939 C 282.2829,185.16947 280.4642,188.16253 267.644,205.91868 C 262.7666,212.67391 257.7486,220.13306 256.493,222.49457 C 254.2534,226.70659 254.1976,226.73871 253.5564,224.18379 z M 384.1421,211.31896 C 380.7719,208.48314 379.5828,205.79041 380.4684,203.00013 C 381.0442,201.18604 381.1572,201.18566 384.7957,202.98583 C 389.6343,205.37981 394.2581,204.2146 402.3056,198.57322 C 408.5766,194.17721 413.0548,188.59621 417.4561,179.69171 C 419.3087,175.94368 420.7236,174.19872 421.6285,174.54597 C 423.516,175.27026 422.6184,178.34159 417.0017,190.37802 C 413.2533,198.41088 411.2578,201.35952 406.9201,205.27556 C 397.3226,213.94009 389.6701,215.97043 384.1421,211.31896 z M 349.133,205.78403 C 347.8246,205.26039 339.6679,197.95186 331.007,189.54285 C 314.4595,173.47664 311.9119,171.8466 303.3959,171.87654 C 296.4656,171.9009 295.032,172.81115 290.3019,180.19054 L 285.7873,187.23384 L 284.2923,183.79836 C 283.47,181.90885 282.4863,179.27759 282.1062,177.95112 C 281.7262,176.62464 280.6639,175.42908 279.7456,175.2943 C 278.8273,175.15952 276.1491,173.50192 273.794,171.61075 C 271.4389,169.71957 268.6984,167.88177 267.7041,167.52675 C 265.0385,166.57501 258.442,170.33611 255.7003,174.37086 C 252.3997,179.22817 236.1965,193.87325 232.3241,195.49923 C 229.2026,196.80994 224.2969,196.49006 220.8863,194.75342 C 219.99224,194.29815 217.81391,191.671 216.04559,188.91531 L 212.83046,183.90496 L 214.80788,178.98414 C 217.15719,174.46058 217.72614,175.73223 218.2264,179.21246 C 219.18564,185.88569 227.68275,189.64961 233.5992,186.55932 C 236.89108,184.8399 252.69001,170.52231 255.8597,166.33149 C 257.20184,164.55698 260.1603,162.00113 262.5471,160.73493 C 266.7567,158.50172 266.9938,158.48379 270.4593,160.13637 C 275.6317,162.60292 282.7604,169.52516 284.1848,173.46442 C 284.8607,175.33358 285.6949,176.86288 286.0385,176.86288 C 287.1145,176.86288 290.7063,172.50475 292.4119,169.12981 C 295.3372,163.34131 302.301,161.46605 311.3959,164.01764 C 314.6954,164.9433 318.6863,168.30161 331.512,180.94492 C 344.6932,193.93873 348.2487,196.90999 351.6941,197.81043 C 358.8294,199.67523 363.2588,198.02956 373.0854,189.86288 C 374.0781,189.03788 375.8498,185.88788 377.0226,182.86288 C 379.1772,177.30564 381.012,174.43132 381.012,176.61327 C 381.012,179.76831 373.6837,197.57365 371.7267,199.17339 C 363.2349,206.11521 361.752,206.86338 356.6119,206.7995 C 353.8069,206.76463 350.4414,206.30768 349.133,205.78403 z M 433.3755,165.01518 C 432.4887,162.66574 432.7313,161.09102 434.7622,156.01518 C 436.967,150.50427 437.5192,149.86288 440.0588,149.86288 C 443.1917,149.86288 445.26134,150.88627 443.04984,151.7349 C 442.27424,152.03251 440.6717,155.12671 440.0503,158.04922 C 439.1073,162.48386 436.241,167.86288 434.8209,167.86288 C 434.6171,167.86288 433.9667,166.58142 433.3755,165.01518 z "
       id="path2180"
       sodipodi:nodetypes="csssssccssssssccssscccsssssccccsssssssccsscccccsssssscccccsssssccssssccsssssssccsscccssssssscccssssssssssssssssccsssssc" />
    <path
       style="fill:#bf9900;fill-opacity:1"
       d="M 260.04229,388.62496 C 260.04229,388.26779 262.41982,381.75886 265.3257,374.16067 L 270.60912,360.34578 L 302.0757,315.68057 C 319.38233,291.1147 333.61856,271.09097 333.71178,271.18339 C 333.80501,271.27582 333.11629,275.17516 332.1813,279.84861 L 330.48132,288.34578 L 296.61135,337.34578 C 264.11074,384.3647 260.04229,390.06972 260.04229,388.62496 z M 335.05416,340.71822 C 335.08273,332.59962 342.90077,312.31861 351.0582,299.20165 C 361.32924,282.68606 362.26372,281.87063 364.84686,287.16962 C 366.25843,290.0653 369.41495,290.67354 372.08298,288.56398 C 375.51683,285.84889 380.03165,278.64484 389.67374,260.49539 C 395.24604,250.00657 400.36753,241.23737 401.05483,241.00827 C 402.01257,240.68902 402.13639,241.96455 401.58489,246.46875 C 401.0637,250.72541 399.8145,254.01845 397.05407,258.4125 C 394.95789,261.7492 390.67229,269.6242 387.5305,275.9125 C 384.38872,282.2008 380.31753,289.451 378.48342,292.02406 C 376.64931,294.59711 373.9974,298.97426 372.59029,301.75106 C 368.67817,309.47125 362.50895,311.98005 358.85614,307.33625 C 357.77044,305.95601 356.44994,305.09384 355.9217,305.42031 C 354.21874,306.4728 350.06567,313.70826 348.00838,319.20686 C 346.90756,322.14908 344.70815,326.53397 343.1208,328.95106 C 341.53346,331.36816 339.66859,335.26362 338.97666,337.60766 C 338.28473,339.95169 337.11643,342.36929 336.38044,342.9801 C 335.30763,343.87046 335.04464,343.42196 335.05416,340.71822 z M 426.51573,311.58247 C 424.295,305.9694 431.46333,266.71003 438.975,243.34578 C 449.77938,209.73992 452.64775,197.05569 454.04936,176.68519 C 454.96702,163.34843 454.96666,163.3447 452.25475,157.85768 C 449.80808,152.90735 449.07425,152.22791 444.7659,150.92392 C 437.56998,148.74594 435.05822,150.01328 433.02221,156.8493 C 431.37096,162.3935 429.09988,166.84578 427.92306,166.84578 C 427.57209,166.84578 426.72504,165.4941 426.04074,163.84204 C 424.90188,161.09259 425.14703,160.10787 428.93648,152.21044 C 436.06395,137.3564 443.83129,130.05358 450.98168,131.48366 C 456.22602,132.53253 462.61341,139.07407 464.61888,145.44997 C 466.30125,150.79865 466.29973,151.75864 464.58462,167.19573 C 463.13938,180.20371 461.75469,186.94649 457.46738,201.85317 C 454.53978,212.03223 451.15045,222.60723 449.93555,225.35317 C 446.1278,233.95946 435.54286,279.84531 433.44365,296.84578 C 432.61201,303.58079 427.5826,314.27908 426.51573,311.58247 z M 321.70896,253.17911 C 321.34229,252.81245 321.03695,247.97495 321.03042,242.42911 C 321.01146,226.31633 317.22788,216.41482 309.49941,212.25276 C 307.59799,211.22878 306.04229,210.18189 306.04229,209.92634 C 306.04229,208.49277 316.49525,193.84578 317.51833,193.84578 C 319.99152,193.84578 326.75558,199.72182 328.49015,203.37716 C 333.52767,213.99294 332.83118,233.93705 326.98086,246.59578 C 323.69212,253.71184 323.04713,254.51728 321.70896,253.17911 z M 244.54744,244.71616 C 240.09276,240.8049 240.10279,238.80779 244.62887,228.50779 C 251.12687,213.72028 279.13707,173.54057 281.38247,175.78597 C 282.70155,177.10505 279.80235,182.49237 274.46237,188.64499 C 269.3537,194.5311 259.18508,209.65448 255.66693,216.5987 C 252.14831,223.54384 252.80477,226.43547 258.23185,227.89683 C 260.41964,228.48594 263.56598,228.67004 265.22372,228.30593 C 271.51092,226.92503 284.00526,217.92955 300.05241,203.23049 C 301.68769,201.73258 303.03384,201.22253 303.91486,201.76703 C 306.03123,203.07502 296.56646,216.17624 288.01264,223.77902 C 271.80417,238.18538 260.40653,245.44918 251.29744,247.17791 C 248.61178,247.6876 247.44854,247.26336 244.54744,244.71616 z M 385.05208,203.08715 C 383.14399,202.1294 380.92795,200.16456 380.12756,198.72084 C 378.77163,196.27507 378.93462,195.50718 382.51548,187.47084 C 386.47833,178.57722 388.11251,177.21384 390.15681,181.09578 C 392.28002,185.12758 395.18904,185.76578 402.36307,183.77366 C 406.32748,182.67281 414.04229,176.5005 414.04229,174.42959 C 414.04229,172.88138 419.26037,164.84578 420.26573,164.84578 C 421.92875,164.84578 420.892,169.30215 417.54229,176.55216 C 415.61729,180.71857 414.04229,184.60238 414.04229,185.18286 C 414.04229,189.11353 400.4626,201.51494 394.28759,203.2235 C 393.0475,203.56662 391.24279,204.06811 390.27712,204.33793 C 389.31144,204.60775 386.96018,204.0449 385.05208,203.08715 z M 351.04229,197.71284 C 348.53009,196.99762 343.02663,192.26267 331.54229,180.93585 C 318.71242,168.28195 314.72677,164.92651 311.42627,164.00055 C 302.33137,161.44895 295.36758,163.32421 292.44224,169.11271 C 290.73664,172.48766 287.1448,176.84578 286.06886,176.84578 C 285.72522,176.84578 284.89106,175.31648 284.21516,173.44732 C 282.79071,169.50806 275.66202,162.58582 270.4896,160.11927 C 267.0241,158.46669 266.78705,158.48462 262.5774,160.71783 C 260.19059,161.98404 257.18126,164.50249 255.89001,166.31439 C 252.89963,170.51055 237.46336,184.53731 233.62954,186.54223 C 229.94244,188.47042 223.46343,187.71137 220.79008,185.03803 C 219.53025,183.77819 218.15867,179.73726 216.94597,173.71255 C 215.909,168.56083 214.85791,163.44578 214.61023,162.34578 C 214.36254,161.24578 214.77878,159.51283 215.5352,158.49477 C 216.86599,156.70366 217.03603,156.7143 220.78906,158.82362 C 222.92227,160.02255 225.74927,162.75363 227.07128,164.8927 C 229.98826,169.61248 233.49513,170.68159 238.2193,168.2913 C 243.83735,165.44874 252.09545,158.65646 255.73355,153.88584 C 261.53439,146.27922 267.01031,140.89191 269.60251,140.24131 C 270.95713,139.90132 274.42274,140.39104 277.30387,141.32958 C 281.31123,142.63498 283.68866,144.31886 287.42036,148.49485 L 292.29844,153.9537 L 294.13431,150.93486 C 296.60368,146.8743 304.74442,142.84578 310.48053,142.84578 C 318.1271,142.84578 324.55144,146.55377 334.0772,156.46527 C 338.7714,161.34955 343.75341,166.74716 345.14834,168.45995 C 354.26564,179.65481 368.97614,182.16041 374.81884,173.51365 C 376.07095,171.66063 378.24823,169.06481 379.65725,167.74515 L 382.2191,165.34578 L 381.49679,169.21635 C 380.17312,176.3093 374.99275,188.27876 372.22815,190.63193 C 364.00605,197.63042 357.90971,199.66799 351.04229,197.71284 z "
       id="path2169" />
  </g>
</svg>
