/* XPM */
static char *magick[] = {
/* columns rows colors chars-per-pixel */
"24 24 2  1",
"! c red",
"w c Gray75",
/* pixels */
"wwwwwwwwwwwwwwwwwwwwwwww",
"wwwwwwwwwwwwwwwwwwwwwwww",
"wwwwwwwww!!!wwwwwwwwwwww",
"wwwwwwwww!!!wwwwwwwwwwww",
"wwwwwwww!!!!!wwwwwwwwwww",
"wwwwwwww!!!!!wwwwwwwwwww",
"wwwwwww!!!!!!!wwwwwwwwww",
"wwwwwww!!!!!!!wwwwwwwwww",
"wwwwwww!!!!!!!wwwwwwwwww",
"wwwwwww!!!!!!!wwwwwwwwww",
"wwwwwww!!!!!!!wwwwwwwwww",
"wwwwwww!!!!!!!wwwwwwwwww",
"wwwwwww!!!!!!!wwwwwwwwww",
"wwwwwwww!!!!!wwwwwwwwwww",
"wwwwwwww!!!!!wwwwwwwwwww",
"wwwwwwww!!!!!wwwwwwwwwww",
"wwwwwwwww!!!wwwwwwwwwwww",
"wwwwwwwwwwwwwwwwwwwwwwww",
"wwwwwwwww!!!wwwwwwwwwwww",
"wwwwwwww!!!!!wwwwwwwwwww",
"wwwwwwww!!!!!wwwwwwwwwww",
"wwwwwwwww!!!wwwwwwwwwwww",
"wwwwwwwwwwwwwwwwwwwwwwww",
"wwwwwwwwwwwwwwwwwwwwwwww"
};
