/* XPM */
static char * kill_group_xpm[] = {
"24 24 3 1",
".	c None",
"o	c #000000000000",
"+	c #9A9A6C6C4E4E",
"o..o..o..o..o..o..o..o..",
"........................",
"........................",
"o..o..o..o..o..o..o..o..",
"........................",
"........................",
"o..o..o..o..++.o..o..o..",
".......++..++++.........",
"........++.+++..........",
"o..o..o.+++++..o..o..o..",
".........+++............",
".........++++...........",
"o..o..o.++++++.o..o..o..",
"........++.++++.........",
".......++...++++........",
"o..o...+.o...++o..o..o..",
"........................",
"........................",
"o..o..o..o..o..o..o..o..",
"........................",
"........................",
"o..o..o..o..o..o..o..o..",
"........................",
"........................"};
