/* XPM */
static char * mail_reply_xpm[] = {
"24 24 5 1",
" 	c None",
".	c #000000000000",
"X	c #E1E1E0E0E0E0",
"O	c #FFFFFFFFFFFF",
"o	c #C7C7C6C6C6C6",
"               ..       ",
"               .X.      ",
"              ..XX.     ",
"         ......XoXX..   ",
"       ...OOO.XooXXX.   ",
"      ..OOOO.XooXXX.    ",
"   ...OOOOO.XooXXX...   ",
"  ..OOOOOO.XXooXX.OO..  ",
"  ...OOOO.oooXXX......  ",
"  .O...O.oXooXXX...OO.  ",
"  .OOO...oXoXX...OOOO.  ",
"  .OOOOO...X...OOOOOO.  ",
"  .OOOOO.O...OO.OOOOO.  ",
"  .OOO..OOOOOOOO..OOO.  ",
"  .OO.OOOOOOOOOOOO.OO.  ",
"  .O.OOOOOOOOOOOOOO.O.  ",
"  ..OOOOOOOOOOOOOOOO..  ",
"  ....................  ",
"                        ",
"                        ",
"                        ",
"                        ",
"                        ",
"                        "};
