/* XPM */
static char * post_xpm[] = {
"24 24 8 1",
".	c None",
" 	c #434343434343",
"X	c #A5A5A5A59595",
"O	c #000000000000",
"+	c #C7C7C6C6C6C6",
"@	c #FFFF00000000",
"#	c #9A9A6C6C4E4E",
"$	c #E1E1E0E0E0E0",
"O..O..O..O..O..O..O..O..",
"........................",
"............X...........",
"O..O..O..O.XXX.O..O..O..",
".........XX++@X.........",
".......XX+++#@$X........",
"O..OXXX++++##$$$X.O..O..",
"....X$X++++++$$$X.......",
"....X$$X+++$$$$$$X......",
"O..OX$$XX++$$$$$$$X..O..",
"....X$$X++$$$$$$$$$X....",
"....X$X+$$$$$$$$$$$+X...",
"O..O+X++$$$$$$$$$$$$XO..",
"....+X+$$$$$$$$$$$$X+...",
".....+X$$$$$$$$$$$X+....",
"O..O.+X$$$$$$$$$XXO..O..",
"......+X$$$$$$$X++......",
"......+X$$$$$XX+........",
"O..O..O+X$$$X++O..O..O..",
".......+X$$X++..........",
"........+XX+............",
"O..O..O..O+.O..O..O..O..",
"........................",
"........................"};
