/* XPM */
static char *prev1[]={
"24 24 6 1",
". c None",
"# c #000000",
"d c #46463e",
"a c #676663",
"c c #a8a7a3",
"b c #ebeae4",
"........................",
"........................",
"........................",
"........................",
"........................",
"..............####......",
".........#####abbc#.....",
"....#####acbbbbbbc#.....",
"...#acbbbbbbbbbbacc#....",
"...#baabbbbbbbbcacb#....",
"...#cbcaabbd##dacbb#....",
"....#bbbccdcbbcdabbc#...",
"....#bbbbdccaaccdacb#...",
"....#cbbb#abbbbb#bac#...",
".....#bbb#cbbbbc#bbac#..",
".....#bbbdcbbbbddbbc##..",
".....#cbccdcbbd#####....",
"......#babbd##dd##......",
"......#acbc###.####.....",
"......#aa##......###....",
".......##.........###...",
"...................##...",
"........................",
"........................"};
