/* XPM */
static char * prev_ur_xpm[] = {
"24 24 8 1",
".	c None",
" 	c #000000000000",
"X	c #A5A5A5A59595",
"o	c #C7C7C6C6C6C6",
"O	c #FFFF00000000",
"+	c #9A9A6C6C4E4E",
"@	c #E1E1E0E0E0E0",
"#	c #FFFFFFFFFFFF",
" .. .. .. .. .. .. .. ..",
"........................",
"............X...........",
" .. .. .. .XXX. .. .. ..",
".........XXooOX.........",
".......XXooo+O@X........",
" .. XXXoooo++@@@X. .. ..",
"....X@Xoooooo@@@X.......",
"....X@@Xooo@@@@@@X......",
" .. X@@XXoo@@@@@@@X.. ..",
"....X@@Xo  @@@@@@  X....",
"....X@Xo ## X  @ ## X...",
" .. oXo #XXXoO@ ####  ..",
"....oXoXXooo+OX #### ...",
"....XXXoooo++@@X ## ....",
" .. X@Xoooooo@@@X  .. ..",
"....X@@Xooo@@@@@@X......",
"....X@@XXoo@@@@@@@X.....",
" .. X@@Xoo@@@@@@@@@X. ..",
"....X@Xo@@@@@@@@@@@@X...",
"... oXoo@@@@@@@@@@@@X...",
" .. oXo@@@@@@@@@@@@X....",
".....oX@@@@@@@@@@@X.....",
".....oX@@@@@@@@@@X......"};
