/* XPM */
static char * receipt_xpm[] = {
"24 24 5 1",
" 	c None",
".	c #FFFFFFFFFFFF",
"X	c #676766666363",
"o	c #FFFF00000000",
"O	c #AEAE3E3E4848",
"                        ",
"                        ",
"                   ..   ",
"                    .   ",
"                     .  ",
"                     .  ",
"                   ..   ",
"           Xooo  ..     ",
"      Xoooooooo..       ",
" Xoooooooooooooo  ...   ",
" oooooooooooOOoo .      ",
" ooooooooooOOOOo.       ",
"  oooooooooOO...o       ",
"  ooooooooooOOooo       ",
"  ooooooooooooooo       ",
"   ooooooooooooooo      ",
"   oooooooooooooo       ",
"   ooooooooooo          ",
"    ooooooo             ",
"    oooo                ",
"    oo                  ",
"                        ",
"                        ",
"                        "};
