/* XPM */
static char * reply_xpm[] = {
"24 24 4 1",
" 	c None",
".	c #000000000000",
"X	c #E1E1E0E0E0E0",
"O	c #FFFFFFFFFFFF",
"                        ",
"                        ",
"                        ",
"           ....         ",
"          ..XXX..       ",
"         ..XXXXX..      ",
"       .O.XXXXXXX..     ",
"     ..O.XXXXXXXXX..    ",
"    .OO.XXXXXXXXXX...   ",
"   .OO.XXXXXXXXXX.OO..  ",
" ..OO.XXXXXXXXXX.OOOO.. ",
" .....XXXXXXXXX.OOO.... ",
" .OOO.XXXXXXXX.OO..OOO. ",
" .OOOO...XXXXX...OOOOO. ",
" .OOOOOOO..XX..OOOOOOO. ",
" .OOOOOOO......OOOOOOO. ",
" .OOOOOO.OO..O..OOOOOO. ",
" .OOOOO.OOOOOOOO.OOOOO. ",
" .OOOO.OOOOOOOOOO.OOOO. ",
" .OOO.OOOOOOOOOOOO.OOO. ",
" .O..OOOOOOOOOOOOOO..O. ",
" ..OOOOOOOOOOOOOOOOOO.. ",
" ...................... ",
"                        "};
