/* XPM */
static char * save_aif_xpm[] = {
"24 24 6 1",
" 	c None",
".	c #999999999999",
"X	c #E1E1E0E0E0E0",
"o	c #C7C7C6C6C6C6",
"O	c #000000000000",
"+	c #FFFFFFFFFFFF",
"                        ",
"                        ",
"       .............    ",
"       .XXXXXXXXXX.X..  ",
"       .XXXXXXXXXX.XX.  ",
"       .XXXXXXXXXX....  ",
"       .XXXXXXXXXXooo.  ",
"       .XXXXXXXXXXXXX.  ",
"       .XXXXXXXXXXXXX.  ",
"       .XXXXXXXXXXXXX.  ",
" OOOOOOOOOOOOOOXXXXXX.  ",
" O..O+++++++O.OXXXXXX.  ",
" O..O+++++++O.OXXXXXX.  ",
" O..O+++++++O.OXXXXXX.  ",
" O..O+++++++O.OXXXXXX.  ",
" O..O+++++++O.OXXXXXX.  ",
" O..OOOOOOOOO.OXXXXXX.  ",
" O............OXXXXXX.  ",
" O............OXXXXXX.  ",
" O..OOOOOOOOO.O.......  ",
" O..OoooooO++.O         ",
" O..OoooooO++.O         ",
"  O.OoooooO++.O         ",
"   OOOOOOOOOOOO         "};
