/* XPM */
static char * save_art_xpm[] = {
"24 24 5 1",
" 	c None",
".	c #000000000000",
"X	c #FFFFFFFFFFFF",
"o	c #999999999999",
"O	c #C7C7C6C6C6C6",
"                        ",
"                        ",
"     .................. ",
"     ...XXXXXXXXXXXXX.. ",
"     .XX..XXXXXXXXX..X. ",
"     .XXXX..XXXXX..XXX. ",
"     .XXXXX......XXXXX. ",
"     .XXX..XX..XX..XXX. ",
"     .XX..XXXXXXXX..XX. ",
"     ...XXXXXXXXXXXX... ",
" ..............XXXXXXX. ",
" .oo.XXXXXXX.o......... ",
" .oo.XXXXXXX.o.         ",
" .oo.XXXXXXX.o.         ",
" .oo.XXXXXXX.o.         ",
" .oo.XXXXXXX.o.         ",
" .oo.........o.         ",
" .oooooooooooo.         ",
" .oooooooooooo.         ",
" .oo.........o.         ",
" .oo.OOOOO.XXo.         ",
" .oo.OOOOO.XXo.         ",
"  .o.OOOOO.XXo.         ",
"   ............         "};
