/* XPM */
static char * stock_task_recurring_xpm[] = {
"24 24 31 1",
" 	c None",
".	c #000000",
"+	c #FFFFFF",
"@	c #F4E2BC",
"#	c #F4D597",
"$	c #434343",
"%	c #F0CC84",
"&	c #EBB13D",
"*	c #4B4B4B",
"=	c #535353",
"-	c #C8C8C8",
";	c #7D7D7D",
">	c #7C7C7C",
",	c #858585",
"'	c #5C5C5C",
")	c #949494",
"!	c #F2F2F2",
"~	c #B6B6B6",
"{	c #BDBDBD",
"]	c #818181",
"^	c #878787",
"/	c #B2B2B2",
"(	c #FDFDFD",
"_	c #DBDBDB",
":	c #CCCCCC",
"<	c #ECECEC",
"[	c #7F7F99",
"}	c #333366",
"|	c #8F8FA9",
"1	c #59597F",
"2	c #EEEEEE",
"                        ",
"     . . . . . . .      ",
"    .+.+.+.+.+.+.+.     ",
"    .@.#.#.#.#.#.#.     ",
"   .$%$&*&*&=&=&$&*.    ",
"   .-*;*>*>*>*>=,').    ",
"   .!>~>{]{]{]{]{^/.    ",
"   .(_:::::::::::_/.    ",
"   .+<<<<<<<<<<<<</.    ",
"   .+_::[}::}}}}:_/.    ",
"   .+<<|}<<<}}}<<</.    ",
"   .+_:}[:::}}1[:_/.    ",
"   .+<<}<<<<}<|}<</.    ",
"   .+_:}[:}::::}:_/.    ",
"   .+<<|}}}<<<|}<</.    ",
"   .+_::}}}:::}[:_/.    ",
"   .+<<}}}}<<}|<<</.    ",
"   .+_:::::::::::_/.    ",
"   .+<<<<<<<<<<<<</.    ",
"   .2//////////////.    ",
"   .................    ",
"                        ",
"                        ",
"                        "};
