/* XPM */
static char * unsubscribe_xpm[] = {
"24 24 5 1",
" 	c None",
".	c #A5A5A5A59595",
"X	c #E1E1E0E0E0E0",
"o	c #C7C7C6C6C6C6",
"O	c #FFFF00000000",
"                        ",
"                        ",
"                        ",
"     ...                ",
"   ..XXX.....           ",
"...XXXXX..XXX. ...      ",
".X.XX...XXXX...XXX.     ",
".XX.X.X.XX...XXXXX.     ",
".XX...XX.X.X.XXXXXX.    ",
".XX.o.XX...XX.XXXXXX.   ",
".X.oo.XX.o.XX..XXXXXX.  ",
"o.ooo.X.oo.XX.XXXXXXX.  ",
"o.oXXo.ooo.X.oXXXXXXXX. ",
" o.XXo.oXXo.ooXXOXXXXX. ",
" o.XXXo.XXo.oXXXOXXXXXX.",
"  o.XXo.XXXo.XOOOXXXXXX.",
"  o.XXoo.XXo.XoOOOXXXXX.",
"   o.XXo.XXXo.XOoOXXX...",
"   o.XX.o.XXo.XOXoXX.oo ",
"    o..oo.XX.o.oXX..o   ",
"     oo  o..oo.XX.oo    ",
"          oo  o..o      ",
"               oo       ",
"                        "};
