/* XPM */
static char * uu_decode_xpm[] = {
"24 24 9 1",
" 	c None",
".	c #919187876969",
"X	c #C2C2B9B99C9C",
"o	c #868686868686",
"O	c #8F8F8F8F8F8F",
"+	c #000000000000",
"@	c #4C4C4C4C4C4C",
"#	c #E9E9EFEFE8E8",
"$	c #8686ADAD7D7D",
"                        ",
"                        ",
"                        ",
"    ..............      ",
"    X.o.........O.++    ",
"    XX++++++++++..++    ",
"    XX@########+..++    ",
"    XX@########+..++    ",
"    XX@$#$$$#$#+..++    ",
"    XX@#$$$$$$#+..++    ",
"    XX@##$#####+..++    ",
"    XX@##$#$$##+..++    ",
"    XX@##$#$$##+..++    ",
"    XX@##$$#$$#+..++    ",
"    XX@######$#+..++    ",
"    XX@########+..++    ",
"    XX@########+..++    ",
"    XX.@@@@@@@@@..++    ",
"    X.XXXXXXXXXX..++    ",
"    .XXXXXXXXXXXX.++    ",
"     +++++++++++++++    ",
"     +++++++++++++++    ",
"                        ",
"                        "};
