/* XPM */
static char * uu_post_xpm[] = {
"24 24 8 1",
".	c None",
"X	c #000000000000",
"+	c #C2C2B9B99C9C",
"@	c #919187876969",
"#	c #868686868686",
"%	c #4C4C4C4C4C4C",
"&	c #E9E9EFEFE8E8",
"*	c #8686ADAD7D7D",
"X..X..X..X.XX..X..X..X..",
"..........X.X...........",
".........X...X..........",
"X..X..X.XX..X.XX..X..X..",
".......X.......X........",
"......X.........X.......",
"X..X+X@@@@@@@@@@@XX..X..",
"....+@@@@@@@@@@@@@......",
"....++XXXXXXXXXX@@......",
"X..X++%&&&&&&&&X@@X..X..",
"....++%&&&&&&&&X@@......",
"....++%*&***&*&X@@......",
"X..X++%&******&X@@X..X..",
"....++%&&*&&&&&X@@......",
"....++%&&*&**&&X@@......",
"X..X++%&&*&**&&X@@X..X..",
"....++%&&**&**&X@@......",
"....++%&&&&&&*&X@@......",
"X..X++%&&&&&&&&X@@X..X..",
"....++%&&&&&&&&X@@......",
"....++@%%%%%%%%%@@......",
"X..X+@++++++++++@@X..X..",
"....+++++++++++++@......",
"........................"};
