/* XPM */
static char * next_xpm[] = {
"24 24 5 1",
" 	c None",
".	s light1	c grey90",
"X	s main	c grey70",
"o	s shadow	c grey50",
"O	s light2	c grey80",
"                        ",
" ...................... ",
" .XXXXXXXXXXXXXXXXXXXXo ",
" .XXXXXXXXXXXXXXXXXXXXo ",
" .XXXXXXXXXXXXXXXXXXXXo ",
" .XXX.OXXXXXXXXX...XXXo ",
" .XXX.XOXXXXXXXX.XoXXXo ",
" .XXX.XXOOXXXXXX.XoXXXo ",
" .XXX.XXXXOXXXXX.XoXXXo ",
" .XXX.XXXXXOXXXX.XoXXXo ",
" .XXX.XXXXXXOOXX.XoXXXo ",
" .XXX.XXXXXXXXOX.XoXXXo ",
" .XXX.XXXXXXXXoX.XoXXXo ",
" .XXX.XXXXXXooXX.XoXXXo ",
" .XXX.XXXXXoXXXX.XoXXXo ",
" .XXX.XXXXoXXXXX.XoXXXo ",
" .XXX.XXooXXXXXX.XoXXXo ",
" .XXX.XoXXXXXXXX.XoXXXo ",
" .XXX.oXXXXXXXXX.ooXXXo ",
" .XXXXXXXXXXXXXXXXXXXXo ",
" .XXXXXXXXXXXXXXXXXXXXo ",
" .XXXXXXXXXXXXXXXXXXXXo ",
" .ooooooooooooooooooooo ",
"                        "};

