/* XPM */
static char * play_xpm[] = {
"24 24 5 1",
" 	c None",
".	s light1	c grey90",
"X	s main	c grey70",
"o	s shadow	c grey50",
"O	s light2	c grey80",
"                        ",
" ...................... ",
" .XXXXXXXXXXXXXXXXXXXXo ",
" .XXXXXXXXXXXXXXXXXXXXo ",
" .XXXXXXXXXXXXXXXXXXXXo ",
" .XXX.OOXXXXXXXXXXXXXXo ",
" .XXX.XXOOXXXXXXXXXXXXo ",
" .XXX.XXXXOOXXXXXXXXXXo ",
" .XXX.XXXXXXOOXXXXXXXXo ",
" .XXX.XXXXXXXXOOXXXXXXo ",
" .XXX.XXXXXXXXXXOOXXXXo ",
" .XXX.XXXXXXXXXXXXOXXXo ",
" .XXX.XXXXXXXXXXXXoXXXo ",
" .XXX.XXXXXXXXXXooXXXXo ",
" .XXX.XXXXXXXXooXXXXXXo ",
" .XXX.XXXXXXooXXXXXXXXo ",
" .XXX.XXXXooXXXXXXXXXXo ",
" .XXX.XXooXXXXXXXXXXXXo ",
" .XXX.ooXXXXXXXXXXXXXXo ",
" .XXXXXXXXXXXXXXXXXXXXo ",
" .XXXXXXXXXXXXXXXXXXXXo ",
" .XXXXXXXXXXXXXXXXXXXXo ",
" .ooooooooooooooooooooo ",
"                        "};

