/* XPM */
static char * prev_xpm[] = {
"24 24 4 1",
" 	c None",
".	s light1	c grey90",
"X	s main	c grey70",
"o	s shadow	c grey50",
"                        ",
" ...................... ",
" .XXXXXXXXXXXXXXXXXXXXo ",
" .XXXXXXXXXXXXXXXXXXXXo ",
" .XXXXXXXXXXXXXXXXXXXXo ",
" .XXX...XXXXXXXXX..XXXo ",
" .XXX.XoXXXXXXXX.XoXXXo ",
" .XXX.XoXXXXXX..XXoXXXo ",
" .XXX.XoXXXXX.XXXXoXXXo ",
" .XXX.XoXXXX.XXXXXoXXXo ",
" .XXX.XoXX..XXXXXXoXXXo ",
" .XXX.XoX.XXXXXXXXoXXXo ",
" .XXX.XoXoXXXXXXXXoXXXo ",
" .XXX.XoXXooXXXXXXoXXXo ",
" .XXX.XoXXXXoXXXXXoXXXo ",
" .XXX.XoXXXXXoXXXXoXXXo ",
" .XXX.XoXXXXXXooXXoXXXo ",
" .XXX.XoXXXXXXXXoXoXXXo ",
" .XXX.ooXXXXXXXXXooXXXo ",
" .XXXXXXXXXXXXXXXXXXXXo ",
" .XXXXXXXXXXXXXXXXXXXXo ",
" .XXXXXXXXXXXXXXXXXXXXo ",
" .ooooooooooooooooooooo ",
"                        "};

