/* XPM */
static char * stop_xpm[] = {
"24 24 4 1",
" 	c None",
".	s light1	c grey90",
"X	s main	c grey70",
"o	s shadow	c grey50",
"                        ",
" ...................... ",
" .XXXXXXXXXXXXXXXXXXXXo ",
" .XXXXXXXXXXXXXXXXXXXXo ",
" .XXXXXXXXXXXXXXXXXXXXo ",
" .XXX..............XXXo ",
" .XXX.XXXXXXXXXXXXoXXXo ",
" .XXX.XXXXXXXXXXXXoXXXo ",
" .XXX.XXXXXXXXXXXXoXXXo ",
" .XXX.XXXXXXXXXXXXoXXXo ",
" .XXX.XXXXXXXXXXXXoXXXo ",
" .XXX.XXXXXXXXXXXXoXXXo ",
" .XXX.XXXXXXXXXXXXoXXXo ",
" .XXX.XXXXXXXXXXXXoXXXo ",
" .XXX.XXXXXXXXXXXXoXXXo ",
" .XXX.XXXXXXXXXXXXoXXXo ",
" .XXX.XXXXXXXXXXXXoXXXo ",
" .XXX.XXXXXXXXXXXXoXXXo ",
" .XXX.oooooooooooooXXXo ",
" .XXXXXXXXXXXXXXXXXXXXo ",
" .XXXXXXXXXXXXXXXXXXXXo ",
" .XXXXXXXXXXXXXXXXXXXXo ",
" .ooooooooooooooooooooo ",
"                        "};

